999
FBX AutoCAD (*.DXF) exporter
  0
SECTION
  2
HEADER
  9
$ACADVER
  1
AC1008
  9
$UCSORG
 10
0.0
 20
0.0
 30
0.0
  9
$UCSXDIR
 10
1.0
 20
0.0
 30
0.0
  9
$TILEMODE
 70
   1
  9
$UCSYDIR
 10
0.0
 20
1.0
 30
0.0
  0
ENDSEC
  0
SECTION
  2
TABLES
  0
TABLE
  2
LTYPE
 70
   1
  0
LTYPE
  2
CONTINUOUS
 70
   64
  3
Solid line
 72
   65
 73
   0
 40
0.0
  0
ENDTAB
  0
TABLE
  2
LAYER
 70
   8
  0
LAYER
  2
Body
 70
   0
 62
   250
  6
CONTINUOUS
  0
LAYER
  2
Triangle_Set
 70
   0
 62
   41
  6
CONTINUOUS
  0
LAYER
  2
Triangle_Set_ncl1_1
 70
   0
 62
   41
  6
CONTINUOUS
  0
LAYER
  2
Triangle_Set_ncl1_2
 70
   0
 62
   253
  6
CONTINUOUS
  0
LAYER
  2
Triangle_Set_ncl1_3
 70
   0
 62
   253
  6
CONTINUOUS
  0
ENDTAB
  0
ENDSEC
  0
SECTION
  2
BLOCKS
  0
ENDSEC
  0
SECTION
  2
ENTITIES
  0
POLYLINE
  8
Body
 62
   250
 66
   1
 10
0.0
 20
0.0
 30
0.0
 70
   64
 71
   92
 72
   180
  0
VERTEX
  8
Body
 10
-1.600000
 20
-0.825000
 30
0.740000
 70
   192
  0
VERTEX
  8
Body
 10
-1.600000
 20
-0.198997
 30
0.740000
 70
   192
  0
VERTEX
  8
Body
 10
-1.600000
 20
-0.825000
 30
0.010000
 70
   192
  0
VERTEX
  8
Body
 10
-1.600000
 20
-0.198997
 30
0.010000
 70
   192
  0
VERTEX
  8
Body
 10
1.600000
 20
-0.825000
 30
0.740000
 70
   192
  0
VERTEX
  8
Body
 10
1.600000
 20
-0.198997
 30
0.740000
 70
   192
  0
VERTEX
  8
Body
 10
1.580000
 20
-0.200000
 30
0.740000
 70
   192
  0
VERTEX
  8
Body
 10
1.580000
 20
0.200000
 30
0.740000
 70
   192
  0
VERTEX
  8
Body
 10
1.600000
 20
0.198997
 30
0.740000
 70
   192
  0
VERTEX
  8
Body
 10
1.600000
 20
0.825000
 30
0.740000
 70
   192
  0
VERTEX
  8
Body
 10
-1.600000
 20
0.825000
 30
0.740000
 70
   192
  0
VERTEX
  8
Body
 10
-1.600000
 20
0.198997
 30
0.740000
 70
   192
  0
VERTEX
  8
Body
 10
-1.580000
 20
0.200000
 30
0.740000
 70
   192
  0
VERTEX
  8
Body
 10
-1.580000
 20
-0.200000
 30
0.740000
 70
   192
  0
VERTEX
  8
Body
 10
-1.580000
 20
-0.200000
 30
0.010000
 70
   192
  0
VERTEX
  8
Body
 10
1.600000
 20
-0.825000
 30
0.010000
 70
   192
  0
VERTEX
  8
Body
 10
1.600000
 20
-0.198997
 30
0.010000
 70
   192
  0
VERTEX
  8
Body
 10
1.580000
 20
-0.200000
 30
0.010000
 70
   192
  0
VERTEX
  8
Body
 10
1.580000
 20
0.200000
 30
0.010000
 70
   192
  0
VERTEX
  8
Body
 10
1.600000
 20
0.198997
 30
0.010000
 70
   192
  0
VERTEX
  8
Body
 10
1.600000
 20
0.825000
 30
0.010000
 70
   192
  0
VERTEX
  8
Body
 10
-1.600000
 20
0.825000
 30
0.010000
 70
   192
  0
VERTEX
  8
Body
 10
-1.600000
 20
0.198997
 30
0.010000
 70
   192
  0
VERTEX
  8
Body
 10
-1.580000
 20
0.200000
 30
0.010000
 70
   192
  0
VERTEX
  8
Body
 10
1.545270
 20
-0.196962
 30
0.740000
 70
   192
  0
VERTEX
  8
Body
 10
1.511596
 20
-0.187939
 30
0.740000
 70
   192
  0
VERTEX
  8
Body
 10
1.480000
 20
-0.173205
 30
0.740000
 70
   192
  0
VERTEX
  8
Body
 10
1.451442
 20
-0.153209
 30
0.740000
 70
   192
  0
VERTEX
  8
Body
 10
1.426791
 20
-0.128558
 30
0.740000
 70
   192
  0
VERTEX
  8
Body
 10
1.406795
 20
-0.100000
 30
0.740000
 70
   192
  0
VERTEX
  8
Body
 10
1.392061
 20
-0.068404
 30
0.740000
 70
   192
  0
VERTEX
  8
Body
 10
1.383038
 20
-0.034730
 30
0.740000
 70
   192
  0
VERTEX
  8
Body
 10
1.380000
 20
-0.000000
 30
0.740000
 70
   192
  0
VERTEX
  8
Body
 10
1.383038
 20
0.034730
 30
0.740000
 70
   192
  0
VERTEX
  8
Body
 10
1.392061
 20
0.068404
 30
0.740000
 70
   192
  0
VERTEX
  8
Body
 10
1.406795
 20
0.100000
 30
0.740000
 70
   192
  0
VERTEX
  8
Body
 10
1.426791
 20
0.128558
 30
0.740000
 70
   192
  0
VERTEX
  8
Body
 10
1.451442
 20
0.153209
 30
0.740000
 70
   192
  0
VERTEX
  8
Body
 10
1.480000
 20
0.173205
 30
0.740000
 70
   192
  0
VERTEX
  8
Body
 10
1.511596
 20
0.187939
 30
0.740000
 70
   192
  0
VERTEX
  8
Body
 10
1.545270
 20
0.196962
 30
0.740000
 70
   192
  0
VERTEX
  8
Body
 10
-1.545270
 20
0.196962
 30
0.740000
 70
   192
  0
VERTEX
  8
Body
 10
-1.511596
 20
0.187939
 30
0.740000
 70
   192
  0
VERTEX
  8
Body
 10
-1.480000
 20
0.173205
 30
0.740000
 70
   192
  0
VERTEX
  8
Body
 10
-1.451442
 20
0.153209
 30
0.740000
 70
   192
  0
VERTEX
  8
Body
 10
-1.426791
 20
0.128558
 30
0.740000
 70
   192
  0
VERTEX
  8
Body
 10
-1.406795
 20
0.100000
 30
0.740000
 70
   192
  0
VERTEX
  8
Body
 10
-1.392061
 20
0.068404
 30
0.740000
 70
   192
  0
VERTEX
  8
Body
 10
-1.383038
 20
0.034730
 30
0.740000
 70
   192
  0
VERTEX
  8
Body
 10
-1.380000
 20
0.000000
 30
0.740000
 70
   192
  0
VERTEX
  8
Body
 10
-1.383038
 20
-0.034730
 30
0.740000
 70
   192
  0
VERTEX
  8
Body
 10
-1.392061
 20
-0.068404
 30
0.740000
 70
   192
  0
VERTEX
  8
Body
 10
-1.406795
 20
-0.100000
 30
0.740000
 70
   192
  0
VERTEX
  8
Body
 10
-1.426791
 20
-0.128558
 30
0.740000
 70
   192
  0
VERTEX
  8
Body
 10
-1.451442
 20
-0.153209
 30
0.740000
 70
   192
  0
VERTEX
  8
Body
 10
-1.480000
 20
-0.173205
 30
0.740000
 70
   192
  0
VERTEX
  8
Body
 10
-1.511596
 20
-0.187939
 30
0.740000
 70
   192
  0
VERTEX
  8
Body
 10
-1.545270
 20
-0.196962
 30
0.740000
 70
   192
  0
VERTEX
  8
Body
 10
1.545270
 20
-0.196962
 30
0.010000
 70
   192
  0
VERTEX
  8
Body
 10
1.511596
 20
-0.187939
 30
0.010000
 70
   192
  0
VERTEX
  8
Body
 10
1.480000
 20
-0.173205
 30
0.010000
 70
   192
  0
VERTEX
  8
Body
 10
1.451442
 20
-0.153209
 30
0.010000
 70
   192
  0
VERTEX
  8
Body
 10
1.426791
 20
-0.128558
 30
0.010000
 70
   192
  0
VERTEX
  8
Body
 10
1.406795
 20
-0.100000
 30
0.010000
 70
   192
  0
VERTEX
  8
Body
 10
1.392061
 20
-0.068404
 30
0.010000
 70
   192
  0
VERTEX
  8
Body
 10
1.383038
 20
-0.034730
 30
0.010000
 70
   192
  0
VERTEX
  8
Body
 10
1.380000
 20
-0.000000
 30
0.010000
 70
   192
  0
VERTEX
  8
Body
 10
1.383038
 20
0.034730
 30
0.010000
 70
   192
  0
VERTEX
  8
Body
 10
1.392061
 20
0.068404
 30
0.010000
 70
   192
  0
VERTEX
  8
Body
 10
1.406795
 20
0.100000
 30
0.010000
 70
   192
  0
VERTEX
  8
Body
 10
1.426791
 20
0.128558
 30
0.010000
 70
   192
  0
VERTEX
  8
Body
 10
1.451442
 20
0.153209
 30
0.010000
 70
   192
  0
VERTEX
  8
Body
 10
1.480000
 20
0.173205
 30
0.010000
 70
   192
  0
VERTEX
  8
Body
 10
1.511596
 20
0.187939
 30
0.010000
 70
   192
  0
VERTEX
  8
Body
 10
1.545270
 20
0.196962
 30
0.010000
 70
   192
  0
VERTEX
  8
Body
 10
-1.545270
 20
0.196962
 30
0.010000
 70
   192
  0
VERTEX
  8
Body
 10
-1.511596
 20
0.187939
 30
0.010000
 70
   192
  0
VERTEX
  8
Body
 10
-1.480000
 20
0.173205
 30
0.010000
 70
   192
  0
VERTEX
  8
Body
 10
-1.451442
 20
0.153209
 30
0.010000
 70
   192
  0
VERTEX
  8
Body
 10
-1.426791
 20
0.128558
 30
0.010000
 70
   192
  0
VERTEX
  8
Body
 10
-1.406795
 20
0.100000
 30
0.010000
 70
   192
  0
VERTEX
  8
Body
 10
-1.392061
 20
0.068404
 30
0.010000
 70
   192
  0
VERTEX
  8
Body
 10
-1.383038
 20
0.034730
 30
0.010000
 70
   192
  0
VERTEX
  8
Body
 10
-1.380000
 20
0.000000
 30
0.010000
 70
   192
  0
VERTEX
  8
Body
 10
-1.383038
 20
-0.034730
 30
0.010000
 70
   192
  0
VERTEX
  8
Body
 10
-1.392061
 20
-0.068404
 30
0.010000
 70
   192
  0
VERTEX
  8
Body
 10
-1.406795
 20
-0.100000
 30
0.010000
 70
   192
  0
VERTEX
  8
Body
 10
-1.426791
 20
-0.128558
 30
0.010000
 70
   192
  0
VERTEX
  8
Body
 10
-1.451442
 20
-0.153209
 30
0.010000
 70
   192
  0
VERTEX
  8
Body
 10
-1.480000
 20
-0.173205
 30
0.010000
 70
   192
  0
VERTEX
  8
Body
 10
-1.511596
 20
-0.187939
 30
0.010000
 70
   192
  0
VERTEX
  8
Body
 10
-1.545270
 20
-0.196962
 30
0.010000
 70
   192
  0
VERTEX
  8
Body
 62
   250
 10
0.0
 20
0.0
 30
0.0
 70
   128
 71
   2
 72
   1
 73
   3
  0
VERTEX
  8
Body
 62
   250
 10
0.0
 20
0.0
 30
0.0
 70
   128
 71
   2
 72
   3
 73
   4
  0
VERTEX
  8
Body
 62
   250
 10
0.0
 20
0.0
 30
0.0
 70
   128
 71
   5
 72
   1
 73
   30
  0
VERTEX
  8
Body
 62
   250
 10
0.0
 20
0.0
 30
0.0
 70
   128
 71
   6
 72
   5
 73
   7
  0
VERTEX
  8
Body
 62
   250
 10
0.0
 20
0.0
 30
0.0
 70
   128
 71
   7
 72
   5
 73
   25
  0
VERTEX
  8
Body
 62
   250
 10
0.0
 20
0.0
 30
0.0
 70
   128
 71
   25
 72
   5
 73
   26
  0
VERTEX
  8
Body
 62
   250
 10
0.0
 20
0.0
 30
0.0
 70
   128
 71
   26
 72
   5
 73
   27
  0
VERTEX
  8
Body
 62
   250
 10
0.0
 20
0.0
 30
0.0
 70
   128
 71
   27
 72
   5
 73
   28
  0
VERTEX
  8
Body
 62
   250
 10
0.0
 20
0.0
 30
0.0
 70
   128
 71
   28
 72
   5
 73
   29
  0
VERTEX
  8
Body
 62
   250
 10
0.0
 20
0.0
 30
0.0
 70
   128
 71
   29
 72
   5
 73
   30
  0
VERTEX
  8
Body
 62
   250
 10
0.0
 20
0.0
 30
0.0
 70
   128
 71
   33
 72
   32
 73
   50
  0
VERTEX
  8
Body
 62
   250
 10
0.0
 20
0.0
 30
0.0
 70
   128
 71
   49
 72
   34
 73
   33
  0
VERTEX
  8
Body
 62
   250
 10
0.0
 20
0.0
 30
0.0
 70
   128
 71
   36
 72
   35
 73
   47
  0
VERTEX
  8
Body
 62
   250
 10
0.0
 20
0.0
 30
0.0
 70
   128
 71
   37
 72
   36
 73
   10
  0
VERTEX
  8
Body
 62
   250
 10
0.0
 20
0.0
 30
0.0
 70
   128
 71
   38
 72
   37
 73
   10
  0
VERTEX
  8
Body
 62
   250
 10
0.0
 20
0.0
 30
0.0
 70
   128
 71
   39
 72
   38
 73
   10
  0
VERTEX
  8
Body
 62
   250
 10
0.0
 20
0.0
 30
0.0
 70
   128
 71
   40
 72
   39
 73
   10
  0
VERTEX
  8
Body
 62
   250
 10
0.0
 20
0.0
 30
0.0
 70
   128
 71
   41
 72
   40
 73
   10
  0
VERTEX
  8
Body
 62
   250
 10
0.0
 20
0.0
 30
0.0
 70
   128
 71
   8
 72
   41
 73
   10
  0
VERTEX
  8
Body
 62
   250
 10
0.0
 20
0.0
 30
0.0
 70
   128
 71
   9
 72
   8
 73
   10
  0
VERTEX
  8
Body
 62
   250
 10
0.0
 20
0.0
 30
0.0
 70
   128
 71
   10
 72
   36
 73
   11
  0
VERTEX
  8
Body
 62
   250
 10
0.0
 20
0.0
 30
0.0
 70
   128
 71
   35
 72
   34
 73
   48
  0
VERTEX
  8
Body
 62
   250
 10
0.0
 20
0.0
 30
0.0
 70
   128
 71
   11
 72
   36
 73
   47
  0
VERTEX
  8
Body
 62
   250
 10
0.0
 20
0.0
 30
0.0
 70
   128
 71
   12
 72
   11
 73
   13
  0
VERTEX
  8
Body
 62
   250
 10
0.0
 20
0.0
 30
0.0
 70
   128
 71
   13
 72
   11
 73
   42
  0
VERTEX
  8
Body
 62
   250
 10
0.0
 20
0.0
 30
0.0
 70
   128
 71
   42
 72
   11
 73
   43
  0
VERTEX
  8
Body
 62
   250
 10
0.0
 20
0.0
 30
0.0
 70
   128
 71
   32
 72
   31
 73
   51
  0
VERTEX
  8
Body
 62
   250
 10
0.0
 20
0.0
 30
0.0
 70
   128
 71
   43
 72
   11
 73
   44
  0
VERTEX
  8
Body
 62
   250
 10
0.0
 20
0.0
 30
0.0
 70
   128
 71
   44
 72
   11
 73
   45
  0
VERTEX
  8
Body
 62
   250
 10
0.0
 20
0.0
 30
0.0
 70
   128
 71
   45
 72
   11
 73
   46
  0
VERTEX
  8
Body
 62
   250
 10
0.0
 20
0.0
 30
0.0
 70
   128
 71
   46
 72
   11
 73
   47
  0
VERTEX
  8
Body
 62
   250
 10
0.0
 20
0.0
 30
0.0
 70
   128
 71
   47
 72
   35
 73
   48
  0
VERTEX
  8
Body
 62
   250
 10
0.0
 20
0.0
 30
0.0
 70
   128
 71
   31
 72
   30
 73
   52
  0
VERTEX
  8
Body
 62
   250
 10
0.0
 20
0.0
 30
0.0
 70
   128
 71
   48
 72
   34
 73
   49
  0
VERTEX
  8
Body
 62
   250
 10
0.0
 20
0.0
 30
0.0
 70
   128
 71
   49
 72
   33
 73
   50
  0
VERTEX
  8
Body
 62
   250
 10
0.0
 20
0.0
 30
0.0
 70
   128
 71
   50
 72
   32
 73
   51
  0
VERTEX
  8
Body
 62
   250
 10
0.0
 20
0.0
 30
0.0
 70
   128
 71
   30
 72
   1
 73
   53
  0
VERTEX
  8
Body
 62
   250
 10
0.0
 20
0.0
 30
0.0
 70
   128
 71
   51
 72
   31
 73
   52
  0
VERTEX
  8
Body
 62
   250
 10
0.0
 20
0.0
 30
0.0
 70
   128
 71
   52
 72
   30
 73
   53
  0
VERTEX
  8
Body
 62
   250
 10
0.0
 20
0.0
 30
0.0
 70
   128
 71
   53
 72
   1
 73
   54
  0
VERTEX
  8
Body
 62
   250
 10
0.0
 20
0.0
 30
0.0
 70
   128
 71
   54
 72
   1
 73
   55
  0
VERTEX
  8
Body
 62
   250
 10
0.0
 20
0.0
 30
0.0
 70
   128
 71
   55
 72
   1
 73
   56
  0
VERTEX
  8
Body
 62
   250
 10
0.0
 20
0.0
 30
0.0
 70
   128
 71
   56
 72
   1
 73
   57
  0
VERTEX
  8
Body
 62
   250
 10
0.0
 20
0.0
 30
0.0
 70
   128
 71
   57
 72
   1
 73
   58
  0
VERTEX
  8
Body
 62
   250
 10
0.0
 20
0.0
 30
0.0
 70
   128
 71
   1
 72
   2
 73
   14
  0
VERTEX
  8
Body
 62
   250
 10
0.0
 20
0.0
 30
0.0
 70
   128
 71
   58
 72
   1
 73
   14
  0
VERTEX
  8
Body
 62
   250
 10
0.0
 20
0.0
 30
0.0
 70
   128
 71
   14
 72
   2
 73
   4
  0
VERTEX
  8
Body
 62
   250
 10
0.0
 20
0.0
 30
0.0
 70
   128
 71
   14
 72
   4
 73
   15
  0
VERTEX
  8
Body
 62
   250
 10
0.0
 20
0.0
 30
0.0
 70
   128
 71
   3
 72
   16
 73
   64
  0
VERTEX
  8
Body
 62
   250
 10
0.0
 20
0.0
 30
0.0
 70
   128
 71
   16
 72
   17
 73
   18
  0
VERTEX
  8
Body
 62
   250
 10
0.0
 20
0.0
 30
0.0
 70
   128
 71
   16
 72
   18
 73
   59
  0
VERTEX
  8
Body
 62
   250
 10
0.0
 20
0.0
 30
0.0
 70
   128
 71
   16
 72
   59
 73
   60
  0
VERTEX
  8
Body
 62
   250
 10
0.0
 20
0.0
 30
0.0
 70
   128
 71
   16
 72
   60
 73
   61
  0
VERTEX
  8
Body
 62
   250
 10
0.0
 20
0.0
 30
0.0
 70
   128
 71
   16
 72
   61
 73
   62
  0
VERTEX
  8
Body
 62
   250
 10
0.0
 20
0.0
 30
0.0
 70
   128
 71
   16
 72
   62
 73
   63
  0
VERTEX
  8
Body
 62
   250
 10
0.0
 20
0.0
 30
0.0
 70
   128
 71
   16
 72
   63
 73
   64
  0
VERTEX
  8
Body
 62
   250
 10
0.0
 20
0.0
 30
0.0
 70
   128
 71
   66
 72
   67
 73
   84
  0
VERTEX
  8
Body
 62
   250
 10
0.0
 20
0.0
 30
0.0
 70
   128
 71
   68
 72
   83
 73
   67
  0
VERTEX
  8
Body
 62
   250
 10
0.0
 20
0.0
 30
0.0
 70
   128
 71
   69
 72
   70
 73
   81
  0
VERTEX
  8
Body
 62
   250
 10
0.0
 20
0.0
 30
0.0
 70
   128
 71
   70
 72
   71
 73
   21
  0
VERTEX
  8
Body
 62
   250
 10
0.0
 20
0.0
 30
0.0
 70
   128
 71
   71
 72
   72
 73
   21
  0
VERTEX
  8
Body
 62
   250
 10
0.0
 20
0.0
 30
0.0
 70
   128
 71
   72
 72
   73
 73
   21
  0
VERTEX
  8
Body
 62
   250
 10
0.0
 20
0.0
 30
0.0
 70
   128
 71
   73
 72
   74
 73
   21
  0
VERTEX
  8
Body
 62
   250
 10
0.0
 20
0.0
 30
0.0
 70
   128
 71
   74
 72
   75
 73
   21
  0
VERTEX
  8
Body
 62
   250
 10
0.0
 20
0.0
 30
0.0
 70
   128
 71
   75
 72
   19
 73
   21
  0
VERTEX
  8
Body
 62
   250
 10
0.0
 20
0.0
 30
0.0
 70
   128
 71
   19
 72
   20
 73
   21
  0
VERTEX
  8
Body
 62
   250
 10
0.0
 20
0.0
 30
0.0
 70
   128
 71
   70
 72
   21
 73
   22
  0
VERTEX
  8
Body
 62
   250
 10
0.0
 20
0.0
 30
0.0
 70
   128
 71
   68
 72
   69
 73
   82
  0
VERTEX
  8
Body
 62
   250
 10
0.0
 20
0.0
 30
0.0
 70
   128
 71
   70
 72
   22
 73
   81
  0
VERTEX
  8
Body
 62
   250
 10
0.0
 20
0.0
 30
0.0
 70
   128
 71
   22
 72
   23
 73
   24
  0
VERTEX
  8
Body
 62
   250
 10
0.0
 20
0.0
 30
0.0
 70
   128
 71
   22
 72
   24
 73
   76
  0
VERTEX
  8
Body
 62
   250
 10
0.0
 20
0.0
 30
0.0
 70
   128
 71
   22
 72
   76
 73
   77
  0
VERTEX
  8
Body
 62
   250
 10
0.0
 20
0.0
 30
0.0
 70
   128
 71
   65
 72
   66
 73
   85
  0
VERTEX
  8
Body
 62
   250
 10
0.0
 20
0.0
 30
0.0
 70
   128
 71
   22
 72
   77
 73
   78
  0
VERTEX
  8
Body
 62
   250
 10
0.0
 20
0.0
 30
0.0
 70
   128
 71
   22
 72
   78
 73
   79
  0
VERTEX
  8
Body
 62
   250
 10
0.0
 20
0.0
 30
0.0
 70
   128
 71
   22
 72
   79
 73
   80
  0
VERTEX
  8
Body
 62
   250
 10
0.0
 20
0.0
 30
0.0
 70
   128
 71
   22
 72
   80
 73
   81
  0
VERTEX
  8
Body
 62
   250
 10
0.0
 20
0.0
 30
0.0
 70
   128
 71
   69
 72
   81
 73
   82
  0
VERTEX
  8
Body
 62
   250
 10
0.0
 20
0.0
 30
0.0
 70
   128
 71
   64
 72
   65
 73
   86
  0
VERTEX
  8
Body
 62
   250
 10
0.0
 20
0.0
 30
0.0
 70
   128
 71
   68
 72
   82
 73
   83
  0
VERTEX
  8
Body
 62
   250
 10
0.0
 20
0.0
 30
0.0
 70
   128
 71
   67
 72
   83
 73
   84
  0
VERTEX
  8
Body
 62
   250
 10
0.0
 20
0.0
 30
0.0
 70
   128
 71
   66
 72
   84
 73
   85
  0
VERTEX
  8
Body
 62
   250
 10
0.0
 20
0.0
 30
0.0
 70
   128
 71
   3
 72
   64
 73
   87
  0
VERTEX
  8
Body
 62
   250
 10
0.0
 20
0.0
 30
0.0
 70
   128
 71
   65
 72
   85
 73
   86
  0
VERTEX
  8
Body
 62
   250
 10
0.0
 20
0.0
 30
0.0
 70
   128
 71
   64
 72
   86
 73
   87
  0
VERTEX
  8
Body
 62
   250
 10
0.0
 20
0.0
 30
0.0
 70
   128
 71
   3
 72
   87
 73
   88
  0
VERTEX
  8
Body
 62
   250
 10
0.0
 20
0.0
 30
0.0
 70
   128
 71
   3
 72
   88
 73
   89
  0
VERTEX
  8
Body
 62
   250
 10
0.0
 20
0.0
 30
0.0
 70
   128
 71
   3
 72
   89
 73
   90
  0
VERTEX
  8
Body
 62
   250
 10
0.0
 20
0.0
 30
0.0
 70
   128
 71
   3
 72
   90
 73
   91
  0
VERTEX
  8
Body
 62
   250
 10
0.0
 20
0.0
 30
0.0
 70
   128
 71
   3
 72
   91
 73
   92
  0
VERTEX
  8
Body
 62
   250
 10
0.0
 20
0.0
 30
0.0
 70
   128
 71
   4
 72
   3
 73
   15
  0
VERTEX
  8
Body
 62
   250
 10
0.0
 20
0.0
 30
0.0
 70
   128
 71
   3
 72
   92
 73
   15
  0
VERTEX
  8
Body
 62
   250
 10
0.0
 20
0.0
 30
0.0
 70
   128
 71
   5
 72
   16
 73
   1
  0
VERTEX
  8
Body
 62
   250
 10
0.0
 20
0.0
 30
0.0
 70
   128
 71
   16
 72
   3
 73
   1
  0
VERTEX
  8
Body
 62
   250
 10
0.0
 20
0.0
 30
0.0
 70
   128
 71
   24
 72
   13
 73
   42
  0
VERTEX
  8
Body
 62
   250
 10
0.0
 20
0.0
 30
0.0
 70
   128
 71
   42
 72
   77
 73
   76
  0
VERTEX
  8
Body
 62
   250
 10
0.0
 20
0.0
 30
0.0
 70
   128
 71
   44
 72
   79
 73
   78
  0
VERTEX
  8
Body
 62
   250
 10
0.0
 20
0.0
 30
0.0
 70
   128
 71
   46
 72
   81
 73
   80
  0
VERTEX
  8
Body
 62
   250
 10
0.0
 20
0.0
 30
0.0
 70
   128
 71
   48
 72
   83
 73
   82
  0
VERTEX
  8
Body
 62
   250
 10
0.0
 20
0.0
 30
0.0
 70
   128
 71
   50
 72
   85
 73
   84
  0
VERTEX
  8
Body
 62
   250
 10
0.0
 20
0.0
 30
0.0
 70
   128
 71
   52
 72
   87
 73
   86
  0
VERTEX
  8
Body
 62
   250
 10
0.0
 20
0.0
 30
0.0
 70
   128
 71
   54
 72
   89
 73
   88
  0
VERTEX
  8
Body
 62
   250
 10
0.0
 20
0.0
 30
0.0
 70
   128
 71
   56
 72
   91
 73
   90
  0
VERTEX
  8
Body
 62
   250
 10
0.0
 20
0.0
 30
0.0
 70
   128
 71
   58
 72
   15
 73
   92
  0
VERTEX
  8
Body
 62
   250
 10
0.0
 20
0.0
 30
0.0
 70
   128
 71
   50
 72
   51
 73
   85
  0
VERTEX
  8
Body
 62
   250
 10
0.0
 20
0.0
 30
0.0
 70
   128
 71
   51
 72
   52
 73
   86
  0
VERTEX
  8
Body
 62
   250
 10
0.0
 20
0.0
 30
0.0
 70
   128
 71
   52
 72
   53
 73
   87
  0
VERTEX
  8
Body
 62
   250
 10
0.0
 20
0.0
 30
0.0
 70
   128
 71
   53
 72
   54
 73
   88
  0
VERTEX
  8
Body
 62
   250
 10
0.0
 20
0.0
 30
0.0
 70
   128
 71
   54
 72
   55
 73
   89
  0
VERTEX
  8
Body
 62
   250
 10
0.0
 20
0.0
 30
0.0
 70
   128
 71
   55
 72
   56
 73
   90
  0
VERTEX
  8
Body
 62
   250
 10
0.0
 20
0.0
 30
0.0
 70
   128
 71
   56
 72
   57
 73
   91
  0
VERTEX
  8
Body
 62
   250
 10
0.0
 20
0.0
 30
0.0
 70
   128
 71
   57
 72
   58
 73
   92
  0
VERTEX
  8
Body
 62
   250
 10
0.0
 20
0.0
 30
0.0
 70
   128
 71
   58
 72
   14
 73
   15
  0
VERTEX
  8
Body
 62
   250
 10
0.0
 20
0.0
 30
0.0
 70
   128
 71
   57
 72
   92
 73
   91
  0
VERTEX
  8
Body
 62
   250
 10
0.0
 20
0.0
 30
0.0
 70
   128
 71
   49
 72
   50
 73
   84
  0
VERTEX
  8
Body
 62
   250
 10
0.0
 20
0.0
 30
0.0
 70
   128
 71
   55
 72
   90
 73
   89
  0
VERTEX
  8
Body
 62
   250
 10
0.0
 20
0.0
 30
0.0
 70
   128
 71
   48
 72
   49
 73
   83
  0
VERTEX
  8
Body
 62
   250
 10
0.0
 20
0.0
 30
0.0
 70
   128
 71
   53
 72
   88
 73
   87
  0
VERTEX
  8
Body
 62
   250
 10
0.0
 20
0.0
 30
0.0
 70
   128
 71
   47
 72
   48
 73
   82
  0
VERTEX
  8
Body
 62
   250
 10
0.0
 20
0.0
 30
0.0
 70
   128
 71
   51
 72
   86
 73
   85
  0
VERTEX
  8
Body
 62
   250
 10
0.0
 20
0.0
 30
0.0
 70
   128
 71
   46
 72
   47
 73
   81
  0
VERTEX
  8
Body
 62
   250
 10
0.0
 20
0.0
 30
0.0
 70
   128
 71
   49
 72
   84
 73
   83
  0
VERTEX
  8
Body
 62
   250
 10
0.0
 20
0.0
 30
0.0
 70
   128
 71
   45
 72
   46
 73
   80
  0
VERTEX
  8
Body
 62
   250
 10
0.0
 20
0.0
 30
0.0
 70
   128
 71
   47
 72
   82
 73
   81
  0
VERTEX
  8
Body
 62
   250
 10
0.0
 20
0.0
 30
0.0
 70
   128
 71
   44
 72
   45
 73
   79
  0
VERTEX
  8
Body
 62
   250
 10
0.0
 20
0.0
 30
0.0
 70
   128
 71
   45
 72
   80
 73
   79
  0
VERTEX
  8
Body
 62
   250
 10
0.0
 20
0.0
 30
0.0
 70
   128
 71
   43
 72
   44
 73
   78
  0
VERTEX
  8
Body
 62
   250
 10
0.0
 20
0.0
 30
0.0
 70
   128
 71
   43
 72
   78
 73
   77
  0
VERTEX
  8
Body
 62
   250
 10
0.0
 20
0.0
 30
0.0
 70
   128
 71
   42
 72
   43
 73
   77
  0
VERTEX
  8
Body
 62
   250
 10
0.0
 20
0.0
 30
0.0
 70
   128
 71
   24
 72
   42
 73
   76
  0
VERTEX
  8
Body
 62
   250
 10
0.0
 20
0.0
 30
0.0
 70
   128
 71
   24
 72
   23
 73
   13
  0
VERTEX
  8
Body
 62
   250
 10
0.0
 20
0.0
 30
0.0
 70
   128
 71
   23
 72
   12
 73
   13
  0
VERTEX
  8
Body
 62
   250
 10
0.0
 20
0.0
 30
0.0
 70
   128
 71
   11
 72
   12
 73
   23
  0
VERTEX
  8
Body
 62
   250
 10
0.0
 20
0.0
 30
0.0
 70
   128
 71
   11
 72
   23
 73
   22
  0
VERTEX
  8
Body
 62
   250
 10
0.0
 20
0.0
 30
0.0
 70
   128
 71
   21
 72
   10
 73
   11
  0
VERTEX
  8
Body
 62
   250
 10
0.0
 20
0.0
 30
0.0
 70
   128
 71
   22
 72
   21
 73
   11
  0
VERTEX
  8
Body
 62
   250
 10
0.0
 20
0.0
 30
0.0
 70
   128
 71
   9
 72
   10
 73
   20
  0
VERTEX
  8
Body
 62
   250
 10
0.0
 20
0.0
 30
0.0
 70
   128
 71
   20
 72
   10
 73
   21
  0
VERTEX
  8
Body
 62
   250
 10
0.0
 20
0.0
 30
0.0
 70
   128
 71
   8
 72
   9
 73
   20
  0
VERTEX
  8
Body
 62
   250
 10
0.0
 20
0.0
 30
0.0
 70
   128
 71
   8
 72
   20
 73
   19
  0
VERTEX
  8
Body
 62
   250
 10
0.0
 20
0.0
 30
0.0
 70
   128
 71
   18
 72
   7
 73
   25
  0
VERTEX
  8
Body
 62
   250
 10
0.0
 20
0.0
 30
0.0
 70
   128
 71
   25
 72
   60
 73
   59
  0
VERTEX
  8
Body
 62
   250
 10
0.0
 20
0.0
 30
0.0
 70
   128
 71
   27
 72
   62
 73
   61
  0
VERTEX
  8
Body
 62
   250
 10
0.0
 20
0.0
 30
0.0
 70
   128
 71
   29
 72
   64
 73
   63
  0
VERTEX
  8
Body
 62
   250
 10
0.0
 20
0.0
 30
0.0
 70
   128
 71
   31
 72
   66
 73
   65
  0
VERTEX
  8
Body
 62
   250
 10
0.0
 20
0.0
 30
0.0
 70
   128
 71
   33
 72
   68
 73
   67
  0
VERTEX
  8
Body
 62
   250
 10
0.0
 20
0.0
 30
0.0
 70
   128
 71
   35
 72
   70
 73
   69
  0
VERTEX
  8
Body
 62
   250
 10
0.0
 20
0.0
 30
0.0
 70
   128
 71
   37
 72
   72
 73
   71
  0
VERTEX
  8
Body
 62
   250
 10
0.0
 20
0.0
 30
0.0
 70
   128
 71
   39
 72
   74
 73
   73
  0
VERTEX
  8
Body
 62
   250
 10
0.0
 20
0.0
 30
0.0
 70
   128
 71
   41
 72
   19
 73
   75
  0
VERTEX
  8
Body
 62
   250
 10
0.0
 20
0.0
 30
0.0
 70
   128
 71
   33
 72
   34
 73
   68
  0
VERTEX
  8
Body
 62
   250
 10
0.0
 20
0.0
 30
0.0
 70
   128
 71
   34
 72
   35
 73
   69
  0
VERTEX
  8
Body
 62
   250
 10
0.0
 20
0.0
 30
0.0
 70
   128
 71
   35
 72
   36
 73
   70
  0
VERTEX
  8
Body
 62
   250
 10
0.0
 20
0.0
 30
0.0
 70
   128
 71
   36
 72
   37
 73
   71
  0
VERTEX
  8
Body
 62
   250
 10
0.0
 20
0.0
 30
0.0
 70
   128
 71
   37
 72
   38
 73
   72
  0
VERTEX
  8
Body
 62
   250
 10
0.0
 20
0.0
 30
0.0
 70
   128
 71
   38
 72
   39
 73
   73
  0
VERTEX
  8
Body
 62
   250
 10
0.0
 20
0.0
 30
0.0
 70
   128
 71
   39
 72
   40
 73
   74
  0
VERTEX
  8
Body
 62
   250
 10
0.0
 20
0.0
 30
0.0
 70
   128
 71
   40
 72
   41
 73
   75
  0
VERTEX
  8
Body
 62
   250
 10
0.0
 20
0.0
 30
0.0
 70
   128
 71
   41
 72
   8
 73
   19
  0
VERTEX
  8
Body
 62
   250
 10
0.0
 20
0.0
 30
0.0
 70
   128
 71
   40
 72
   75
 73
   74
  0
VERTEX
  8
Body
 62
   250
 10
0.0
 20
0.0
 30
0.0
 70
   128
 71
   32
 72
   33
 73
   67
  0
VERTEX
  8
Body
 62
   250
 10
0.0
 20
0.0
 30
0.0
 70
   128
 71
   38
 72
   73
 73
   72
  0
VERTEX
  8
Body
 62
   250
 10
0.0
 20
0.0
 30
0.0
 70
   128
 71
   31
 72
   32
 73
   66
  0
VERTEX
  8
Body
 62
   250
 10
0.0
 20
0.0
 30
0.0
 70
   128
 71
   36
 72
   71
 73
   70
  0
VERTEX
  8
Body
 62
   250
 10
0.0
 20
0.0
 30
0.0
 70
   128
 71
   30
 72
   31
 73
   65
  0
VERTEX
  8
Body
 62
   250
 10
0.0
 20
0.0
 30
0.0
 70
   128
 71
   34
 72
   69
 73
   68
  0
VERTEX
  8
Body
 62
   250
 10
0.0
 20
0.0
 30
0.0
 70
   128
 71
   29
 72
   30
 73
   64
  0
VERTEX
  8
Body
 62
   250
 10
0.0
 20
0.0
 30
0.0
 70
   128
 71
   32
 72
   67
 73
   66
  0
VERTEX
  8
Body
 62
   250
 10
0.0
 20
0.0
 30
0.0
 70
   128
 71
   28
 72
   29
 73
   63
  0
VERTEX
  8
Body
 62
   250
 10
0.0
 20
0.0
 30
0.0
 70
   128
 71
   30
 72
   65
 73
   64
  0
VERTEX
  8
Body
 62
   250
 10
0.0
 20
0.0
 30
0.0
 70
   128
 71
   27
 72
   28
 73
   62
  0
VERTEX
  8
Body
 62
   250
 10
0.0
 20
0.0
 30
0.0
 70
   128
 71
   28
 72
   63
 73
   62
  0
VERTEX
  8
Body
 62
   250
 10
0.0
 20
0.0
 30
0.0
 70
   128
 71
   26
 72
   27
 73
   61
  0
VERTEX
  8
Body
 62
   250
 10
0.0
 20
0.0
 30
0.0
 70
   128
 71
   26
 72
   61
 73
   60
  0
VERTEX
  8
Body
 62
   250
 10
0.0
 20
0.0
 30
0.0
 70
   128
 71
   25
 72
   26
 73
   60
  0
VERTEX
  8
Body
 62
   250
 10
0.0
 20
0.0
 30
0.0
 70
   128
 71
   18
 72
   25
 73
   59
  0
VERTEX
  8
Body
 62
   250
 10
0.0
 20
0.0
 30
0.0
 70
   128
 71
   18
 72
   17
 73
   7
  0
VERTEX
  8
Body
 62
   250
 10
0.0
 20
0.0
 30
0.0
 70
   128
 71
   17
 72
   6
 73
   7
  0
VERTEX
  8
Body
 62
   250
 10
0.0
 20
0.0
 30
0.0
 70
   128
 71
   5
 72
   6
 73
   16
  0
VERTEX
  8
Body
 62
   250
 10
0.0
 20
0.0
 30
0.0
 70
   128
 71
   16
 72
   6
 73
   17
  0
SEQEND
  0
POLYLINE
  8
Triangle_Set
 62
   41
 66
   1
 10
0.0
 20
0.0
 30
0.0
 70
   64
 71
   8
 72
   12
  0
VERTEX
  8
Triangle_Set
 10
-1.100000
 20
-0.827000
 30
0.100000
 70
   192
  0
VERTEX
  8
Triangle_Set
 10
-1.100000
 20
-0.827000
 30
0.120000
 70
   192
  0
VERTEX
  8
Triangle_Set
 10
-1.100000
 20
0.827000
 30
0.100000
 70
   192
  0
VERTEX
  8
Triangle_Set
 10
-1.100000
 20
0.827000
 30
0.120000
 70
   192
  0
VERTEX
  8
Triangle_Set
 10
1.100000
 20
-0.827000
 30
0.100000
 70
   192
  0
VERTEX
  8
Triangle_Set
 10
1.100000
 20
-0.827000
 30
0.120000
 70
   192
  0
VERTEX
  8
Triangle_Set
 10
1.100000
 20
0.827000
 30
0.100000
 70
   192
  0
VERTEX
  8
Triangle_Set
 10
1.100000
 20
0.827000
 30
0.120000
 70
   192
  0
VERTEX
  8
Triangle_Set
 62
   41
 10
0.0
 20
0.0
 30
0.0
 70
   128
 71
   3
 72
   2
 73
   1
  0
VERTEX
  8
Triangle_Set
 62
   41
 10
0.0
 20
0.0
 30
0.0
 70
   128
 71
   2
 72
   3
 73
   4
  0
VERTEX
  8
Triangle_Set
 62
   41
 10
0.0
 20
0.0
 30
0.0
 70
   128
 71
   6
 72
   7
 73
   5
  0
VERTEX
  8
Triangle_Set
 62
   41
 10
0.0
 20
0.0
 30
0.0
 70
   128
 71
   7
 72
   6
 73
   8
  0
VERTEX
  8
Triangle_Set
 62
   41
 10
0.0
 20
0.0
 30
0.0
 70
   128
 71
   6
 72
   5
 73
   2
  0
VERTEX
  8
Triangle_Set
 62
   41
 10
0.0
 20
0.0
 30
0.0
 70
   128
 71
   5
 72
   1
 73
   2
  0
VERTEX
  8
Triangle_Set
 62
   41
 10
0.0
 20
0.0
 30
0.0
 70
   128
 71
   7
 72
   8
 73
   4
  0
VERTEX
  8
Triangle_Set
 62
   41
 10
0.0
 20
0.0
 30
0.0
 70
   128
 71
   3
 72
   7
 73
   4
  0
VERTEX
  8
Triangle_Set
 62
   41
 10
0.0
 20
0.0
 30
0.0
 70
   128
 71
   3
 72
   1
 73
   5
  0
VERTEX
  8
Triangle_Set
 62
   41
 10
0.0
 20
0.0
 30
0.0
 70
   128
 71
   3
 72
   5
 73
   7
  0
VERTEX
  8
Triangle_Set
 62
   41
 10
0.0
 20
0.0
 30
0.0
 70
   128
 71
   2
 72
   4
 73
   6
  0
VERTEX
  8
Triangle_Set
 62
   41
 10
0.0
 20
0.0
 30
0.0
 70
   128
 71
   6
 72
   4
 73
   8
  0
SEQEND
  0
POLYLINE
  8
Triangle_Set_ncl1_1
 62
   41
 66
   1
 10
0.0
 20
0.0
 30
0.0
 70
   64
 71
   8
 72
   12
  0
VERTEX
  8
Triangle_Set_ncl1_1
 10
-1.100000
 20
-0.827000
 30
0.600000
 70
   192
  0
VERTEX
  8
Triangle_Set_ncl1_1
 10
-1.100000
 20
-0.827000
 30
0.620000
 70
   192
  0
VERTEX
  8
Triangle_Set_ncl1_1
 10
-1.100000
 20
0.827000
 30
0.600000
 70
   192
  0
VERTEX
  8
Triangle_Set_ncl1_1
 10
-1.100000
 20
0.827000
 30
0.620000
 70
   192
  0
VERTEX
  8
Triangle_Set_ncl1_1
 10
1.100000
 20
-0.827000
 30
0.600000
 70
   192
  0
VERTEX
  8
Triangle_Set_ncl1_1
 10
1.100000
 20
-0.827000
 30
0.620000
 70
   192
  0
VERTEX
  8
Triangle_Set_ncl1_1
 10
1.100000
 20
0.827000
 30
0.600000
 70
   192
  0
VERTEX
  8
Triangle_Set_ncl1_1
 10
1.100000
 20
0.827000
 30
0.620000
 70
   192
  0
VERTEX
  8
Triangle_Set_ncl1_1
 62
   41
 10
0.0
 20
0.0
 30
0.0
 70
   128
 71
   3
 72
   2
 73
   1
  0
VERTEX
  8
Triangle_Set_ncl1_1
 62
   41
 10
0.0
 20
0.0
 30
0.0
 70
   128
 71
   2
 72
   3
 73
   4
  0
VERTEX
  8
Triangle_Set_ncl1_1
 62
   41
 10
0.0
 20
0.0
 30
0.0
 70
   128
 71
   6
 72
   7
 73
   5
  0
VERTEX
  8
Triangle_Set_ncl1_1
 62
   41
 10
0.0
 20
0.0
 30
0.0
 70
   128
 71
   7
 72
   6
 73
   8
  0
VERTEX
  8
Triangle_Set_ncl1_1
 62
   41
 10
0.0
 20
0.0
 30
0.0
 70
   128
 71
   6
 72
   5
 73
   2
  0
VERTEX
  8
Triangle_Set_ncl1_1
 62
   41
 10
0.0
 20
0.0
 30
0.0
 70
   128
 71
   5
 72
   1
 73
   2
  0
VERTEX
  8
Triangle_Set_ncl1_1
 62
   41
 10
0.0
 20
0.0
 30
0.0
 70
   128
 71
   7
 72
   8
 73
   4
  0
VERTEX
  8
Triangle_Set_ncl1_1
 62
   41
 10
0.0
 20
0.0
 30
0.0
 70
   128
 71
   3
 72
   7
 73
   4
  0
VERTEX
  8
Triangle_Set_ncl1_1
 62
   41
 10
0.0
 20
0.0
 30
0.0
 70
   128
 71
   3
 72
   1
 73
   5
  0
VERTEX
  8
Triangle_Set_ncl1_1
 62
   41
 10
0.0
 20
0.0
 30
0.0
 70
   128
 71
   3
 72
   5
 73
   7
  0
VERTEX
  8
Triangle_Set_ncl1_1
 62
   41
 10
0.0
 20
0.0
 30
0.0
 70
   128
 71
   2
 72
   4
 73
   6
  0
VERTEX
  8
Triangle_Set_ncl1_1
 62
   41
 10
0.0
 20
0.0
 30
0.0
 70
   128
 71
   6
 72
   4
 73
   8
  0
SEQEND
  0
POLYLINE
  8
Triangle_Set_ncl1_2
 62
   253
 66
   1
 10
0.0
 20
0.0
 30
0.0
 70
   64
 71
   46
 72
   88
  0
VERTEX
  8
Triangle_Set_ncl1_2
 10
-1.590000
 20
0.800000
 30
0.000000
 70
   192
  0
VERTEX
  8
Triangle_Set_ncl1_2
 10
-1.590000
 20
0.800000
 30
0.750000
 70
   192
  0
VERTEX
  8
Triangle_Set_ncl1_2
 10
-1.000000
 20
0.800000
 30
0.750000
 70
   192
  0
VERTEX
  8
Triangle_Set_ncl1_2
 10
-1.000000
 20
0.800000
 30
0.000000
 70
   192
  0
VERTEX
  8
Triangle_Set_ncl1_2
 10
-1.590000
 20
0.199750
 30
0.000000
 70
   192
  0
VERTEX
  8
Triangle_Set_ncl1_2
 10
-1.590000
 20
0.199750
 30
0.750000
 70
   192
  0
VERTEX
  8
Triangle_Set_ncl1_2
 10
-1.000000
 20
-0.800000
 30
0.750000
 70
   192
  0
VERTEX
  8
Triangle_Set_ncl1_2
 10
-1.000000
 20
-0.800000
 30
0.000000
 70
   192
  0
VERTEX
  8
Triangle_Set_ncl1_2
 10
-1.590000
 20
-0.800000
 30
0.000000
 70
   192
  0
VERTEX
  8
Triangle_Set_ncl1_2
 10
-1.590000
 20
-0.199750
 30
0.000000
 70
   192
  0
VERTEX
  8
Triangle_Set_ncl1_2
 10
-1.590000
 20
-0.800000
 30
0.750000
 70
   192
  0
VERTEX
  8
Triangle_Set_ncl1_2
 10
-1.590000
 20
-0.199750
 30
0.750000
 70
   192
  0
VERTEX
  8
Triangle_Set_ncl1_2
 10
-1.556550
 20
-0.195223
 30
0.000000
 70
   192
  0
VERTEX
  8
Triangle_Set_ncl1_2
 10
-1.524338
 20
-0.185136
 30
0.000000
 70
   192
  0
VERTEX
  8
Triangle_Set_ncl1_2
 10
-1.494281
 20
-0.169775
 30
0.000000
 70
   192
  0
VERTEX
  8
Triangle_Set_ncl1_2
 10
-1.467235
 20
-0.149578
 30
0.000000
 70
   192
  0
VERTEX
  8
Triangle_Set_ncl1_2
 10
-1.443971
 20
-0.125120
 30
0.000000
 70
   192
  0
VERTEX
  8
Triangle_Set_ncl1_2
 10
-1.425152
 20
-0.097098
 30
0.000000
 70
   192
  0
VERTEX
  8
Triangle_Set_ncl1_2
 10
-1.411313
 20
-0.066311
 30
0.000000
 70
   192
  0
VERTEX
  8
Triangle_Set_ncl1_2
 10
-1.402848
 20
-0.033634
 30
0.000000
 70
   192
  0
VERTEX
  8
Triangle_Set_ncl1_2
 10
-1.400000
 20
-0.000000
 30
0.000000
 70
   192
  0
VERTEX
  8
Triangle_Set_ncl1_2
 10
-1.402848
 20
0.033634
 30
0.000000
 70
   192
  0
VERTEX
  8
Triangle_Set_ncl1_2
 10
-1.411313
 20
0.066311
 30
0.000000
 70
   192
  0
VERTEX
  8
Triangle_Set_ncl1_2
 10
-1.425152
 20
0.097098
 30
0.000000
 70
   192
  0
VERTEX
  8
Triangle_Set_ncl1_2
 10
-1.443971
 20
0.125120
 30
0.000000
 70
   192
  0
VERTEX
  8
Triangle_Set_ncl1_2
 10
-1.467235
 20
0.149578
 30
0.000000
 70
   192
  0
VERTEX
  8
Triangle_Set_ncl1_2
 10
-1.494281
 20
0.169775
 30
0.000000
 70
   192
  0
VERTEX
  8
Triangle_Set_ncl1_2
 10
-1.524338
 20
0.185136
 30
0.000000
 70
   192
  0
VERTEX
  8
Triangle_Set_ncl1_2
 10
-1.556550
 20
0.195223
 30
0.000000
 70
   192
  0
VERTEX
  8
Triangle_Set_ncl1_2
 10
-1.556550
 20
0.195223
 30
0.750000
 70
   192
  0
VERTEX
  8
Triangle_Set_ncl1_2
 10
-1.524338
 20
0.185136
 30
0.750000
 70
   192
  0
VERTEX
  8
Triangle_Set_ncl1_2
 10
-1.494281
 20
0.169775
 30
0.750000
 70
   192
  0
VERTEX
  8
Triangle_Set_ncl1_2
 10
-1.467235
 20
0.149578
 30
0.750000
 70
   192
  0
VERTEX
  8
Triangle_Set_ncl1_2
 10
-1.443971
 20
0.125120
 30
0.750000
 70
   192
  0
VERTEX
  8
Triangle_Set_ncl1_2
 10
-1.425152
 20
0.097098
 30
0.750000
 70
   192
  0
VERTEX
  8
Triangle_Set_ncl1_2
 10
-1.411313
 20
0.066311
 30
0.750000
 70
   192
  0
VERTEX
  8
Triangle_Set_ncl1_2
 10
-1.402848
 20
0.033634
 30
0.750000
 70
   192
  0
VERTEX
  8
Triangle_Set_ncl1_2
 10
-1.400000
 20
0.000000
 30
0.750000
 70
   192
  0
VERTEX
  8
Triangle_Set_ncl1_2
 10
-1.402848
 20
-0.033634
 30
0.750000
 70
   192
  0
VERTEX
  8
Triangle_Set_ncl1_2
 10
-1.411313
 20
-0.066311
 30
0.750000
 70
   192
  0
VERTEX
  8
Triangle_Set_ncl1_2
 10
-1.425152
 20
-0.097098
 30
0.750000
 70
   192
  0
VERTEX
  8
Triangle_Set_ncl1_2
 10
-1.443971
 20
-0.125120
 30
0.750000
 70
   192
  0
VERTEX
  8
Triangle_Set_ncl1_2
 10
-1.467235
 20
-0.149578
 30
0.750000
 70
   192
  0
VERTEX
  8
Triangle_Set_ncl1_2
 10
-1.494281
 20
-0.169775
 30
0.750000
 70
   192
  0
VERTEX
  8
Triangle_Set_ncl1_2
 10
-1.524338
 20
-0.185136
 30
0.750000
 70
   192
  0
VERTEX
  8
Triangle_Set_ncl1_2
 10
-1.556550
 20
-0.195223
 30
0.750000
 70
   192
  0
VERTEX
  8
Triangle_Set_ncl1_2
 62
   253
 10
0.0
 20
0.0
 30
0.0
 70
   128
 71
   1
 72
   4
 73
   3
  0
VERTEX
  8
Triangle_Set_ncl1_2
 62
   253
 10
0.0
 20
0.0
 30
0.0
 70
   128
 71
   2
 72
   1
 73
   3
  0
VERTEX
  8
Triangle_Set_ncl1_2
 62
   253
 10
0.0
 20
0.0
 30
0.0
 70
   128
 71
   1
 72
   6
 73
   5
  0
VERTEX
  8
Triangle_Set_ncl1_2
 62
   253
 10
0.0
 20
0.0
 30
0.0
 70
   128
 71
   6
 72
   1
 73
   2
  0
VERTEX
  8
Triangle_Set_ncl1_2
 62
   253
 10
0.0
 20
0.0
 30
0.0
 70
   128
 71
   3
 72
   4
 73
   7
  0
VERTEX
  8
Triangle_Set_ncl1_2
 62
   253
 10
0.0
 20
0.0
 30
0.0
 70
   128
 71
   7
 72
   4
 73
   8
  0
VERTEX
  8
Triangle_Set_ncl1_2
 62
   253
 10
0.0
 20
0.0
 30
0.0
 70
   128
 71
   9
 72
   8
 73
   15
  0
VERTEX
  8
Triangle_Set_ncl1_2
 62
   253
 10
0.0
 20
0.0
 30
0.0
 70
   128
 71
   10
 72
   9
 73
   13
  0
VERTEX
  8
Triangle_Set_ncl1_2
 62
   253
 10
0.0
 20
0.0
 30
0.0
 70
   128
 71
   13
 72
   9
 73
   14
  0
VERTEX
  8
Triangle_Set_ncl1_2
 62
   253
 10
0.0
 20
0.0
 30
0.0
 70
   128
 71
   14
 72
   9
 73
   15
  0
VERTEX
  8
Triangle_Set_ncl1_2
 62
   253
 10
0.0
 20
0.0
 30
0.0
 70
   128
 71
   15
 72
   8
 73
   16
  0
VERTEX
  8
Triangle_Set_ncl1_2
 62
   253
 10
0.0
 20
0.0
 30
0.0
 70
   128
 71
   16
 72
   8
 73
   17
  0
VERTEX
  8
Triangle_Set_ncl1_2
 62
   253
 10
0.0
 20
0.0
 30
0.0
 70
   128
 71
   8
 72
   4
 73
   21
  0
VERTEX
  8
Triangle_Set_ncl1_2
 62
   253
 10
0.0
 20
0.0
 30
0.0
 70
   128
 71
   17
 72
   8
 73
   18
  0
VERTEX
  8
Triangle_Set_ncl1_2
 62
   253
 10
0.0
 20
0.0
 30
0.0
 70
   128
 71
   18
 72
   8
 73
   19
  0
VERTEX
  8
Triangle_Set_ncl1_2
 62
   253
 10
0.0
 20
0.0
 30
0.0
 70
   128
 71
   19
 72
   8
 73
   20
  0
VERTEX
  8
Triangle_Set_ncl1_2
 62
   253
 10
0.0
 20
0.0
 30
0.0
 70
   128
 71
   20
 72
   8
 73
   21
  0
VERTEX
  8
Triangle_Set_ncl1_2
 62
   253
 10
0.0
 20
0.0
 30
0.0
 70
   128
 71
   21
 72
   4
 73
   22
  0
VERTEX
  8
Triangle_Set_ncl1_2
 62
   253
 10
0.0
 20
0.0
 30
0.0
 70
   128
 71
   22
 72
   4
 73
   23
  0
VERTEX
  8
Triangle_Set_ncl1_2
 62
   253
 10
0.0
 20
0.0
 30
0.0
 70
   128
 71
   23
 72
   4
 73
   24
  0
VERTEX
  8
Triangle_Set_ncl1_2
 62
   253
 10
0.0
 20
0.0
 30
0.0
 70
   128
 71
   4
 72
   1
 73
   27
  0
VERTEX
  8
Triangle_Set_ncl1_2
 62
   253
 10
0.0
 20
0.0
 30
0.0
 70
   128
 71
   24
 72
   4
 73
   25
  0
VERTEX
  8
Triangle_Set_ncl1_2
 62
   253
 10
0.0
 20
0.0
 30
0.0
 70
   128
 71
   25
 72
   4
 73
   26
  0
VERTEX
  8
Triangle_Set_ncl1_2
 62
   253
 10
0.0
 20
0.0
 30
0.0
 70
   128
 71
   26
 72
   4
 73
   27
  0
VERTEX
  8
Triangle_Set_ncl1_2
 62
   253
 10
0.0
 20
0.0
 30
0.0
 70
   128
 71
   27
 72
   1
 73
   28
  0
VERTEX
  8
Triangle_Set_ncl1_2
 62
   253
 10
0.0
 20
0.0
 30
0.0
 70
   128
 71
   1
 72
   5
 73
   29
  0
VERTEX
  8
Triangle_Set_ncl1_2
 62
   253
 10
0.0
 20
0.0
 30
0.0
 70
   128
 71
   28
 72
   1
 73
   29
  0
VERTEX
  8
Triangle_Set_ncl1_2
 62
   253
 10
0.0
 20
0.0
 30
0.0
 70
   128
 71
   7
 72
   11
 73
   44
  0
VERTEX
  8
Triangle_Set_ncl1_2
 62
   253
 10
0.0
 20
0.0
 30
0.0
 70
   128
 71
   11
 72
   12
 73
   46
  0
VERTEX
  8
Triangle_Set_ncl1_2
 62
   253
 10
0.0
 20
0.0
 30
0.0
 70
   128
 71
   11
 72
   46
 73
   45
  0
VERTEX
  8
Triangle_Set_ncl1_2
 62
   253
 10
0.0
 20
0.0
 30
0.0
 70
   128
 71
   11
 72
   45
 73
   44
  0
VERTEX
  8
Triangle_Set_ncl1_2
 62
   253
 10
0.0
 20
0.0
 30
0.0
 70
   128
 71
   7
 72
   44
 73
   43
  0
VERTEX
  8
Triangle_Set_ncl1_2
 62
   253
 10
0.0
 20
0.0
 30
0.0
 70
   128
 71
   7
 72
   43
 73
   42
  0
VERTEX
  8
Triangle_Set_ncl1_2
 62
   253
 10
0.0
 20
0.0
 30
0.0
 70
   128
 71
   3
 72
   7
 73
   38
  0
VERTEX
  8
Triangle_Set_ncl1_2
 62
   253
 10
0.0
 20
0.0
 30
0.0
 70
   128
 71
   7
 72
   42
 73
   41
  0
VERTEX
  8
Triangle_Set_ncl1_2
 62
   253
 10
0.0
 20
0.0
 30
0.0
 70
   128
 71
   7
 72
   41
 73
   40
  0
VERTEX
  8
Triangle_Set_ncl1_2
 62
   253
 10
0.0
 20
0.0
 30
0.0
 70
   128
 71
   7
 72
   40
 73
   39
  0
VERTEX
  8
Triangle_Set_ncl1_2
 62
   253
 10
0.0
 20
0.0
 30
0.0
 70
   128
 71
   7
 72
   39
 73
   38
  0
VERTEX
  8
Triangle_Set_ncl1_2
 62
   253
 10
0.0
 20
0.0
 30
0.0
 70
   128
 71
   3
 72
   38
 73
   37
  0
VERTEX
  8
Triangle_Set_ncl1_2
 62
   253
 10
0.0
 20
0.0
 30
0.0
 70
   128
 71
   3
 72
   37
 73
   36
  0
VERTEX
  8
Triangle_Set_ncl1_2
 62
   253
 10
0.0
 20
0.0
 30
0.0
 70
   128
 71
   3
 72
   36
 73
   35
  0
VERTEX
  8
Triangle_Set_ncl1_2
 62
   253
 10
0.0
 20
0.0
 30
0.0
 70
   128
 71
   2
 72
   3
 73
   32
  0
VERTEX
  8
Triangle_Set_ncl1_2
 62
   253
 10
0.0
 20
0.0
 30
0.0
 70
   128
 71
   3
 72
   35
 73
   34
  0
VERTEX
  8
Triangle_Set_ncl1_2
 62
   253
 10
0.0
 20
0.0
 30
0.0
 70
   128
 71
   3
 72
   34
 73
   33
  0
VERTEX
  8
Triangle_Set_ncl1_2
 62
   253
 10
0.0
 20
0.0
 30
0.0
 70
   128
 71
   3
 72
   33
 73
   32
  0
VERTEX
  8
Triangle_Set_ncl1_2
 62
   253
 10
0.0
 20
0.0
 30
0.0
 70
   128
 71
   2
 72
   32
 73
   31
  0
VERTEX
  8
Triangle_Set_ncl1_2
 62
   253
 10
0.0
 20
0.0
 30
0.0
 70
   128
 71
   6
 72
   2
 73
   30
  0
VERTEX
  8
Triangle_Set_ncl1_2
 62
   253
 10
0.0
 20
0.0
 30
0.0
 70
   128
 71
   2
 72
   31
 73
   30
  0
VERTEX
  8
Triangle_Set_ncl1_2
 62
   253
 10
0.0
 20
0.0
 30
0.0
 70
   128
 71
   5
 72
   6
 73
   30
  0
VERTEX
  8
Triangle_Set_ncl1_2
 62
   253
 10
0.0
 20
0.0
 30
0.0
 70
   128
 71
   5
 72
   30
 73
   29
  0
VERTEX
  8
Triangle_Set_ncl1_2
 62
   253
 10
0.0
 20
0.0
 30
0.0
 70
   128
 71
   30
 72
   31
 73
   28
  0
VERTEX
  8
Triangle_Set_ncl1_2
 62
   253
 10
0.0
 20
0.0
 30
0.0
 70
   128
 71
   31
 72
   32
 73
   27
  0
VERTEX
  8
Triangle_Set_ncl1_2
 62
   253
 10
0.0
 20
0.0
 30
0.0
 70
   128
 71
   32
 72
   33
 73
   26
  0
VERTEX
  8
Triangle_Set_ncl1_2
 62
   253
 10
0.0
 20
0.0
 30
0.0
 70
   128
 71
   33
 72
   34
 73
   25
  0
VERTEX
  8
Triangle_Set_ncl1_2
 62
   253
 10
0.0
 20
0.0
 30
0.0
 70
   128
 71
   34
 72
   35
 73
   24
  0
VERTEX
  8
Triangle_Set_ncl1_2
 62
   253
 10
0.0
 20
0.0
 30
0.0
 70
   128
 71
   35
 72
   36
 73
   23
  0
VERTEX
  8
Triangle_Set_ncl1_2
 62
   253
 10
0.0
 20
0.0
 30
0.0
 70
   128
 71
   36
 72
   37
 73
   22
  0
VERTEX
  8
Triangle_Set_ncl1_2
 62
   253
 10
0.0
 20
0.0
 30
0.0
 70
   128
 71
   37
 72
   38
 73
   21
  0
VERTEX
  8
Triangle_Set_ncl1_2
 62
   253
 10
0.0
 20
0.0
 30
0.0
 70
   128
 71
   38
 72
   39
 73
   20
  0
VERTEX
  8
Triangle_Set_ncl1_2
 62
   253
 10
0.0
 20
0.0
 30
0.0
 70
   128
 71
   39
 72
   40
 73
   19
  0
VERTEX
  8
Triangle_Set_ncl1_2
 62
   253
 10
0.0
 20
0.0
 30
0.0
 70
   128
 71
   40
 72
   41
 73
   18
  0
VERTEX
  8
Triangle_Set_ncl1_2
 62
   253
 10
0.0
 20
0.0
 30
0.0
 70
   128
 71
   41
 72
   42
 73
   17
  0
VERTEX
  8
Triangle_Set_ncl1_2
 62
   253
 10
0.0
 20
0.0
 30
0.0
 70
   128
 71
   42
 72
   43
 73
   16
  0
VERTEX
  8
Triangle_Set_ncl1_2
 62
   253
 10
0.0
 20
0.0
 30
0.0
 70
   128
 71
   43
 72
   44
 73
   15
  0
VERTEX
  8
Triangle_Set_ncl1_2
 62
   253
 10
0.0
 20
0.0
 30
0.0
 70
   128
 71
   44
 72
   45
 73
   14
  0
VERTEX
  8
Triangle_Set_ncl1_2
 62
   253
 10
0.0
 20
0.0
 30
0.0
 70
   128
 71
   45
 72
   46
 73
   13
  0
VERTEX
  8
Triangle_Set_ncl1_2
 62
   253
 10
0.0
 20
0.0
 30
0.0
 70
   128
 71
   46
 72
   12
 73
   10
  0
VERTEX
  8
Triangle_Set_ncl1_2
 62
   253
 10
0.0
 20
0.0
 30
0.0
 70
   128
 71
   46
 72
   10
 73
   13
  0
VERTEX
  8
Triangle_Set_ncl1_2
 62
   253
 10
0.0
 20
0.0
 30
0.0
 70
   128
 71
   45
 72
   13
 73
   14
  0
VERTEX
  8
Triangle_Set_ncl1_2
 62
   253
 10
0.0
 20
0.0
 30
0.0
 70
   128
 71
   44
 72
   14
 73
   15
  0
VERTEX
  8
Triangle_Set_ncl1_2
 62
   253
 10
0.0
 20
0.0
 30
0.0
 70
   128
 71
   43
 72
   15
 73
   16
  0
VERTEX
  8
Triangle_Set_ncl1_2
 62
   253
 10
0.0
 20
0.0
 30
0.0
 70
   128
 71
   42
 72
   16
 73
   17
  0
VERTEX
  8
Triangle_Set_ncl1_2
 62
   253
 10
0.0
 20
0.0
 30
0.0
 70
   128
 71
   41
 72
   17
 73
   18
  0
VERTEX
  8
Triangle_Set_ncl1_2
 62
   253
 10
0.0
 20
0.0
 30
0.0
 70
   128
 71
   40
 72
   18
 73
   19
  0
VERTEX
  8
Triangle_Set_ncl1_2
 62
   253
 10
0.0
 20
0.0
 30
0.0
 70
   128
 71
   39
 72
   19
 73
   20
  0
VERTEX
  8
Triangle_Set_ncl1_2
 62
   253
 10
0.0
 20
0.0
 30
0.0
 70
   128
 71
   38
 72
   20
 73
   21
  0
VERTEX
  8
Triangle_Set_ncl1_2
 62
   253
 10
0.0
 20
0.0
 30
0.0
 70
   128
 71
   37
 72
   21
 73
   22
  0
VERTEX
  8
Triangle_Set_ncl1_2
 62
   253
 10
0.0
 20
0.0
 30
0.0
 70
   128
 71
   36
 72
   22
 73
   23
  0
VERTEX
  8
Triangle_Set_ncl1_2
 62
   253
 10
0.0
 20
0.0
 30
0.0
 70
   128
 71
   35
 72
   23
 73
   24
  0
VERTEX
  8
Triangle_Set_ncl1_2
 62
   253
 10
0.0
 20
0.0
 30
0.0
 70
   128
 71
   34
 72
   24
 73
   25
  0
VERTEX
  8
Triangle_Set_ncl1_2
 62
   253
 10
0.0
 20
0.0
 30
0.0
 70
   128
 71
   33
 72
   25
 73
   26
  0
VERTEX
  8
Triangle_Set_ncl1_2
 62
   253
 10
0.0
 20
0.0
 30
0.0
 70
   128
 71
   32
 72
   26
 73
   27
  0
VERTEX
  8
Triangle_Set_ncl1_2
 62
   253
 10
0.0
 20
0.0
 30
0.0
 70
   128
 71
   31
 72
   27
 73
   28
  0
VERTEX
  8
Triangle_Set_ncl1_2
 62
   253
 10
0.0
 20
0.0
 30
0.0
 70
   128
 71
   30
 72
   28
 73
   29
  0
VERTEX
  8
Triangle_Set_ncl1_2
 62
   253
 10
0.0
 20
0.0
 30
0.0
 70
   128
 71
   8
 72
   9
 73
   11
  0
VERTEX
  8
Triangle_Set_ncl1_2
 62
   253
 10
0.0
 20
0.0
 30
0.0
 70
   128
 71
   7
 72
   8
 73
   11
  0
VERTEX
  8
Triangle_Set_ncl1_2
 62
   253
 10
0.0
 20
0.0
 30
0.0
 70
   128
 71
   10
 72
   11
 73
   9
  0
VERTEX
  8
Triangle_Set_ncl1_2
 62
   253
 10
0.0
 20
0.0
 30
0.0
 70
   128
 71
   11
 72
   10
 73
   12
  0
SEQEND
  0
POLYLINE
  8
Triangle_Set_ncl1_3
 62
   253
 66
   1
 10
0.0
 20
0.0
 30
0.0
 70
   64
 71
   46
 72
   88
  0
VERTEX
  8
Triangle_Set_ncl1_3
 10
1.590000
 20
0.800000
 30
0.000000
 70
   192
  0
VERTEX
  8
Triangle_Set_ncl1_3
 10
1.590000
 20
0.800000
 30
0.750000
 70
   192
  0
VERTEX
  8
Triangle_Set_ncl1_3
 10
1.000000
 20
0.800000
 30
0.750000
 70
   192
  0
VERTEX
  8
Triangle_Set_ncl1_3
 10
1.000000
 20
0.800000
 30
0.000000
 70
   192
  0
VERTEX
  8
Triangle_Set_ncl1_3
 10
1.590000
 20
0.199750
 30
0.000000
 70
   192
  0
VERTEX
  8
Triangle_Set_ncl1_3
 10
1.590000
 20
0.199750
 30
0.750000
 70
   192
  0
VERTEX
  8
Triangle_Set_ncl1_3
 10
1.000000
 20
-0.800000
 30
0.750000
 70
   192
  0
VERTEX
  8
Triangle_Set_ncl1_3
 10
1.000000
 20
-0.800000
 30
0.000000
 70
   192
  0
VERTEX
  8
Triangle_Set_ncl1_3
 10
1.590000
 20
-0.800000
 30
0.000000
 70
   192
  0
VERTEX
  8
Triangle_Set_ncl1_3
 10
1.590000
 20
-0.199750
 30
0.000000
 70
   192
  0
VERTEX
  8
Triangle_Set_ncl1_3
 10
1.590000
 20
-0.800000
 30
0.750000
 70
   192
  0
VERTEX
  8
Triangle_Set_ncl1_3
 10
1.590000
 20
-0.199750
 30
0.750000
 70
   192
  0
VERTEX
  8
Triangle_Set_ncl1_3
 10
1.556550
 20
0.195223
 30
0.000000
 70
   192
  0
VERTEX
  8
Triangle_Set_ncl1_3
 10
1.524338
 20
0.185136
 30
0.000000
 70
   192
  0
VERTEX
  8
Triangle_Set_ncl1_3
 10
1.494281
 20
0.169775
 30
0.000000
 70
   192
  0
VERTEX
  8
Triangle_Set_ncl1_3
 10
1.467235
 20
0.149578
 30
0.000000
 70
   192
  0
VERTEX
  8
Triangle_Set_ncl1_3
 10
1.443971
 20
0.125120
 30
0.000000
 70
   192
  0
VERTEX
  8
Triangle_Set_ncl1_3
 10
1.425152
 20
0.097098
 30
0.000000
 70
   192
  0
VERTEX
  8
Triangle_Set_ncl1_3
 10
1.411313
 20
0.066311
 30
0.000000
 70
   192
  0
VERTEX
  8
Triangle_Set_ncl1_3
 10
1.402848
 20
0.033634
 30
0.000000
 70
   192
  0
VERTEX
  8
Triangle_Set_ncl1_3
 10
1.400000
 20
0.000000
 30
0.000000
 70
   192
  0
VERTEX
  8
Triangle_Set_ncl1_3
 10
1.402848
 20
-0.033634
 30
0.000000
 70
   192
  0
VERTEX
  8
Triangle_Set_ncl1_3
 10
1.411313
 20
-0.066311
 30
0.000000
 70
   192
  0
VERTEX
  8
Triangle_Set_ncl1_3
 10
1.425152
 20
-0.097098
 30
0.000000
 70
   192
  0
VERTEX
  8
Triangle_Set_ncl1_3
 10
1.443971
 20
-0.125120
 30
0.000000
 70
   192
  0
VERTEX
  8
Triangle_Set_ncl1_3
 10
1.467235
 20
-0.149578
 30
0.000000
 70
   192
  0
VERTEX
  8
Triangle_Set_ncl1_3
 10
1.494281
 20
-0.169775
 30
0.000000
 70
   192
  0
VERTEX
  8
Triangle_Set_ncl1_3
 10
1.524338
 20
-0.185136
 30
0.000000
 70
   192
  0
VERTEX
  8
Triangle_Set_ncl1_3
 10
1.556550
 20
-0.195223
 30
0.000000
 70
   192
  0
VERTEX
  8
Triangle_Set_ncl1_3
 10
1.556550
 20
-0.195223
 30
0.750000
 70
   192
  0
VERTEX
  8
Triangle_Set_ncl1_3
 10
1.524338
 20
-0.185136
 30
0.750000
 70
   192
  0
VERTEX
  8
Triangle_Set_ncl1_3
 10
1.494281
 20
-0.169775
 30
0.750000
 70
   192
  0
VERTEX
  8
Triangle_Set_ncl1_3
 10
1.467235
 20
-0.149578
 30
0.750000
 70
   192
  0
VERTEX
  8
Triangle_Set_ncl1_3
 10
1.443971
 20
-0.125120
 30
0.750000
 70
   192
  0
VERTEX
  8
Triangle_Set_ncl1_3
 10
1.425152
 20
-0.097098
 30
0.750000
 70
   192
  0
VERTEX
  8
Triangle_Set_ncl1_3
 10
1.411313
 20
-0.066311
 30
0.750000
 70
   192
  0
VERTEX
  8
Triangle_Set_ncl1_3
 10
1.402848
 20
-0.033634
 30
0.750000
 70
   192
  0
VERTEX
  8
Triangle_Set_ncl1_3
 10
1.400000
 20
-0.000000
 30
0.750000
 70
   192
  0
VERTEX
  8
Triangle_Set_ncl1_3
 10
1.402848
 20
0.033634
 30
0.750000
 70
   192
  0
VERTEX
  8
Triangle_Set_ncl1_3
 10
1.411313
 20
0.066311
 30
0.750000
 70
   192
  0
VERTEX
  8
Triangle_Set_ncl1_3
 10
1.425152
 20
0.097098
 30
0.750000
 70
   192
  0
VERTEX
  8
Triangle_Set_ncl1_3
 10
1.443971
 20
0.125120
 30
0.750000
 70
   192
  0
VERTEX
  8
Triangle_Set_ncl1_3
 10
1.467235
 20
0.149578
 30
0.750000
 70
   192
  0
VERTEX
  8
Triangle_Set_ncl1_3
 10
1.494281
 20
0.169775
 30
0.750000
 70
   192
  0
VERTEX
  8
Triangle_Set_ncl1_3
 10
1.524338
 20
0.185136
 30
0.750000
 70
   192
  0
VERTEX
  8
Triangle_Set_ncl1_3
 10
1.556550
 20
0.195223
 30
0.750000
 70
   192
  0
VERTEX
  8
Triangle_Set_ncl1_3
 62
   253
 10
0.0
 20
0.0
 30
0.0
 70
   128
 71
   4
 72
   1
 73
   3
  0
VERTEX
  8
Triangle_Set_ncl1_3
 62
   253
 10
0.0
 20
0.0
 30
0.0
 70
   128
 71
   1
 72
   2
 73
   3
  0
VERTEX
  8
Triangle_Set_ncl1_3
 62
   253
 10
0.0
 20
0.0
 30
0.0
 70
   128
 71
   6
 72
   1
 73
   5
  0
VERTEX
  8
Triangle_Set_ncl1_3
 62
   253
 10
0.0
 20
0.0
 30
0.0
 70
   128
 71
   1
 72
   6
 73
   2
  0
VERTEX
  8
Triangle_Set_ncl1_3
 62
   253
 10
0.0
 20
0.0
 30
0.0
 70
   128
 71
   4
 72
   3
 73
   7
  0
VERTEX
  8
Triangle_Set_ncl1_3
 62
   253
 10
0.0
 20
0.0
 30
0.0
 70
   128
 71
   4
 72
   7
 73
   8
  0
VERTEX
  8
Triangle_Set_ncl1_3
 62
   253
 10
0.0
 20
0.0
 30
0.0
 70
   128
 71
   8
 72
   9
 73
   27
  0
VERTEX
  8
Triangle_Set_ncl1_3
 62
   253
 10
0.0
 20
0.0
 30
0.0
 70
   128
 71
   9
 72
   10
 73
   29
  0
VERTEX
  8
Triangle_Set_ncl1_3
 62
   253
 10
0.0
 20
0.0
 30
0.0
 70
   128
 71
   9
 72
   29
 73
   28
  0
VERTEX
  8
Triangle_Set_ncl1_3
 62
   253
 10
0.0
 20
0.0
 30
0.0
 70
   128
 71
   9
 72
   28
 73
   27
  0
VERTEX
  8
Triangle_Set_ncl1_3
 62
   253
 10
0.0
 20
0.0
 30
0.0
 70
   128
 71
   8
 72
   27
 73
   26
  0
VERTEX
  8
Triangle_Set_ncl1_3
 62
   253
 10
0.0
 20
0.0
 30
0.0
 70
   128
 71
   8
 72
   26
 73
   25
  0
VERTEX
  8
Triangle_Set_ncl1_3
 62
   253
 10
0.0
 20
0.0
 30
0.0
 70
   128
 71
   4
 72
   8
 73
   21
  0
VERTEX
  8
Triangle_Set_ncl1_3
 62
   253
 10
0.0
 20
0.0
 30
0.0
 70
   128
 71
   8
 72
   25
 73
   24
  0
VERTEX
  8
Triangle_Set_ncl1_3
 62
   253
 10
0.0
 20
0.0
 30
0.0
 70
   128
 71
   8
 72
   24
 73
   23
  0
VERTEX
  8
Triangle_Set_ncl1_3
 62
   253
 10
0.0
 20
0.0
 30
0.0
 70
   128
 71
   8
 72
   23
 73
   22
  0
VERTEX
  8
Triangle_Set_ncl1_3
 62
   253
 10
0.0
 20
0.0
 30
0.0
 70
   128
 71
   8
 72
   22
 73
   21
  0
VERTEX
  8
Triangle_Set_ncl1_3
 62
   253
 10
0.0
 20
0.0
 30
0.0
 70
   128
 71
   4
 72
   21
 73
   20
  0
VERTEX
  8
Triangle_Set_ncl1_3
 62
   253
 10
0.0
 20
0.0
 30
0.0
 70
   128
 71
   4
 72
   20
 73
   19
  0
VERTEX
  8
Triangle_Set_ncl1_3
 62
   253
 10
0.0
 20
0.0
 30
0.0
 70
   128
 71
   4
 72
   19
 73
   18
  0
VERTEX
  8
Triangle_Set_ncl1_3
 62
   253
 10
0.0
 20
0.0
 30
0.0
 70
   128
 71
   1
 72
   4
 73
   15
  0
VERTEX
  8
Triangle_Set_ncl1_3
 62
   253
 10
0.0
 20
0.0
 30
0.0
 70
   128
 71
   4
 72
   18
 73
   17
  0
VERTEX
  8
Triangle_Set_ncl1_3
 62
   253
 10
0.0
 20
0.0
 30
0.0
 70
   128
 71
   4
 72
   17
 73
   16
  0
VERTEX
  8
Triangle_Set_ncl1_3
 62
   253
 10
0.0
 20
0.0
 30
0.0
 70
   128
 71
   4
 72
   16
 73
   15
  0
VERTEX
  8
Triangle_Set_ncl1_3
 62
   253
 10
0.0
 20
0.0
 30
0.0
 70
   128
 71
   1
 72
   15
 73
   14
  0
VERTEX
  8
Triangle_Set_ncl1_3
 62
   253
 10
0.0
 20
0.0
 30
0.0
 70
   128
 71
   5
 72
   1
 73
   13
  0
VERTEX
  8
Triangle_Set_ncl1_3
 62
   253
 10
0.0
 20
0.0
 30
0.0
 70
   128
 71
   1
 72
   14
 73
   13
  0
VERTEX
  8
Triangle_Set_ncl1_3
 62
   253
 10
0.0
 20
0.0
 30
0.0
 70
   128
 71
   11
 72
   7
 73
   32
  0
VERTEX
  8
Triangle_Set_ncl1_3
 62
   253
 10
0.0
 20
0.0
 30
0.0
 70
   128
 71
   12
 72
   11
 73
   30
  0
VERTEX
  8
Triangle_Set_ncl1_3
 62
   253
 10
0.0
 20
0.0
 30
0.0
 70
   128
 71
   30
 72
   11
 73
   31
  0
VERTEX
  8
Triangle_Set_ncl1_3
 62
   253
 10
0.0
 20
0.0
 30
0.0
 70
   128
 71
   31
 72
   11
 73
   32
  0
VERTEX
  8
Triangle_Set_ncl1_3
 62
   253
 10
0.0
 20
0.0
 30
0.0
 70
   128
 71
   32
 72
   7
 73
   33
  0
VERTEX
  8
Triangle_Set_ncl1_3
 62
   253
 10
0.0
 20
0.0
 30
0.0
 70
   128
 71
   33
 72
   7
 73
   34
  0
VERTEX
  8
Triangle_Set_ncl1_3
 62
   253
 10
0.0
 20
0.0
 30
0.0
 70
   128
 71
   7
 72
   3
 73
   38
  0
VERTEX
  8
Triangle_Set_ncl1_3
 62
   253
 10
0.0
 20
0.0
 30
0.0
 70
   128
 71
   34
 72
   7
 73
   35
  0
VERTEX
  8
Triangle_Set_ncl1_3
 62
   253
 10
0.0
 20
0.0
 30
0.0
 70
   128
 71
   35
 72
   7
 73
   36
  0
VERTEX
  8
Triangle_Set_ncl1_3
 62
   253
 10
0.0
 20
0.0
 30
0.0
 70
   128
 71
   36
 72
   7
 73
   37
  0
VERTEX
  8
Triangle_Set_ncl1_3
 62
   253
 10
0.0
 20
0.0
 30
0.0
 70
   128
 71
   37
 72
   7
 73
   38
  0
VERTEX
  8
Triangle_Set_ncl1_3
 62
   253
 10
0.0
 20
0.0
 30
0.0
 70
   128
 71
   38
 72
   3
 73
   39
  0
VERTEX
  8
Triangle_Set_ncl1_3
 62
   253
 10
0.0
 20
0.0
 30
0.0
 70
   128
 71
   39
 72
   3
 73
   40
  0
VERTEX
  8
Triangle_Set_ncl1_3
 62
   253
 10
0.0
 20
0.0
 30
0.0
 70
   128
 71
   40
 72
   3
 73
   41
  0
VERTEX
  8
Triangle_Set_ncl1_3
 62
   253
 10
0.0
 20
0.0
 30
0.0
 70
   128
 71
   3
 72
   2
 73
   44
  0
VERTEX
  8
Triangle_Set_ncl1_3
 62
   253
 10
0.0
 20
0.0
 30
0.0
 70
   128
 71
   41
 72
   3
 73
   42
  0
VERTEX
  8
Triangle_Set_ncl1_3
 62
   253
 10
0.0
 20
0.0
 30
0.0
 70
   128
 71
   42
 72
   3
 73
   43
  0
VERTEX
  8
Triangle_Set_ncl1_3
 62
   253
 10
0.0
 20
0.0
 30
0.0
 70
   128
 71
   43
 72
   3
 73
   44
  0
VERTEX
  8
Triangle_Set_ncl1_3
 62
   253
 10
0.0
 20
0.0
 30
0.0
 70
   128
 71
   44
 72
   2
 73
   45
  0
VERTEX
  8
Triangle_Set_ncl1_3
 62
   253
 10
0.0
 20
0.0
 30
0.0
 70
   128
 71
   2
 72
   6
 73
   46
  0
VERTEX
  8
Triangle_Set_ncl1_3
 62
   253
 10
0.0
 20
0.0
 30
0.0
 70
   128
 71
   45
 72
   2
 73
   46
  0
VERTEX
  8
Triangle_Set_ncl1_3
 62
   253
 10
0.0
 20
0.0
 30
0.0
 70
   128
 71
   10
 72
   12
 73
   30
  0
VERTEX
  8
Triangle_Set_ncl1_3
 62
   253
 10
0.0
 20
0.0
 30
0.0
 70
   128
 71
   10
 72
   30
 73
   29
  0
VERTEX
  8
Triangle_Set_ncl1_3
 62
   253
 10
0.0
 20
0.0
 30
0.0
 70
   128
 71
   30
 72
   31
 73
   28
  0
VERTEX
  8
Triangle_Set_ncl1_3
 62
   253
 10
0.0
 20
0.0
 30
0.0
 70
   128
 71
   31
 72
   32
 73
   27
  0
VERTEX
  8
Triangle_Set_ncl1_3
 62
   253
 10
0.0
 20
0.0
 30
0.0
 70
   128
 71
   32
 72
   33
 73
   26
  0
VERTEX
  8
Triangle_Set_ncl1_3
 62
   253
 10
0.0
 20
0.0
 30
0.0
 70
   128
 71
   33
 72
   34
 73
   25
  0
VERTEX
  8
Triangle_Set_ncl1_3
 62
   253
 10
0.0
 20
0.0
 30
0.0
 70
   128
 71
   34
 72
   35
 73
   24
  0
VERTEX
  8
Triangle_Set_ncl1_3
 62
   253
 10
0.0
 20
0.0
 30
0.0
 70
   128
 71
   35
 72
   36
 73
   23
  0
VERTEX
  8
Triangle_Set_ncl1_3
 62
   253
 10
0.0
 20
0.0
 30
0.0
 70
   128
 71
   36
 72
   37
 73
   22
  0
VERTEX
  8
Triangle_Set_ncl1_3
 62
   253
 10
0.0
 20
0.0
 30
0.0
 70
   128
 71
   37
 72
   38
 73
   21
  0
VERTEX
  8
Triangle_Set_ncl1_3
 62
   253
 10
0.0
 20
0.0
 30
0.0
 70
   128
 71
   38
 72
   39
 73
   20
  0
VERTEX
  8
Triangle_Set_ncl1_3
 62
   253
 10
0.0
 20
0.0
 30
0.0
 70
   128
 71
   39
 72
   40
 73
   19
  0
VERTEX
  8
Triangle_Set_ncl1_3
 62
   253
 10
0.0
 20
0.0
 30
0.0
 70
   128
 71
   40
 72
   41
 73
   18
  0
VERTEX
  8
Triangle_Set_ncl1_3
 62
   253
 10
0.0
 20
0.0
 30
0.0
 70
   128
 71
   41
 72
   42
 73
   17
  0
VERTEX
  8
Triangle_Set_ncl1_3
 62
   253
 10
0.0
 20
0.0
 30
0.0
 70
   128
 71
   42
 72
   43
 73
   16
  0
VERTEX
  8
Triangle_Set_ncl1_3
 62
   253
 10
0.0
 20
0.0
 30
0.0
 70
   128
 71
   43
 72
   44
 73
   15
  0
VERTEX
  8
Triangle_Set_ncl1_3
 62
   253
 10
0.0
 20
0.0
 30
0.0
 70
   128
 71
   44
 72
   45
 73
   14
  0
VERTEX
  8
Triangle_Set_ncl1_3
 62
   253
 10
0.0
 20
0.0
 30
0.0
 70
   128
 71
   45
 72
   46
 73
   13
  0
VERTEX
  8
Triangle_Set_ncl1_3
 62
   253
 10
0.0
 20
0.0
 30
0.0
 70
   128
 71
   46
 72
   6
 73
   5
  0
VERTEX
  8
Triangle_Set_ncl1_3
 62
   253
 10
0.0
 20
0.0
 30
0.0
 70
   128
 71
   46
 72
   5
 73
   13
  0
VERTEX
  8
Triangle_Set_ncl1_3
 62
   253
 10
0.0
 20
0.0
 30
0.0
 70
   128
 71
   45
 72
   13
 73
   14
  0
VERTEX
  8
Triangle_Set_ncl1_3
 62
   253
 10
0.0
 20
0.0
 30
0.0
 70
   128
 71
   44
 72
   14
 73
   15
  0
VERTEX
  8
Triangle_Set_ncl1_3
 62
   253
 10
0.0
 20
0.0
 30
0.0
 70
   128
 71
   43
 72
   15
 73
   16
  0
VERTEX
  8
Triangle_Set_ncl1_3
 62
   253
 10
0.0
 20
0.0
 30
0.0
 70
   128
 71
   42
 72
   16
 73
   17
  0
VERTEX
  8
Triangle_Set_ncl1_3
 62
   253
 10
0.0
 20
0.0
 30
0.0
 70
   128
 71
   41
 72
   17
 73
   18
  0
VERTEX
  8
Triangle_Set_ncl1_3
 62
   253
 10
0.0
 20
0.0
 30
0.0
 70
   128
 71
   40
 72
   18
 73
   19
  0
VERTEX
  8
Triangle_Set_ncl1_3
 62
   253
 10
0.0
 20
0.0
 30
0.0
 70
   128
 71
   39
 72
   19
 73
   20
  0
VERTEX
  8
Triangle_Set_ncl1_3
 62
   253
 10
0.0
 20
0.0
 30
0.0
 70
   128
 71
   38
 72
   20
 73
   21
  0
VERTEX
  8
Triangle_Set_ncl1_3
 62
   253
 10
0.0
 20
0.0
 30
0.0
 70
   128
 71
   37
 72
   21
 73
   22
  0
VERTEX
  8
Triangle_Set_ncl1_3
 62
   253
 10
0.0
 20
0.0
 30
0.0
 70
   128
 71
   36
 72
   22
 73
   23
  0
VERTEX
  8
Triangle_Set_ncl1_3
 62
   253
 10
0.0
 20
0.0
 30
0.0
 70
   128
 71
   35
 72
   23
 73
   24
  0
VERTEX
  8
Triangle_Set_ncl1_3
 62
   253
 10
0.0
 20
0.0
 30
0.0
 70
   128
 71
   34
 72
   24
 73
   25
  0
VERTEX
  8
Triangle_Set_ncl1_3
 62
   253
 10
0.0
 20
0.0
 30
0.0
 70
   128
 71
   33
 72
   25
 73
   26
  0
VERTEX
  8
Triangle_Set_ncl1_3
 62
   253
 10
0.0
 20
0.0
 30
0.0
 70
   128
 71
   32
 72
   26
 73
   27
  0
VERTEX
  8
Triangle_Set_ncl1_3
 62
   253
 10
0.0
 20
0.0
 30
0.0
 70
   128
 71
   31
 72
   27
 73
   28
  0
VERTEX
  8
Triangle_Set_ncl1_3
 62
   253
 10
0.0
 20
0.0
 30
0.0
 70
   128
 71
   30
 72
   28
 73
   29
  0
VERTEX
  8
Triangle_Set_ncl1_3
 62
   253
 10
0.0
 20
0.0
 30
0.0
 70
   128
 71
   9
 72
   8
 73
   11
  0
VERTEX
  8
Triangle_Set_ncl1_3
 62
   253
 10
0.0
 20
0.0
 30
0.0
 70
   128
 71
   8
 72
   7
 73
   11
  0
VERTEX
  8
Triangle_Set_ncl1_3
 62
   253
 10
0.0
 20
0.0
 30
0.0
 70
   128
 71
   11
 72
   10
 73
   9
  0
VERTEX
  8
Triangle_Set_ncl1_3
 62
   253
 10
0.0
 20
0.0
 30
0.0
 70
   128
 71
   10
 72
   11
 73
   12
  0
SEQEND
  0
ENDSEC
  0
EOF
