999
FBX AutoCAD (*.DXF) exporter
  0
SECTION
  2
HEADER
  9
$ACADVER
  1
AC1008
  9
$UCSORG
 10
0.0
 20
0.0
 30
0.0
  9
$UCSXDIR
 10
1.0
 20
0.0
 30
0.0
  9
$TILEMODE
 70
   1
  9
$UCSYDIR
 10
0.0
 20
1.0
 30
0.0
  0
ENDSEC
  0
SECTION
  2
TABLES
  0
TABLE
  2
LTYPE
 70
   1
  0
LTYPE
  2
CONTINUOUS
 70
   64
  3
Solid line
 72
   65
 73
   0
 40
0.0
  0
ENDTAB
  0
TABLE
  2
LAYER
 70
   9
  0
LAYER
  2
Body
 70
   0
 62
   250
  6
CONTINUOUS
  0
LAYER
  2
Triangle_Set
 70
   0
 62
   253
  6
CONTINUOUS
  0
LAYER
  2
Triangle_Set_ncl1_1
 70
   0
 62
   253
  6
CONTINUOUS
  0
LAYER
  2
Triangle_Set_ncl1_2
 70
   0
 62
   253
  6
CONTINUOUS
  0
LAYER
  2
Triangle_Set_ncl1_3
 70
   0
 62
   253
  6
CONTINUOUS
  0
LAYER
  2
Triangle_Set_ncl1_4
 70
   0
 62
   253
  6
CONTINUOUS
  0
ENDTAB
  0
ENDSEC
  0
SECTION
  2
BLOCKS
  0
ENDSEC
  0
SECTION
  2
ENTITIES
  0
POLYLINE
  8
Body
 62
   250
 66
   1
 10
0.0
 20
0.0
 30
0.0
 70
   64
 71
   184
 72
   364
  0
VERTEX
  8
Body
 10
-0.077500
 20
-0.145000
 30
0.060011
 70
   192
  0
VERTEX
  8
Body
 10
-0.070238
 20
-0.137738
 30
0.010809
 70
   192
  0
VERTEX
  8
Body
 10
-0.077500
 20
0.145000
 30
0.060011
 70
   192
  0
VERTEX
  8
Body
 10
-0.070238
 20
0.137738
 30
0.010809
 70
   192
  0
VERTEX
  8
Body
 10
0.077500
 20
-0.145000
 30
0.060011
 70
   192
  0
VERTEX
  8
Body
 10
0.070238
 20
-0.137738
 30
0.010809
 70
   192
  0
VERTEX
  8
Body
 10
-0.066405
 20
0.133905
 30
0.007500
 70
   192
  0
VERTEX
  8
Body
 10
-0.066405
 20
-0.133905
 30
0.007500
 70
   192
  0
VERTEX
  8
Body
 10
-0.077500
 20
-0.145000
 30
0.077761
 70
   192
  0
VERTEX
  8
Body
 10
-0.077500
 20
0.145000
 30
0.077761
 70
   192
  0
VERTEX
  8
Body
 10
0.077500
 20
0.145000
 30
0.060011
 70
   192
  0
VERTEX
  8
Body
 10
0.070238
 20
0.137738
 30
0.010809
 70
   192
  0
VERTEX
  8
Body
 10
0.066405
 20
-0.133905
 30
0.007500
 70
   192
  0
VERTEX
  8
Body
 10
0.077500
 20
-0.145000
 30
0.077761
 70
   192
  0
VERTEX
  8
Body
 10
0.066405
 20
0.133905
 30
0.007500
 70
   192
  0
VERTEX
  8
Body
 10
-0.070145
 20
-0.137645
 30
0.141569
 70
   192
  0
VERTEX
  8
Body
 10
-0.070145
 20
0.137645
 30
0.141569
 70
   192
  0
VERTEX
  8
Body
 10
0.077500
 20
0.145000
 30
0.077761
 70
   192
  0
VERTEX
  8
Body
 10
0.070145
 20
-0.137645
 30
0.141569
 70
   192
  0
VERTEX
  8
Body
 10
-0.066296
 20
-0.133796
 30
0.145000
 70
   192
  0
VERTEX
  8
Body
 10
-0.066296
 20
0.133796
 30
0.145000
 70
   192
  0
VERTEX
  8
Body
 10
0.070145
 20
0.137645
 30
0.141569
 70
   192
  0
VERTEX
  8
Body
 10
0.066296
 20
-0.133796
 30
0.145000
 70
   192
  0
VERTEX
  8
Body
 10
0.066296
 20
0.133796
 30
0.145000
 70
   192
  0
VERTEX
  8
Body
 10
-0.036812
 20
0.095000
 30
0.145000
 70
   192
  0
VERTEX
  8
Body
 10
-0.036812
 20
0.095000
 30
0.130500
 70
   192
  0
VERTEX
  8
Body
 10
-0.070173
 20
0.137673
 30
0.010471
 70
   192
  0
VERTEX
  8
Body
 10
-0.070078
 20
0.137578
 30
0.010139
 70
   192
  0
VERTEX
  8
Body
 10
-0.069953
 20
0.137453
 30
0.009818
 70
   192
  0
VERTEX
  8
Body
 10
-0.069801
 20
0.137301
 30
0.009508
 70
   192
  0
VERTEX
  8
Body
 10
-0.069621
 20
0.137121
 30
0.009214
 70
   192
  0
VERTEX
  8
Body
 10
-0.069416
 20
0.136916
 30
0.008937
 70
   192
  0
VERTEX
  8
Body
 10
-0.069188
 20
0.136688
 30
0.008678
 70
   192
  0
VERTEX
  8
Body
 10
-0.068937
 20
0.136437
 30
0.008442
 70
   192
  0
VERTEX
  8
Body
 10
-0.068378
 20
0.135878
 30
0.008040
 70
   192
  0
VERTEX
  8
Body
 10
-0.067756
 20
0.135256
 30
0.007743
 70
   192
  0
VERTEX
  8
Body
 10
-0.067091
 20
0.134591
 30
0.007561
 70
   192
  0
VERTEX
  8
Body
 10
-0.070173
 20
-0.137673
 30
0.010471
 70
   192
  0
VERTEX
  8
Body
 10
-0.070078
 20
-0.137578
 30
0.010139
 70
   192
  0
VERTEX
  8
Body
 10
-0.069953
 20
-0.137453
 30
0.009818
 70
   192
  0
VERTEX
  8
Body
 10
-0.069801
 20
-0.137301
 30
0.009508
 70
   192
  0
VERTEX
  8
Body
 10
-0.069621
 20
-0.137121
 30
0.009214
 70
   192
  0
VERTEX
  8
Body
 10
-0.069416
 20
-0.136916
 30
0.008937
 70
   192
  0
VERTEX
  8
Body
 10
-0.069188
 20
-0.136688
 30
0.008678
 70
   192
  0
VERTEX
  8
Body
 10
-0.068937
 20
-0.136437
 30
0.008442
 70
   192
  0
VERTEX
  8
Body
 10
-0.068378
 20
-0.135878
 30
0.008040
 70
   192
  0
VERTEX
  8
Body
 10
-0.067756
 20
-0.135256
 30
0.007743
 70
   192
  0
VERTEX
  8
Body
 10
-0.067091
 20
-0.134591
 30
0.007561
 70
   192
  0
VERTEX
  8
Body
 10
0.070173
 20
-0.137673
 30
0.010471
 70
   192
  0
VERTEX
  8
Body
 10
0.070078
 20
-0.137578
 30
0.010139
 70
   192
  0
VERTEX
  8
Body
 10
0.069953
 20
-0.137453
 30
0.009818
 70
   192
  0
VERTEX
  8
Body
 10
0.069801
 20
-0.137301
 30
0.009508
 70
   192
  0
VERTEX
  8
Body
 10
0.069621
 20
-0.137121
 30
0.009214
 70
   192
  0
VERTEX
  8
Body
 10
0.069416
 20
-0.136916
 30
0.008937
 70
   192
  0
VERTEX
  8
Body
 10
0.069188
 20
-0.136688
 30
0.008678
 70
   192
  0
VERTEX
  8
Body
 10
0.068937
 20
-0.136437
 30
0.008442
 70
   192
  0
VERTEX
  8
Body
 10
0.068378
 20
-0.135878
 30
0.008040
 70
   192
  0
VERTEX
  8
Body
 10
0.067756
 20
-0.135256
 30
0.007743
 70
   192
  0
VERTEX
  8
Body
 10
0.067091
 20
-0.134591
 30
0.007561
 70
   192
  0
VERTEX
  8
Body
 10
0.067091
 20
0.134591
 30
0.007561
 70
   192
  0
VERTEX
  8
Body
 10
0.067756
 20
0.135256
 30
0.007743
 70
   192
  0
VERTEX
  8
Body
 10
0.068378
 20
0.135878
 30
0.008040
 70
   192
  0
VERTEX
  8
Body
 10
0.068937
 20
0.136437
 30
0.008442
 70
   192
  0
VERTEX
  8
Body
 10
0.069188
 20
0.136688
 30
0.008678
 70
   192
  0
VERTEX
  8
Body
 10
0.069416
 20
0.136916
 30
0.008937
 70
   192
  0
VERTEX
  8
Body
 10
0.069621
 20
0.137121
 30
0.009214
 70
   192
  0
VERTEX
  8
Body
 10
0.069801
 20
0.137301
 30
0.009508
 70
   192
  0
VERTEX
  8
Body
 10
0.069953
 20
0.137453
 30
0.009818
 70
   192
  0
VERTEX
  8
Body
 10
0.070078
 20
0.137578
 30
0.010139
 70
   192
  0
VERTEX
  8
Body
 10
0.070173
 20
0.137673
 30
0.010471
 70
   192
  0
VERTEX
  8
Body
 10
-0.070089
 20
-0.137589
 30
0.141917
 70
   192
  0
VERTEX
  8
Body
 10
-0.070002
 20
-0.137502
 30
0.142258
 70
   192
  0
VERTEX
  8
Body
 10
-0.069883
 20
-0.137383
 30
0.142590
 70
   192
  0
VERTEX
  8
Body
 10
-0.069735
 20
-0.137235
 30
0.142910
 70
   192
  0
VERTEX
  8
Body
 10
-0.069559
 20
-0.137059
 30
0.143215
 70
   192
  0
VERTEX
  8
Body
 10
-0.069355
 20
-0.136855
 30
0.143503
 70
   192
  0
VERTEX
  8
Body
 10
-0.069127
 20
-0.136627
 30
0.143771
 70
   192
  0
VERTEX
  8
Body
 10
-0.068874
 20
-0.136374
 30
0.144018
 70
   192
  0
VERTEX
  8
Body
 10
-0.068308
 20
-0.135808
 30
0.144437
 70
   192
  0
VERTEX
  8
Body
 10
-0.067676
 20
-0.135176
 30
0.144746
 70
   192
  0
VERTEX
  8
Body
 10
-0.066997
 20
-0.134497
 30
0.144936
 70
   192
  0
VERTEX
  8
Body
 10
-0.070089
 20
0.137589
 30
0.141917
 70
   192
  0
VERTEX
  8
Body
 10
-0.070002
 20
0.137502
 30
0.142258
 70
   192
  0
VERTEX
  8
Body
 10
-0.069883
 20
0.137383
 30
0.142590
 70
   192
  0
VERTEX
  8
Body
 10
-0.069735
 20
0.137235
 30
0.142910
 70
   192
  0
VERTEX
  8
Body
 10
-0.069559
 20
0.137059
 30
0.143215
 70
   192
  0
VERTEX
  8
Body
 10
-0.069355
 20
0.136855
 30
0.143503
 70
   192
  0
VERTEX
  8
Body
 10
-0.069127
 20
0.136627
 30
0.143771
 70
   192
  0
VERTEX
  8
Body
 10
-0.068874
 20
0.136374
 30
0.144018
 70
   192
  0
VERTEX
  8
Body
 10
-0.068308
 20
0.135808
 30
0.144437
 70
   192
  0
VERTEX
  8
Body
 10
-0.067676
 20
0.135176
 30
0.144746
 70
   192
  0
VERTEX
  8
Body
 10
-0.066997
 20
0.134497
 30
0.144936
 70
   192
  0
VERTEX
  8
Body
 10
0.070089
 20
-0.137589
 30
0.141917
 70
   192
  0
VERTEX
  8
Body
 10
0.070002
 20
-0.137502
 30
0.142258
 70
   192
  0
VERTEX
  8
Body
 10
0.069883
 20
-0.137383
 30
0.142590
 70
   192
  0
VERTEX
  8
Body
 10
0.069735
 20
-0.137235
 30
0.142910
 70
   192
  0
VERTEX
  8
Body
 10
0.069559
 20
-0.137059
 30
0.143215
 70
   192
  0
VERTEX
  8
Body
 10
0.069355
 20
-0.136855
 30
0.143503
 70
   192
  0
VERTEX
  8
Body
 10
0.069127
 20
-0.136627
 30
0.143771
 70
   192
  0
VERTEX
  8
Body
 10
0.068874
 20
-0.136374
 30
0.144018
 70
   192
  0
VERTEX
  8
Body
 10
0.068308
 20
-0.135808
 30
0.144437
 70
   192
  0
VERTEX
  8
Body
 10
0.067676
 20
-0.135176
 30
0.144746
 70
   192
  0
VERTEX
  8
Body
 10
0.066997
 20
-0.134497
 30
0.144936
 70
   192
  0
VERTEX
  8
Body
 10
-0.036960
 20
0.096682
 30
0.145000
 70
   192
  0
VERTEX
  8
Body
 10
-0.037397
 20
0.098313
 30
0.145000
 70
   192
  0
VERTEX
  8
Body
 10
-0.038110
 20
0.099844
 30
0.145000
 70
   192
  0
VERTEX
  8
Body
 10
-0.039079
 20
0.101227
 30
0.145000
 70
   192
  0
VERTEX
  8
Body
 10
-0.040273
 20
0.102421
 30
0.145000
 70
   192
  0
VERTEX
  8
Body
 10
-0.041656
 20
0.103390
 30
0.145000
 70
   192
  0
VERTEX
  8
Body
 10
-0.043187
 20
0.104103
 30
0.145000
 70
   192
  0
VERTEX
  8
Body
 10
-0.044818
 20
0.104540
 30
0.145000
 70
   192
  0
VERTEX
  8
Body
 10
-0.046500
 20
0.104688
 30
0.145000
 70
   192
  0
VERTEX
  8
Body
 10
-0.048182
 20
0.104540
 30
0.145000
 70
   192
  0
VERTEX
  8
Body
 10
-0.049813
 20
0.104103
 30
0.145000
 70
   192
  0
VERTEX
  8
Body
 10
-0.051344
 20
0.103390
 30
0.145000
 70
   192
  0
VERTEX
  8
Body
 10
-0.052727
 20
0.102421
 30
0.145000
 70
   192
  0
VERTEX
  8
Body
 10
-0.053921
 20
0.101227
 30
0.145000
 70
   192
  0
VERTEX
  8
Body
 10
-0.054890
 20
0.099844
 30
0.145000
 70
   192
  0
VERTEX
  8
Body
 10
-0.055603
 20
0.098313
 30
0.145000
 70
   192
  0
VERTEX
  8
Body
 10
-0.056040
 20
0.096682
 30
0.145000
 70
   192
  0
VERTEX
  8
Body
 10
-0.056188
 20
0.095000
 30
0.145000
 70
   192
  0
VERTEX
  8
Body
 10
-0.056040
 20
0.093318
 30
0.145000
 70
   192
  0
VERTEX
  8
Body
 10
-0.055603
 20
0.091687
 30
0.145000
 70
   192
  0
VERTEX
  8
Body
 10
-0.054890
 20
0.090156
 30
0.145000
 70
   192
  0
VERTEX
  8
Body
 10
-0.053921
 20
0.088773
 30
0.145000
 70
   192
  0
VERTEX
  8
Body
 10
-0.052727
 20
0.087579
 30
0.145000
 70
   192
  0
VERTEX
  8
Body
 10
-0.051344
 20
0.086610
 30
0.145000
 70
   192
  0
VERTEX
  8
Body
 10
-0.049813
 20
0.085897
 30
0.145000
 70
   192
  0
VERTEX
  8
Body
 10
-0.048182
 20
0.085460
 30
0.145000
 70
   192
  0
VERTEX
  8
Body
 10
-0.046500
 20
0.085312
 30
0.145000
 70
   192
  0
VERTEX
  8
Body
 10
-0.044818
 20
0.085460
 30
0.145000
 70
   192
  0
VERTEX
  8
Body
 10
-0.043187
 20
0.085897
 30
0.145000
 70
   192
  0
VERTEX
  8
Body
 10
-0.041656
 20
0.086610
 30
0.145000
 70
   192
  0
VERTEX
  8
Body
 10
-0.040273
 20
0.087579
 30
0.145000
 70
   192
  0
VERTEX
  8
Body
 10
-0.039079
 20
0.088773
 30
0.145000
 70
   192
  0
VERTEX
  8
Body
 10
-0.038110
 20
0.090156
 30
0.145000
 70
   192
  0
VERTEX
  8
Body
 10
-0.037397
 20
0.091687
 30
0.145000
 70
   192
  0
VERTEX
  8
Body
 10
-0.036960
 20
0.093318
 30
0.145000
 70
   192
  0
VERTEX
  8
Body
 10
0.066997
 20
0.134497
 30
0.144936
 70
   192
  0
VERTEX
  8
Body
 10
0.067676
 20
0.135176
 30
0.144746
 70
   192
  0
VERTEX
  8
Body
 10
0.068308
 20
0.135808
 30
0.144437
 70
   192
  0
VERTEX
  8
Body
 10
0.068874
 20
0.136374
 30
0.144018
 70
   192
  0
VERTEX
  8
Body
 10
0.069127
 20
0.136627
 30
0.143771
 70
   192
  0
VERTEX
  8
Body
 10
0.069355
 20
0.136855
 30
0.143503
 70
   192
  0
VERTEX
  8
Body
 10
0.069559
 20
0.137059
 30
0.143215
 70
   192
  0
VERTEX
  8
Body
 10
0.069735
 20
0.137235
 30
0.142910
 70
   192
  0
VERTEX
  8
Body
 10
0.069883
 20
0.137383
 30
0.142590
 70
   192
  0
VERTEX
  8
Body
 10
0.070002
 20
0.137502
 30
0.142258
 70
   192
  0
VERTEX
  8
Body
 10
0.070089
 20
0.137589
 30
0.141917
 70
   192
  0
VERTEX
  8
Body
 10
-0.036960
 20
0.096682
 30
0.130500
 70
   192
  0
VERTEX
  8
Body
 10
-0.037397
 20
0.098313
 30
0.130500
 70
   192
  0
VERTEX
  8
Body
 10
-0.038110
 20
0.099844
 30
0.130500
 70
   192
  0
VERTEX
  8
Body
 10
-0.039079
 20
0.101227
 30
0.130500
 70
   192
  0
VERTEX
  8
Body
 10
-0.040273
 20
0.102421
 30
0.130500
 70
   192
  0
VERTEX
  8
Body
 10
-0.041656
 20
0.103390
 30
0.130500
 70
   192
  0
VERTEX
  8
Body
 10
-0.043187
 20
0.104103
 30
0.130500
 70
   192
  0
VERTEX
  8
Body
 10
-0.044818
 20
0.104540
 30
0.130500
 70
   192
  0
VERTEX
  8
Body
 10
-0.046500
 20
0.104688
 30
0.130500
 70
   192
  0
VERTEX
  8
Body
 10
-0.048182
 20
0.104540
 30
0.130500
 70
   192
  0
VERTEX
  8
Body
 10
-0.049813
 20
0.104103
 30
0.130500
 70
   192
  0
VERTEX
  8
Body
 10
-0.051344
 20
0.103390
 30
0.130500
 70
   192
  0
VERTEX
  8
Body
 10
-0.052727
 20
0.102421
 30
0.130500
 70
   192
  0
VERTEX
  8
Body
 10
-0.053921
 20
0.101227
 30
0.130500
 70
   192
  0
VERTEX
  8
Body
 10
-0.054890
 20
0.099844
 30
0.130500
 70
   192
  0
VERTEX
  8
Body
 10
-0.055603
 20
0.098313
 30
0.130500
 70
   192
  0
VERTEX
  8
Body
 10
-0.056040
 20
0.096682
 30
0.130500
 70
   192
  0
VERTEX
  8
Body
 10
-0.056188
 20
0.095000
 30
0.130500
 70
   192
  0
VERTEX
  8
Body
 10
-0.056040
 20
0.093318
 30
0.130500
 70
   192
  0
VERTEX
  8
Body
 10
-0.055603
 20
0.091687
 30
0.130500
 70
   192
  0
VERTEX
  8
Body
 10
-0.054890
 20
0.090156
 30
0.130500
 70
   192
  0
VERTEX
  8
Body
 10
-0.053921
 20
0.088773
 30
0.130500
 70
   192
  0
VERTEX
  8
Body
 10
-0.052727
 20
0.087579
 30
0.130500
 70
   192
  0
VERTEX
  8
Body
 10
-0.051344
 20
0.086610
 30
0.130500
 70
   192
  0
VERTEX
  8
Body
 10
-0.049813
 20
0.085897
 30
0.130500
 70
   192
  0
VERTEX
  8
Body
 10
-0.048182
 20
0.085460
 30
0.130500
 70
   192
  0
VERTEX
  8
Body
 10
-0.046500
 20
0.085312
 30
0.130500
 70
   192
  0
VERTEX
  8
Body
 10
-0.044818
 20
0.085460
 30
0.130500
 70
   192
  0
VERTEX
  8
Body
 10
-0.043187
 20
0.085897
 30
0.130500
 70
   192
  0
VERTEX
  8
Body
 10
-0.041656
 20
0.086610
 30
0.130500
 70
   192
  0
VERTEX
  8
Body
 10
-0.040273
 20
0.087579
 30
0.130500
 70
   192
  0
VERTEX
  8
Body
 10
-0.039079
 20
0.088773
 30
0.130500
 70
   192
  0
VERTEX
  8
Body
 10
-0.038110
 20
0.090156
 30
0.130500
 70
   192
  0
VERTEX
  8
Body
 10
-0.037397
 20
0.091687
 30
0.130500
 70
   192
  0
VERTEX
  8
Body
 10
-0.036960
 20
0.093318
 30
0.130500
 70
   192
  0
VERTEX
  8
Body
 62
   250
 10
0.0
 20
0.0
 30
0.0
 70
   128
 71
   1
 72
   2
 73
   3
  0
VERTEX
  8
Body
 62
   250
 10
0.0
 20
0.0
 30
0.0
 70
   128
 71
   3
 72
   2
 73
   4
  0
VERTEX
  8
Body
 62
   250
 10
0.0
 20
0.0
 30
0.0
 70
   128
 71
   2
 72
   1
 73
   5
  0
VERTEX
  8
Body
 62
   250
 10
0.0
 20
0.0
 30
0.0
 70
   128
 71
   6
 72
   2
 73
   5
  0
VERTEX
  8
Body
 62
   250
 10
0.0
 20
0.0
 30
0.0
 70
   128
 71
   4
 72
   2
 73
   27
  0
VERTEX
  8
Body
 62
   250
 10
0.0
 20
0.0
 30
0.0
 70
   128
 71
   27
 72
   2
 73
   38
  0
VERTEX
  8
Body
 62
   250
 10
0.0
 20
0.0
 30
0.0
 70
   128
 71
   28
 72
   27
 73
   39
  0
VERTEX
  8
Body
 62
   250
 10
0.0
 20
0.0
 30
0.0
 70
   128
 71
   29
 72
   28
 73
   40
  0
VERTEX
  8
Body
 62
   250
 10
0.0
 20
0.0
 30
0.0
 70
   128
 71
   30
 72
   29
 73
   41
  0
VERTEX
  8
Body
 62
   250
 10
0.0
 20
0.0
 30
0.0
 70
   128
 71
   31
 72
   30
 73
   42
  0
VERTEX
  8
Body
 62
   250
 10
0.0
 20
0.0
 30
0.0
 70
   128
 71
   32
 72
   31
 73
   43
  0
VERTEX
  8
Body
 62
   250
 10
0.0
 20
0.0
 30
0.0
 70
   128
 71
   33
 72
   32
 73
   44
  0
VERTEX
  8
Body
 62
   250
 10
0.0
 20
0.0
 30
0.0
 70
   128
 71
   34
 72
   33
 73
   45
  0
VERTEX
  8
Body
 62
   250
 10
0.0
 20
0.0
 30
0.0
 70
   128
 71
   35
 72
   34
 73
   46
  0
VERTEX
  8
Body
 62
   250
 10
0.0
 20
0.0
 30
0.0
 70
   128
 71
   36
 72
   35
 73
   47
  0
VERTEX
  8
Body
 62
   250
 10
0.0
 20
0.0
 30
0.0
 70
   128
 71
   37
 72
   36
 73
   48
  0
VERTEX
  8
Body
 62
   250
 10
0.0
 20
0.0
 30
0.0
 70
   128
 71
   7
 72
   37
 73
   8
  0
VERTEX
  8
Body
 62
   250
 10
0.0
 20
0.0
 30
0.0
 70
   128
 71
   8
 72
   37
 73
   48
  0
VERTEX
  8
Body
 62
   250
 10
0.0
 20
0.0
 30
0.0
 70
   128
 71
   48
 72
   36
 73
   47
  0
VERTEX
  8
Body
 62
   250
 10
0.0
 20
0.0
 30
0.0
 70
   128
 71
   47
 72
   35
 73
   46
  0
VERTEX
  8
Body
 62
   250
 10
0.0
 20
0.0
 30
0.0
 70
   128
 71
   46
 72
   34
 73
   45
  0
VERTEX
  8
Body
 62
   250
 10
0.0
 20
0.0
 30
0.0
 70
   128
 71
   45
 72
   33
 73
   44
  0
VERTEX
  8
Body
 62
   250
 10
0.0
 20
0.0
 30
0.0
 70
   128
 71
   44
 72
   32
 73
   43
  0
VERTEX
  8
Body
 62
   250
 10
0.0
 20
0.0
 30
0.0
 70
   128
 71
   43
 72
   31
 73
   42
  0
VERTEX
  8
Body
 62
   250
 10
0.0
 20
0.0
 30
0.0
 70
   128
 71
   42
 72
   30
 73
   41
  0
VERTEX
  8
Body
 62
   250
 10
0.0
 20
0.0
 30
0.0
 70
   128
 71
   41
 72
   29
 73
   40
  0
VERTEX
  8
Body
 62
   250
 10
0.0
 20
0.0
 30
0.0
 70
   128
 71
   40
 72
   28
 73
   39
  0
VERTEX
  8
Body
 62
   250
 10
0.0
 20
0.0
 30
0.0
 70
   128
 71
   39
 72
   27
 73
   38
  0
VERTEX
  8
Body
 62
   250
 10
0.0
 20
0.0
 30
0.0
 70
   128
 71
   3
 72
   9
 73
   1
  0
VERTEX
  8
Body
 62
   250
 10
0.0
 20
0.0
 30
0.0
 70
   128
 71
   9
 72
   3
 73
   10
  0
VERTEX
  8
Body
 62
   250
 10
0.0
 20
0.0
 30
0.0
 70
   128
 71
   3
 72
   4
 73
   11
  0
VERTEX
  8
Body
 62
   250
 10
0.0
 20
0.0
 30
0.0
 70
   128
 71
   4
 72
   12
 73
   11
  0
VERTEX
  8
Body
 62
   250
 10
0.0
 20
0.0
 30
0.0
 70
   128
 71
   38
 72
   2
 73
   49
  0
VERTEX
  8
Body
 62
   250
 10
0.0
 20
0.0
 30
0.0
 70
   128
 71
   39
 72
   38
 73
   50
  0
VERTEX
  8
Body
 62
   250
 10
0.0
 20
0.0
 30
0.0
 70
   128
 71
   40
 72
   39
 73
   51
  0
VERTEX
  8
Body
 62
   250
 10
0.0
 20
0.0
 30
0.0
 70
   128
 71
   41
 72
   40
 73
   52
  0
VERTEX
  8
Body
 62
   250
 10
0.0
 20
0.0
 30
0.0
 70
   128
 71
   42
 72
   41
 73
   53
  0
VERTEX
  8
Body
 62
   250
 10
0.0
 20
0.0
 30
0.0
 70
   128
 71
   43
 72
   42
 73
   54
  0
VERTEX
  8
Body
 62
   250
 10
0.0
 20
0.0
 30
0.0
 70
   128
 71
   44
 72
   43
 73
   55
  0
VERTEX
  8
Body
 62
   250
 10
0.0
 20
0.0
 30
0.0
 70
   128
 71
   45
 72
   44
 73
   56
  0
VERTEX
  8
Body
 62
   250
 10
0.0
 20
0.0
 30
0.0
 70
   128
 71
   46
 72
   45
 73
   57
  0
VERTEX
  8
Body
 62
   250
 10
0.0
 20
0.0
 30
0.0
 70
   128
 71
   47
 72
   46
 73
   58
  0
VERTEX
  8
Body
 62
   250
 10
0.0
 20
0.0
 30
0.0
 70
   128
 71
   48
 72
   47
 73
   59
  0
VERTEX
  8
Body
 62
   250
 10
0.0
 20
0.0
 30
0.0
 70
   128
 71
   8
 72
   48
 73
   13
  0
VERTEX
  8
Body
 62
   250
 10
0.0
 20
0.0
 30
0.0
 70
   128
 71
   13
 72
   48
 73
   59
  0
VERTEX
  8
Body
 62
   250
 10
0.0
 20
0.0
 30
0.0
 70
   128
 71
   59
 72
   47
 73
   58
  0
VERTEX
  8
Body
 62
   250
 10
0.0
 20
0.0
 30
0.0
 70
   128
 71
   58
 72
   46
 73
   57
  0
VERTEX
  8
Body
 62
   250
 10
0.0
 20
0.0
 30
0.0
 70
   128
 71
   57
 72
   45
 73
   56
  0
VERTEX
  8
Body
 62
   250
 10
0.0
 20
0.0
 30
0.0
 70
   128
 71
   56
 72
   44
 73
   55
  0
VERTEX
  8
Body
 62
   250
 10
0.0
 20
0.0
 30
0.0
 70
   128
 71
   55
 72
   43
 73
   54
  0
VERTEX
  8
Body
 62
   250
 10
0.0
 20
0.0
 30
0.0
 70
   128
 71
   54
 72
   42
 73
   53
  0
VERTEX
  8
Body
 62
   250
 10
0.0
 20
0.0
 30
0.0
 70
   128
 71
   53
 72
   41
 73
   52
  0
VERTEX
  8
Body
 62
   250
 10
0.0
 20
0.0
 30
0.0
 70
   128
 71
   52
 72
   40
 73
   51
  0
VERTEX
  8
Body
 62
   250
 10
0.0
 20
0.0
 30
0.0
 70
   128
 71
   51
 72
   39
 73
   50
  0
VERTEX
  8
Body
 62
   250
 10
0.0
 20
0.0
 30
0.0
 70
   128
 71
   50
 72
   38
 73
   49
  0
VERTEX
  8
Body
 62
   250
 10
0.0
 20
0.0
 30
0.0
 70
   128
 71
   49
 72
   2
 73
   6
  0
VERTEX
  8
Body
 62
   250
 10
0.0
 20
0.0
 30
0.0
 70
   128
 71
   1
 72
   14
 73
   5
  0
VERTEX
  8
Body
 62
   250
 10
0.0
 20
0.0
 30
0.0
 70
   128
 71
   14
 72
   1
 73
   9
  0
VERTEX
  8
Body
 62
   250
 10
0.0
 20
0.0
 30
0.0
 70
   128
 71
   6
 72
   5
 73
   11
  0
VERTEX
  8
Body
 62
   250
 10
0.0
 20
0.0
 30
0.0
 70
   128
 71
   6
 72
   11
 73
   12
  0
VERTEX
  8
Body
 62
   250
 10
0.0
 20
0.0
 30
0.0
 70
   128
 71
   15
 72
   7
 73
   13
  0
VERTEX
  8
Body
 62
   250
 10
0.0
 20
0.0
 30
0.0
 70
   128
 71
   7
 72
   8
 73
   13
  0
VERTEX
  8
Body
 62
   250
 10
0.0
 20
0.0
 30
0.0
 70
   128
 71
   37
 72
   7
 73
   60
  0
VERTEX
  8
Body
 62
   250
 10
0.0
 20
0.0
 30
0.0
 70
   128
 71
   36
 72
   37
 73
   61
  0
VERTEX
  8
Body
 62
   250
 10
0.0
 20
0.0
 30
0.0
 70
   128
 71
   35
 72
   36
 73
   62
  0
VERTEX
  8
Body
 62
   250
 10
0.0
 20
0.0
 30
0.0
 70
   128
 71
   34
 72
   35
 73
   63
  0
VERTEX
  8
Body
 62
   250
 10
0.0
 20
0.0
 30
0.0
 70
   128
 71
   33
 72
   34
 73
   64
  0
VERTEX
  8
Body
 62
   250
 10
0.0
 20
0.0
 30
0.0
 70
   128
 71
   32
 72
   33
 73
   65
  0
VERTEX
  8
Body
 62
   250
 10
0.0
 20
0.0
 30
0.0
 70
   128
 71
   31
 72
   32
 73
   66
  0
VERTEX
  8
Body
 62
   250
 10
0.0
 20
0.0
 30
0.0
 70
   128
 71
   30
 72
   31
 73
   67
  0
VERTEX
  8
Body
 62
   250
 10
0.0
 20
0.0
 30
0.0
 70
   128
 71
   29
 72
   30
 73
   68
  0
VERTEX
  8
Body
 62
   250
 10
0.0
 20
0.0
 30
0.0
 70
   128
 71
   28
 72
   29
 73
   69
  0
VERTEX
  8
Body
 62
   250
 10
0.0
 20
0.0
 30
0.0
 70
   128
 71
   27
 72
   28
 73
   70
  0
VERTEX
  8
Body
 62
   250
 10
0.0
 20
0.0
 30
0.0
 70
   128
 71
   4
 72
   27
 73
   12
  0
VERTEX
  8
Body
 62
   250
 10
0.0
 20
0.0
 30
0.0
 70
   128
 71
   12
 72
   27
 73
   70
  0
VERTEX
  8
Body
 62
   250
 10
0.0
 20
0.0
 30
0.0
 70
   128
 71
   70
 72
   28
 73
   69
  0
VERTEX
  8
Body
 62
   250
 10
0.0
 20
0.0
 30
0.0
 70
   128
 71
   69
 72
   29
 73
   68
  0
VERTEX
  8
Body
 62
   250
 10
0.0
 20
0.0
 30
0.0
 70
   128
 71
   68
 72
   30
 73
   67
  0
VERTEX
  8
Body
 62
   250
 10
0.0
 20
0.0
 30
0.0
 70
   128
 71
   67
 72
   31
 73
   66
  0
VERTEX
  8
Body
 62
   250
 10
0.0
 20
0.0
 30
0.0
 70
   128
 71
   66
 72
   32
 73
   65
  0
VERTEX
  8
Body
 62
   250
 10
0.0
 20
0.0
 30
0.0
 70
   128
 71
   65
 72
   33
 73
   64
  0
VERTEX
  8
Body
 62
   250
 10
0.0
 20
0.0
 30
0.0
 70
   128
 71
   64
 72
   34
 73
   63
  0
VERTEX
  8
Body
 62
   250
 10
0.0
 20
0.0
 30
0.0
 70
   128
 71
   63
 72
   35
 73
   62
  0
VERTEX
  8
Body
 62
   250
 10
0.0
 20
0.0
 30
0.0
 70
   128
 71
   62
 72
   36
 73
   61
  0
VERTEX
  8
Body
 62
   250
 10
0.0
 20
0.0
 30
0.0
 70
   128
 71
   61
 72
   37
 73
   60
  0
VERTEX
  8
Body
 62
   250
 10
0.0
 20
0.0
 30
0.0
 70
   128
 71
   60
 72
   7
 73
   15
  0
VERTEX
  8
Body
 62
   250
 10
0.0
 20
0.0
 30
0.0
 70
   128
 71
   16
 72
   9
 73
   10
  0
VERTEX
  8
Body
 62
   250
 10
0.0
 20
0.0
 30
0.0
 70
   128
 71
   16
 72
   10
 73
   17
  0
VERTEX
  8
Body
 62
   250
 10
0.0
 20
0.0
 30
0.0
 70
   128
 71
   18
 72
   3
 73
   11
  0
VERTEX
  8
Body
 62
   250
 10
0.0
 20
0.0
 30
0.0
 70
   128
 71
   3
 72
   18
 73
   10
  0
VERTEX
  8
Body
 62
   250
 10
0.0
 20
0.0
 30
0.0
 70
   128
 71
   15
 72
   13
 73
   60
  0
VERTEX
  8
Body
 62
   250
 10
0.0
 20
0.0
 30
0.0
 70
   128
 71
   60
 72
   13
 73
   59
  0
VERTEX
  8
Body
 62
   250
 10
0.0
 20
0.0
 30
0.0
 70
   128
 71
   61
 72
   60
 73
   58
  0
VERTEX
  8
Body
 62
   250
 10
0.0
 20
0.0
 30
0.0
 70
   128
 71
   62
 72
   61
 73
   57
  0
VERTEX
  8
Body
 62
   250
 10
0.0
 20
0.0
 30
0.0
 70
   128
 71
   63
 72
   62
 73
   56
  0
VERTEX
  8
Body
 62
   250
 10
0.0
 20
0.0
 30
0.0
 70
   128
 71
   64
 72
   63
 73
   55
  0
VERTEX
  8
Body
 62
   250
 10
0.0
 20
0.0
 30
0.0
 70
   128
 71
   65
 72
   64
 73
   54
  0
VERTEX
  8
Body
 62
   250
 10
0.0
 20
0.0
 30
0.0
 70
   128
 71
   66
 72
   65
 73
   53
  0
VERTEX
  8
Body
 62
   250
 10
0.0
 20
0.0
 30
0.0
 70
   128
 71
   67
 72
   66
 73
   52
  0
VERTEX
  8
Body
 62
   250
 10
0.0
 20
0.0
 30
0.0
 70
   128
 71
   68
 72
   67
 73
   51
  0
VERTEX
  8
Body
 62
   250
 10
0.0
 20
0.0
 30
0.0
 70
   128
 71
   69
 72
   68
 73
   50
  0
VERTEX
  8
Body
 62
   250
 10
0.0
 20
0.0
 30
0.0
 70
   128
 71
   70
 72
   69
 73
   49
  0
VERTEX
  8
Body
 62
   250
 10
0.0
 20
0.0
 30
0.0
 70
   128
 71
   12
 72
   70
 73
   6
  0
VERTEX
  8
Body
 62
   250
 10
0.0
 20
0.0
 30
0.0
 70
   128
 71
   6
 72
   70
 73
   49
  0
VERTEX
  8
Body
 62
   250
 10
0.0
 20
0.0
 30
0.0
 70
   128
 71
   49
 72
   69
 73
   50
  0
VERTEX
  8
Body
 62
   250
 10
0.0
 20
0.0
 30
0.0
 70
   128
 71
   50
 72
   68
 73
   51
  0
VERTEX
  8
Body
 62
   250
 10
0.0
 20
0.0
 30
0.0
 70
   128
 71
   51
 72
   67
 73
   52
  0
VERTEX
  8
Body
 62
   250
 10
0.0
 20
0.0
 30
0.0
 70
   128
 71
   52
 72
   66
 73
   53
  0
VERTEX
  8
Body
 62
   250
 10
0.0
 20
0.0
 30
0.0
 70
   128
 71
   53
 72
   65
 73
   54
  0
VERTEX
  8
Body
 62
   250
 10
0.0
 20
0.0
 30
0.0
 70
   128
 71
   54
 72
   64
 73
   55
  0
VERTEX
  8
Body
 62
   250
 10
0.0
 20
0.0
 30
0.0
 70
   128
 71
   55
 72
   63
 73
   56
  0
VERTEX
  8
Body
 62
   250
 10
0.0
 20
0.0
 30
0.0
 70
   128
 71
   56
 72
   62
 73
   57
  0
VERTEX
  8
Body
 62
   250
 10
0.0
 20
0.0
 30
0.0
 70
   128
 71
   57
 72
   61
 73
   58
  0
VERTEX
  8
Body
 62
   250
 10
0.0
 20
0.0
 30
0.0
 70
   128
 71
   58
 72
   60
 73
   59
  0
VERTEX
  8
Body
 62
   250
 10
0.0
 20
0.0
 30
0.0
 70
   128
 71
   14
 72
   11
 73
   5
  0
VERTEX
  8
Body
 62
   250
 10
0.0
 20
0.0
 30
0.0
 70
   128
 71
   11
 72
   14
 73
   18
  0
VERTEX
  8
Body
 62
   250
 10
0.0
 20
0.0
 30
0.0
 70
   128
 71
   9
 72
   16
 73
   14
  0
VERTEX
  8
Body
 62
   250
 10
0.0
 20
0.0
 30
0.0
 70
   128
 71
   16
 72
   19
 73
   14
  0
VERTEX
  8
Body
 62
   250
 10
0.0
 20
0.0
 30
0.0
 70
   128
 71
   71
 72
   16
 73
   82
  0
VERTEX
  8
Body
 62
   250
 10
0.0
 20
0.0
 30
0.0
 70
   128
 71
   72
 72
   71
 73
   83
  0
VERTEX
  8
Body
 62
   250
 10
0.0
 20
0.0
 30
0.0
 70
   128
 71
   73
 72
   72
 73
   84
  0
VERTEX
  8
Body
 62
   250
 10
0.0
 20
0.0
 30
0.0
 70
   128
 71
   74
 72
   73
 73
   85
  0
VERTEX
  8
Body
 62
   250
 10
0.0
 20
0.0
 30
0.0
 70
   128
 71
   75
 72
   74
 73
   86
  0
VERTEX
  8
Body
 62
   250
 10
0.0
 20
0.0
 30
0.0
 70
   128
 71
   76
 72
   75
 73
   87
  0
VERTEX
  8
Body
 62
   250
 10
0.0
 20
0.0
 30
0.0
 70
   128
 71
   77
 72
   76
 73
   88
  0
VERTEX
  8
Body
 62
   250
 10
0.0
 20
0.0
 30
0.0
 70
   128
 71
   78
 72
   77
 73
   89
  0
VERTEX
  8
Body
 62
   250
 10
0.0
 20
0.0
 30
0.0
 70
   128
 71
   79
 72
   78
 73
   90
  0
VERTEX
  8
Body
 62
   250
 10
0.0
 20
0.0
 30
0.0
 70
   128
 71
   80
 72
   79
 73
   91
  0
VERTEX
  8
Body
 62
   250
 10
0.0
 20
0.0
 30
0.0
 70
   128
 71
   81
 72
   80
 73
   92
  0
VERTEX
  8
Body
 62
   250
 10
0.0
 20
0.0
 30
0.0
 70
   128
 71
   20
 72
   81
 73
   21
  0
VERTEX
  8
Body
 62
   250
 10
0.0
 20
0.0
 30
0.0
 70
   128
 71
   21
 72
   81
 73
   92
  0
VERTEX
  8
Body
 62
   250
 10
0.0
 20
0.0
 30
0.0
 70
   128
 71
   92
 72
   80
 73
   91
  0
VERTEX
  8
Body
 62
   250
 10
0.0
 20
0.0
 30
0.0
 70
   128
 71
   91
 72
   79
 73
   90
  0
VERTEX
  8
Body
 62
   250
 10
0.0
 20
0.0
 30
0.0
 70
   128
 71
   90
 72
   78
 73
   89
  0
VERTEX
  8
Body
 62
   250
 10
0.0
 20
0.0
 30
0.0
 70
   128
 71
   89
 72
   77
 73
   88
  0
VERTEX
  8
Body
 62
   250
 10
0.0
 20
0.0
 30
0.0
 70
   128
 71
   88
 72
   76
 73
   87
  0
VERTEX
  8
Body
 62
   250
 10
0.0
 20
0.0
 30
0.0
 70
   128
 71
   87
 72
   75
 73
   86
  0
VERTEX
  8
Body
 62
   250
 10
0.0
 20
0.0
 30
0.0
 70
   128
 71
   86
 72
   74
 73
   85
  0
VERTEX
  8
Body
 62
   250
 10
0.0
 20
0.0
 30
0.0
 70
   128
 71
   85
 72
   73
 73
   84
  0
VERTEX
  8
Body
 62
   250
 10
0.0
 20
0.0
 30
0.0
 70
   128
 71
   84
 72
   72
 73
   83
  0
VERTEX
  8
Body
 62
   250
 10
0.0
 20
0.0
 30
0.0
 70
   128
 71
   83
 72
   71
 73
   82
  0
VERTEX
  8
Body
 62
   250
 10
0.0
 20
0.0
 30
0.0
 70
   128
 71
   82
 72
   16
 73
   17
  0
VERTEX
  8
Body
 62
   250
 10
0.0
 20
0.0
 30
0.0
 70
   128
 71
   17
 72
   10
 73
   18
  0
VERTEX
  8
Body
 62
   250
 10
0.0
 20
0.0
 30
0.0
 70
   128
 71
   22
 72
   17
 73
   18
  0
VERTEX
  8
Body
 62
   250
 10
0.0
 20
0.0
 30
0.0
 70
   128
 71
   14
 72
   19
 73
   18
  0
VERTEX
  8
Body
 62
   250
 10
0.0
 20
0.0
 30
0.0
 70
   128
 71
   18
 72
   19
 73
   22
  0
VERTEX
  8
Body
 62
   250
 10
0.0
 20
0.0
 30
0.0
 70
   128
 71
   19
 72
   16
 73
   93
  0
VERTEX
  8
Body
 62
   250
 10
0.0
 20
0.0
 30
0.0
 70
   128
 71
   93
 72
   16
 73
   71
  0
VERTEX
  8
Body
 62
   250
 10
0.0
 20
0.0
 30
0.0
 70
   128
 71
   94
 72
   93
 73
   72
  0
VERTEX
  8
Body
 62
   250
 10
0.0
 20
0.0
 30
0.0
 70
   128
 71
   95
 72
   94
 73
   73
  0
VERTEX
  8
Body
 62
   250
 10
0.0
 20
0.0
 30
0.0
 70
   128
 71
   96
 72
   95
 73
   74
  0
VERTEX
  8
Body
 62
   250
 10
0.0
 20
0.0
 30
0.0
 70
   128
 71
   97
 72
   96
 73
   75
  0
VERTEX
  8
Body
 62
   250
 10
0.0
 20
0.0
 30
0.0
 70
   128
 71
   98
 72
   97
 73
   76
  0
VERTEX
  8
Body
 62
   250
 10
0.0
 20
0.0
 30
0.0
 70
   128
 71
   99
 72
   98
 73
   77
  0
VERTEX
  8
Body
 62
   250
 10
0.0
 20
0.0
 30
0.0
 70
   128
 71
   100
 72
   99
 73
   78
  0
VERTEX
  8
Body
 62
   250
 10
0.0
 20
0.0
 30
0.0
 70
   128
 71
   101
 72
   100
 73
   79
  0
VERTEX
  8
Body
 62
   250
 10
0.0
 20
0.0
 30
0.0
 70
   128
 71
   102
 72
   101
 73
   80
  0
VERTEX
  8
Body
 62
   250
 10
0.0
 20
0.0
 30
0.0
 70
   128
 71
   103
 72
   102
 73
   81
  0
VERTEX
  8
Body
 62
   250
 10
0.0
 20
0.0
 30
0.0
 70
   128
 71
   23
 72
   103
 73
   20
  0
VERTEX
  8
Body
 62
   250
 10
0.0
 20
0.0
 30
0.0
 70
   128
 71
   20
 72
   103
 73
   81
  0
VERTEX
  8
Body
 62
   250
 10
0.0
 20
0.0
 30
0.0
 70
   128
 71
   81
 72
   102
 73
   80
  0
VERTEX
  8
Body
 62
   250
 10
0.0
 20
0.0
 30
0.0
 70
   128
 71
   80
 72
   101
 73
   79
  0
VERTEX
  8
Body
 62
   250
 10
0.0
 20
0.0
 30
0.0
 70
   128
 71
   79
 72
   100
 73
   78
  0
VERTEX
  8
Body
 62
   250
 10
0.0
 20
0.0
 30
0.0
 70
   128
 71
   78
 72
   99
 73
   77
  0
VERTEX
  8
Body
 62
   250
 10
0.0
 20
0.0
 30
0.0
 70
   128
 71
   77
 72
   98
 73
   76
  0
VERTEX
  8
Body
 62
   250
 10
0.0
 20
0.0
 30
0.0
 70
   128
 71
   76
 72
   97
 73
   75
  0
VERTEX
  8
Body
 62
   250
 10
0.0
 20
0.0
 30
0.0
 70
   128
 71
   75
 72
   96
 73
   74
  0
VERTEX
  8
Body
 62
   250
 10
0.0
 20
0.0
 30
0.0
 70
   128
 71
   74
 72
   95
 73
   73
  0
VERTEX
  8
Body
 62
   250
 10
0.0
 20
0.0
 30
0.0
 70
   128
 71
   73
 72
   94
 73
   72
  0
VERTEX
  8
Body
 62
   250
 10
0.0
 20
0.0
 30
0.0
 70
   128
 71
   72
 72
   93
 73
   71
  0
VERTEX
  8
Body
 62
   250
 10
0.0
 20
0.0
 30
0.0
 70
   128
 71
   24
 72
   23
 73
   135
  0
VERTEX
  8
Body
 62
   250
 10
0.0
 20
0.0
 30
0.0
 70
   128
 71
   23
 72
   20
 73
   132
  0
VERTEX
  8
Body
 62
   250
 10
0.0
 20
0.0
 30
0.0
 70
   128
 71
   25
 72
   24
 73
   138
  0
VERTEX
  8
Body
 62
   250
 10
0.0
 20
0.0
 30
0.0
 70
   128
 71
   138
 72
   24
 73
   137
  0
VERTEX
  8
Body
 62
   250
 10
0.0
 20
0.0
 30
0.0
 70
   128
 71
   137
 72
   24
 73
   136
  0
VERTEX
  8
Body
 62
   250
 10
0.0
 20
0.0
 30
0.0
 70
   128
 71
   136
 72
   24
 73
   135
  0
VERTEX
  8
Body
 62
   250
 10
0.0
 20
0.0
 30
0.0
 70
   128
 71
   135
 72
   23
 73
   134
  0
VERTEX
  8
Body
 62
   250
 10
0.0
 20
0.0
 30
0.0
 70
   128
 71
   134
 72
   23
 73
   133
  0
VERTEX
  8
Body
 62
   250
 10
0.0
 20
0.0
 30
0.0
 70
   128
 71
   133
 72
   23
 73
   132
  0
VERTEX
  8
Body
 62
   250
 10
0.0
 20
0.0
 30
0.0
 70
   128
 71
   132
 72
   20
 73
   131
  0
VERTEX
  8
Body
 62
   250
 10
0.0
 20
0.0
 30
0.0
 70
   128
 71
   131
 72
   20
 73
   130
  0
VERTEX
  8
Body
 62
   250
 10
0.0
 20
0.0
 30
0.0
 70
   128
 71
   130
 72
   20
 73
   129
  0
VERTEX
  8
Body
 62
   250
 10
0.0
 20
0.0
 30
0.0
 70
   128
 71
   129
 72
   20
 73
   128
  0
VERTEX
  8
Body
 62
   250
 10
0.0
 20
0.0
 30
0.0
 70
   128
 71
   128
 72
   20
 73
   127
  0
VERTEX
  8
Body
 62
   250
 10
0.0
 20
0.0
 30
0.0
 70
   128
 71
   127
 72
   20
 73
   126
  0
VERTEX
  8
Body
 62
   250
 10
0.0
 20
0.0
 30
0.0
 70
   128
 71
   126
 72
   20
 73
   125
  0
VERTEX
  8
Body
 62
   250
 10
0.0
 20
0.0
 30
0.0
 70
   128
 71
   125
 72
   20
 73
   124
  0
VERTEX
  8
Body
 62
   250
 10
0.0
 20
0.0
 30
0.0
 70
   128
 71
   124
 72
   20
 73
   123
  0
VERTEX
  8
Body
 62
   250
 10
0.0
 20
0.0
 30
0.0
 70
   128
 71
   20
 72
   21
 73
   122
  0
VERTEX
  8
Body
 62
   250
 10
0.0
 20
0.0
 30
0.0
 70
   128
 71
   123
 72
   20
 73
   122
  0
VERTEX
  8
Body
 62
   250
 10
0.0
 20
0.0
 30
0.0
 70
   128
 71
   122
 72
   21
 73
   121
  0
VERTEX
  8
Body
 62
   250
 10
0.0
 20
0.0
 30
0.0
 70
   128
 71
   121
 72
   21
 73
   120
  0
VERTEX
  8
Body
 62
   250
 10
0.0
 20
0.0
 30
0.0
 70
   128
 71
   120
 72
   21
 73
   119
  0
VERTEX
  8
Body
 62
   250
 10
0.0
 20
0.0
 30
0.0
 70
   128
 71
   119
 72
   21
 73
   118
  0
VERTEX
  8
Body
 62
   250
 10
0.0
 20
0.0
 30
0.0
 70
   128
 71
   118
 72
   21
 73
   117
  0
VERTEX
  8
Body
 62
   250
 10
0.0
 20
0.0
 30
0.0
 70
   128
 71
   117
 72
   21
 73
   116
  0
VERTEX
  8
Body
 62
   250
 10
0.0
 20
0.0
 30
0.0
 70
   128
 71
   116
 72
   21
 73
   115
  0
VERTEX
  8
Body
 62
   250
 10
0.0
 20
0.0
 30
0.0
 70
   128
 71
   115
 72
   21
 73
   114
  0
VERTEX
  8
Body
 62
   250
 10
0.0
 20
0.0
 30
0.0
 70
   128
 71
   21
 72
   24
 73
   109
  0
VERTEX
  8
Body
 62
   250
 10
0.0
 20
0.0
 30
0.0
 70
   128
 71
   114
 72
   21
 73
   113
  0
VERTEX
  8
Body
 62
   250
 10
0.0
 20
0.0
 30
0.0
 70
   128
 71
   113
 72
   21
 73
   112
  0
VERTEX
  8
Body
 62
   250
 10
0.0
 20
0.0
 30
0.0
 70
   128
 71
   112
 72
   21
 73
   111
  0
VERTEX
  8
Body
 62
   250
 10
0.0
 20
0.0
 30
0.0
 70
   128
 71
   111
 72
   21
 73
   110
  0
VERTEX
  8
Body
 62
   250
 10
0.0
 20
0.0
 30
0.0
 70
   128
 71
   110
 72
   21
 73
   109
  0
VERTEX
  8
Body
 62
   250
 10
0.0
 20
0.0
 30
0.0
 70
   128
 71
   109
 72
   24
 73
   108
  0
VERTEX
  8
Body
 62
   250
 10
0.0
 20
0.0
 30
0.0
 70
   128
 71
   108
 72
   24
 73
   107
  0
VERTEX
  8
Body
 62
   250
 10
0.0
 20
0.0
 30
0.0
 70
   128
 71
   107
 72
   24
 73
   106
  0
VERTEX
  8
Body
 62
   250
 10
0.0
 20
0.0
 30
0.0
 70
   128
 71
   106
 72
   24
 73
   105
  0
VERTEX
  8
Body
 62
   250
 10
0.0
 20
0.0
 30
0.0
 70
   128
 71
   24
 72
   25
 73
   104
  0
VERTEX
  8
Body
 62
   250
 10
0.0
 20
0.0
 30
0.0
 70
   128
 71
   105
 72
   24
 73
   104
  0
VERTEX
  8
Body
 62
   250
 10
0.0
 20
0.0
 30
0.0
 70
   128
 71
   24
 72
   21
 73
   139
  0
VERTEX
  8
Body
 62
   250
 10
0.0
 20
0.0
 30
0.0
 70
   128
 71
   139
 72
   21
 73
   92
  0
VERTEX
  8
Body
 62
   250
 10
0.0
 20
0.0
 30
0.0
 70
   128
 71
   140
 72
   139
 73
   91
  0
VERTEX
  8
Body
 62
   250
 10
0.0
 20
0.0
 30
0.0
 70
   128
 71
   141
 72
   140
 73
   90
  0
VERTEX
  8
Body
 62
   250
 10
0.0
 20
0.0
 30
0.0
 70
   128
 71
   142
 72
   141
 73
   89
  0
VERTEX
  8
Body
 62
   250
 10
0.0
 20
0.0
 30
0.0
 70
   128
 71
   143
 72
   142
 73
   88
  0
VERTEX
  8
Body
 62
   250
 10
0.0
 20
0.0
 30
0.0
 70
   128
 71
   144
 72
   143
 73
   87
  0
VERTEX
  8
Body
 62
   250
 10
0.0
 20
0.0
 30
0.0
 70
   128
 71
   145
 72
   144
 73
   86
  0
VERTEX
  8
Body
 62
   250
 10
0.0
 20
0.0
 30
0.0
 70
   128
 71
   146
 72
   145
 73
   85
  0
VERTEX
  8
Body
 62
   250
 10
0.0
 20
0.0
 30
0.0
 70
   128
 71
   147
 72
   146
 73
   84
  0
VERTEX
  8
Body
 62
   250
 10
0.0
 20
0.0
 30
0.0
 70
   128
 71
   148
 72
   147
 73
   83
  0
VERTEX
  8
Body
 62
   250
 10
0.0
 20
0.0
 30
0.0
 70
   128
 71
   149
 72
   148
 73
   82
  0
VERTEX
  8
Body
 62
   250
 10
0.0
 20
0.0
 30
0.0
 70
   128
 71
   22
 72
   149
 73
   17
  0
VERTEX
  8
Body
 62
   250
 10
0.0
 20
0.0
 30
0.0
 70
   128
 71
   17
 72
   149
 73
   82
  0
VERTEX
  8
Body
 62
   250
 10
0.0
 20
0.0
 30
0.0
 70
   128
 71
   82
 72
   148
 73
   83
  0
VERTEX
  8
Body
 62
   250
 10
0.0
 20
0.0
 30
0.0
 70
   128
 71
   83
 72
   147
 73
   84
  0
VERTEX
  8
Body
 62
   250
 10
0.0
 20
0.0
 30
0.0
 70
   128
 71
   84
 72
   146
 73
   85
  0
VERTEX
  8
Body
 62
   250
 10
0.0
 20
0.0
 30
0.0
 70
   128
 71
   85
 72
   145
 73
   86
  0
VERTEX
  8
Body
 62
   250
 10
0.0
 20
0.0
 30
0.0
 70
   128
 71
   86
 72
   144
 73
   87
  0
VERTEX
  8
Body
 62
   250
 10
0.0
 20
0.0
 30
0.0
 70
   128
 71
   87
 72
   143
 73
   88
  0
VERTEX
  8
Body
 62
   250
 10
0.0
 20
0.0
 30
0.0
 70
   128
 71
   88
 72
   142
 73
   89
  0
VERTEX
  8
Body
 62
   250
 10
0.0
 20
0.0
 30
0.0
 70
   128
 71
   89
 72
   141
 73
   90
  0
VERTEX
  8
Body
 62
   250
 10
0.0
 20
0.0
 30
0.0
 70
   128
 71
   90
 72
   140
 73
   91
  0
VERTEX
  8
Body
 62
   250
 10
0.0
 20
0.0
 30
0.0
 70
   128
 71
   91
 72
   139
 73
   92
  0
VERTEX
  8
Body
 62
   250
 10
0.0
 20
0.0
 30
0.0
 70
   128
 71
   103
 72
   23
 73
   139
  0
VERTEX
  8
Body
 62
   250
 10
0.0
 20
0.0
 30
0.0
 70
   128
 71
   102
 72
   103
 73
   140
  0
VERTEX
  8
Body
 62
   250
 10
0.0
 20
0.0
 30
0.0
 70
   128
 71
   101
 72
   102
 73
   141
  0
VERTEX
  8
Body
 62
   250
 10
0.0
 20
0.0
 30
0.0
 70
   128
 71
   100
 72
   101
 73
   142
  0
VERTEX
  8
Body
 62
   250
 10
0.0
 20
0.0
 30
0.0
 70
   128
 71
   99
 72
   100
 73
   143
  0
VERTEX
  8
Body
 62
   250
 10
0.0
 20
0.0
 30
0.0
 70
   128
 71
   98
 72
   99
 73
   144
  0
VERTEX
  8
Body
 62
   250
 10
0.0
 20
0.0
 30
0.0
 70
   128
 71
   97
 72
   98
 73
   145
  0
VERTEX
  8
Body
 62
   250
 10
0.0
 20
0.0
 30
0.0
 70
   128
 71
   96
 72
   97
 73
   146
  0
VERTEX
  8
Body
 62
   250
 10
0.0
 20
0.0
 30
0.0
 70
   128
 71
   95
 72
   96
 73
   147
  0
VERTEX
  8
Body
 62
   250
 10
0.0
 20
0.0
 30
0.0
 70
   128
 71
   94
 72
   95
 73
   148
  0
VERTEX
  8
Body
 62
   250
 10
0.0
 20
0.0
 30
0.0
 70
   128
 71
   93
 72
   94
 73
   149
  0
VERTEX
  8
Body
 62
   250
 10
0.0
 20
0.0
 30
0.0
 70
   128
 71
   19
 72
   93
 73
   22
  0
VERTEX
  8
Body
 62
   250
 10
0.0
 20
0.0
 30
0.0
 70
   128
 71
   22
 72
   93
 73
   149
  0
VERTEX
  8
Body
 62
   250
 10
0.0
 20
0.0
 30
0.0
 70
   128
 71
   149
 72
   94
 73
   148
  0
VERTEX
  8
Body
 62
   250
 10
0.0
 20
0.0
 30
0.0
 70
   128
 71
   148
 72
   95
 73
   147
  0
VERTEX
  8
Body
 62
   250
 10
0.0
 20
0.0
 30
0.0
 70
   128
 71
   147
 72
   96
 73
   146
  0
VERTEX
  8
Body
 62
   250
 10
0.0
 20
0.0
 30
0.0
 70
   128
 71
   146
 72
   97
 73
   145
  0
VERTEX
  8
Body
 62
   250
 10
0.0
 20
0.0
 30
0.0
 70
   128
 71
   145
 72
   98
 73
   144
  0
VERTEX
  8
Body
 62
   250
 10
0.0
 20
0.0
 30
0.0
 70
   128
 71
   144
 72
   99
 73
   143
  0
VERTEX
  8
Body
 62
   250
 10
0.0
 20
0.0
 30
0.0
 70
   128
 71
   143
 72
   100
 73
   142
  0
VERTEX
  8
Body
 62
   250
 10
0.0
 20
0.0
 30
0.0
 70
   128
 71
   142
 72
   101
 73
   141
  0
VERTEX
  8
Body
 62
   250
 10
0.0
 20
0.0
 30
0.0
 70
   128
 71
   141
 72
   102
 73
   140
  0
VERTEX
  8
Body
 62
   250
 10
0.0
 20
0.0
 30
0.0
 70
   128
 71
   140
 72
   103
 73
   139
  0
VERTEX
  8
Body
 62
   250
 10
0.0
 20
0.0
 30
0.0
 70
   128
 71
   139
 72
   23
 73
   24
  0
VERTEX
  8
Body
 62
   250
 10
0.0
 20
0.0
 30
0.0
 70
   128
 71
   26
 72
   25
 73
   138
  0
VERTEX
  8
Body
 62
   250
 10
0.0
 20
0.0
 30
0.0
 70
   128
 71
   26
 72
   138
 73
   184
  0
VERTEX
  8
Body
 62
   250
 10
0.0
 20
0.0
 30
0.0
 70
   128
 71
   138
 72
   137
 73
   183
  0
VERTEX
  8
Body
 62
   250
 10
0.0
 20
0.0
 30
0.0
 70
   128
 71
   137
 72
   136
 73
   182
  0
VERTEX
  8
Body
 62
   250
 10
0.0
 20
0.0
 30
0.0
 70
   128
 71
   136
 72
   135
 73
   181
  0
VERTEX
  8
Body
 62
   250
 10
0.0
 20
0.0
 30
0.0
 70
   128
 71
   135
 72
   134
 73
   180
  0
VERTEX
  8
Body
 62
   250
 10
0.0
 20
0.0
 30
0.0
 70
   128
 71
   134
 72
   133
 73
   179
  0
VERTEX
  8
Body
 62
   250
 10
0.0
 20
0.0
 30
0.0
 70
   128
 71
   133
 72
   132
 73
   178
  0
VERTEX
  8
Body
 62
   250
 10
0.0
 20
0.0
 30
0.0
 70
   128
 71
   132
 72
   131
 73
   177
  0
VERTEX
  8
Body
 62
   250
 10
0.0
 20
0.0
 30
0.0
 70
   128
 71
   131
 72
   130
 73
   176
  0
VERTEX
  8
Body
 62
   250
 10
0.0
 20
0.0
 30
0.0
 70
   128
 71
   130
 72
   129
 73
   175
  0
VERTEX
  8
Body
 62
   250
 10
0.0
 20
0.0
 30
0.0
 70
   128
 71
   129
 72
   128
 73
   174
  0
VERTEX
  8
Body
 62
   250
 10
0.0
 20
0.0
 30
0.0
 70
   128
 71
   128
 72
   127
 73
   173
  0
VERTEX
  8
Body
 62
   250
 10
0.0
 20
0.0
 30
0.0
 70
   128
 71
   127
 72
   126
 73
   172
  0
VERTEX
  8
Body
 62
   250
 10
0.0
 20
0.0
 30
0.0
 70
   128
 71
   126
 72
   125
 73
   171
  0
VERTEX
  8
Body
 62
   250
 10
0.0
 20
0.0
 30
0.0
 70
   128
 71
   125
 72
   124
 73
   170
  0
VERTEX
  8
Body
 62
   250
 10
0.0
 20
0.0
 30
0.0
 70
   128
 71
   124
 72
   123
 73
   169
  0
VERTEX
  8
Body
 62
   250
 10
0.0
 20
0.0
 30
0.0
 70
   128
 71
   123
 72
   122
 73
   168
  0
VERTEX
  8
Body
 62
   250
 10
0.0
 20
0.0
 30
0.0
 70
   128
 71
   121
 72
   120
 73
   166
  0
VERTEX
  8
Body
 62
   250
 10
0.0
 20
0.0
 30
0.0
 70
   128
 71
   120
 72
   119
 73
   165
  0
VERTEX
  8
Body
 62
   250
 10
0.0
 20
0.0
 30
0.0
 70
   128
 71
   119
 72
   118
 73
   164
  0
VERTEX
  8
Body
 62
   250
 10
0.0
 20
0.0
 30
0.0
 70
   128
 71
   118
 72
   117
 73
   163
  0
VERTEX
  8
Body
 62
   250
 10
0.0
 20
0.0
 30
0.0
 70
   128
 71
   116
 72
   115
 73
   161
  0
VERTEX
  8
Body
 62
   250
 10
0.0
 20
0.0
 30
0.0
 70
   128
 71
   115
 72
   114
 73
   160
  0
VERTEX
  8
Body
 62
   250
 10
0.0
 20
0.0
 30
0.0
 70
   128
 71
   114
 72
   113
 73
   159
  0
VERTEX
  8
Body
 62
   250
 10
0.0
 20
0.0
 30
0.0
 70
   128
 71
   113
 72
   112
 73
   158
  0
VERTEX
  8
Body
 62
   250
 10
0.0
 20
0.0
 30
0.0
 70
   128
 71
   112
 72
   111
 73
   157
  0
VERTEX
  8
Body
 62
   250
 10
0.0
 20
0.0
 30
0.0
 70
   128
 71
   110
 72
   109
 73
   155
  0
VERTEX
  8
Body
 62
   250
 10
0.0
 20
0.0
 30
0.0
 70
   128
 71
   109
 72
   108
 73
   154
  0
VERTEX
  8
Body
 62
   250
 10
0.0
 20
0.0
 30
0.0
 70
   128
 71
   151
 72
   106
 73
   105
  0
VERTEX
  8
Body
 62
   250
 10
0.0
 20
0.0
 30
0.0
 70
   128
 71
   150
 72
   104
 73
   26
  0
VERTEX
  8
Body
 62
   250
 10
0.0
 20
0.0
 30
0.0
 70
   128
 71
   105
 72
   104
 73
   150
  0
VERTEX
  8
Body
 62
   250
 10
0.0
 20
0.0
 30
0.0
 70
   128
 71
   104
 72
   25
 73
   26
  0
VERTEX
  8
Body
 62
   250
 10
0.0
 20
0.0
 30
0.0
 70
   128
 71
   108
 72
   107
 73
   153
  0
VERTEX
  8
Body
 62
   250
 10
0.0
 20
0.0
 30
0.0
 70
   128
 71
   107
 72
   106
 73
   152
  0
VERTEX
  8
Body
 62
   250
 10
0.0
 20
0.0
 30
0.0
 70
   128
 71
   111
 72
   110
 73
   156
  0
VERTEX
  8
Body
 62
   250
 10
0.0
 20
0.0
 30
0.0
 70
   128
 71
   105
 72
   150
 73
   151
  0
VERTEX
  8
Body
 62
   250
 10
0.0
 20
0.0
 30
0.0
 70
   128
 71
   117
 72
   116
 73
   162
  0
VERTEX
  8
Body
 62
   250
 10
0.0
 20
0.0
 30
0.0
 70
   128
 71
   106
 72
   151
 73
   152
  0
VERTEX
  8
Body
 62
   250
 10
0.0
 20
0.0
 30
0.0
 70
   128
 71
   122
 72
   121
 73
   167
  0
VERTEX
  8
Body
 62
   250
 10
0.0
 20
0.0
 30
0.0
 70
   128
 71
   107
 72
   152
 73
   153
  0
VERTEX
  8
Body
 62
   250
 10
0.0
 20
0.0
 30
0.0
 70
   128
 71
   108
 72
   153
 73
   154
  0
VERTEX
  8
Body
 62
   250
 10
0.0
 20
0.0
 30
0.0
 70
   128
 71
   109
 72
   154
 73
   155
  0
VERTEX
  8
Body
 62
   250
 10
0.0
 20
0.0
 30
0.0
 70
   128
 71
   110
 72
   155
 73
   156
  0
VERTEX
  8
Body
 62
   250
 10
0.0
 20
0.0
 30
0.0
 70
   128
 71
   111
 72
   156
 73
   157
  0
VERTEX
  8
Body
 62
   250
 10
0.0
 20
0.0
 30
0.0
 70
   128
 71
   112
 72
   157
 73
   158
  0
VERTEX
  8
Body
 62
   250
 10
0.0
 20
0.0
 30
0.0
 70
   128
 71
   113
 72
   158
 73
   159
  0
VERTEX
  8
Body
 62
   250
 10
0.0
 20
0.0
 30
0.0
 70
   128
 71
   114
 72
   159
 73
   160
  0
VERTEX
  8
Body
 62
   250
 10
0.0
 20
0.0
 30
0.0
 70
   128
 71
   115
 72
   160
 73
   161
  0
VERTEX
  8
Body
 62
   250
 10
0.0
 20
0.0
 30
0.0
 70
   128
 71
   116
 72
   161
 73
   162
  0
VERTEX
  8
Body
 62
   250
 10
0.0
 20
0.0
 30
0.0
 70
   128
 71
   117
 72
   162
 73
   163
  0
VERTEX
  8
Body
 62
   250
 10
0.0
 20
0.0
 30
0.0
 70
   128
 71
   118
 72
   163
 73
   164
  0
VERTEX
  8
Body
 62
   250
 10
0.0
 20
0.0
 30
0.0
 70
   128
 71
   119
 72
   164
 73
   165
  0
VERTEX
  8
Body
 62
   250
 10
0.0
 20
0.0
 30
0.0
 70
   128
 71
   120
 72
   165
 73
   166
  0
VERTEX
  8
Body
 62
   250
 10
0.0
 20
0.0
 30
0.0
 70
   128
 71
   121
 72
   166
 73
   167
  0
VERTEX
  8
Body
 62
   250
 10
0.0
 20
0.0
 30
0.0
 70
   128
 71
   122
 72
   167
 73
   168
  0
VERTEX
  8
Body
 62
   250
 10
0.0
 20
0.0
 30
0.0
 70
   128
 71
   123
 72
   168
 73
   169
  0
VERTEX
  8
Body
 62
   250
 10
0.0
 20
0.0
 30
0.0
 70
   128
 71
   124
 72
   169
 73
   170
  0
VERTEX
  8
Body
 62
   250
 10
0.0
 20
0.0
 30
0.0
 70
   128
 71
   125
 72
   170
 73
   171
  0
VERTEX
  8
Body
 62
   250
 10
0.0
 20
0.0
 30
0.0
 70
   128
 71
   126
 72
   171
 73
   172
  0
VERTEX
  8
Body
 62
   250
 10
0.0
 20
0.0
 30
0.0
 70
   128
 71
   127
 72
   172
 73
   173
  0
VERTEX
  8
Body
 62
   250
 10
0.0
 20
0.0
 30
0.0
 70
   128
 71
   128
 72
   173
 73
   174
  0
VERTEX
  8
Body
 62
   250
 10
0.0
 20
0.0
 30
0.0
 70
   128
 71
   129
 72
   174
 73
   175
  0
VERTEX
  8
Body
 62
   250
 10
0.0
 20
0.0
 30
0.0
 70
   128
 71
   130
 72
   175
 73
   176
  0
VERTEX
  8
Body
 62
   250
 10
0.0
 20
0.0
 30
0.0
 70
   128
 71
   131
 72
   176
 73
   177
  0
VERTEX
  8
Body
 62
   250
 10
0.0
 20
0.0
 30
0.0
 70
   128
 71
   132
 72
   177
 73
   178
  0
VERTEX
  8
Body
 62
   250
 10
0.0
 20
0.0
 30
0.0
 70
   128
 71
   133
 72
   178
 73
   179
  0
VERTEX
  8
Body
 62
   250
 10
0.0
 20
0.0
 30
0.0
 70
   128
 71
   134
 72
   179
 73
   180
  0
VERTEX
  8
Body
 62
   250
 10
0.0
 20
0.0
 30
0.0
 70
   128
 71
   135
 72
   180
 73
   181
  0
VERTEX
  8
Body
 62
   250
 10
0.0
 20
0.0
 30
0.0
 70
   128
 71
   136
 72
   181
 73
   182
  0
VERTEX
  8
Body
 62
   250
 10
0.0
 20
0.0
 30
0.0
 70
   128
 71
   137
 72
   182
 73
   183
  0
VERTEX
  8
Body
 62
   250
 10
0.0
 20
0.0
 30
0.0
 70
   128
 71
   138
 72
   183
 73
   184
  0
VERTEX
  8
Body
 62
   250
 10
0.0
 20
0.0
 30
0.0
 70
   128
 71
   150
 72
   26
 73
   151
  0
VERTEX
  8
Body
 62
   250
 10
0.0
 20
0.0
 30
0.0
 70
   128
 71
   151
 72
   26
 73
   152
  0
VERTEX
  8
Body
 62
   250
 10
0.0
 20
0.0
 30
0.0
 70
   128
 71
   152
 72
   26
 73
   153
  0
VERTEX
  8
Body
 62
   250
 10
0.0
 20
0.0
 30
0.0
 70
   128
 71
   153
 72
   26
 73
   154
  0
VERTEX
  8
Body
 62
   250
 10
0.0
 20
0.0
 30
0.0
 70
   128
 71
   154
 72
   26
 73
   155
  0
VERTEX
  8
Body
 62
   250
 10
0.0
 20
0.0
 30
0.0
 70
   128
 71
   155
 72
   26
 73
   156
  0
VERTEX
  8
Body
 62
   250
 10
0.0
 20
0.0
 30
0.0
 70
   128
 71
   156
 72
   26
 73
   157
  0
VERTEX
  8
Body
 62
   250
 10
0.0
 20
0.0
 30
0.0
 70
   128
 71
   157
 72
   26
 73
   158
  0
VERTEX
  8
Body
 62
   250
 10
0.0
 20
0.0
 30
0.0
 70
   128
 71
   158
 72
   26
 73
   159
  0
VERTEX
  8
Body
 62
   250
 10
0.0
 20
0.0
 30
0.0
 70
   128
 71
   159
 72
   26
 73
   160
  0
VERTEX
  8
Body
 62
   250
 10
0.0
 20
0.0
 30
0.0
 70
   128
 71
   160
 72
   26
 73
   161
  0
VERTEX
  8
Body
 62
   250
 10
0.0
 20
0.0
 30
0.0
 70
   128
 71
   161
 72
   26
 73
   162
  0
VERTEX
  8
Body
 62
   250
 10
0.0
 20
0.0
 30
0.0
 70
   128
 71
   162
 72
   26
 73
   163
  0
VERTEX
  8
Body
 62
   250
 10
0.0
 20
0.0
 30
0.0
 70
   128
 71
   163
 72
   26
 73
   164
  0
VERTEX
  8
Body
 62
   250
 10
0.0
 20
0.0
 30
0.0
 70
   128
 71
   164
 72
   26
 73
   165
  0
VERTEX
  8
Body
 62
   250
 10
0.0
 20
0.0
 30
0.0
 70
   128
 71
   165
 72
   26
 73
   166
  0
VERTEX
  8
Body
 62
   250
 10
0.0
 20
0.0
 30
0.0
 70
   128
 71
   166
 72
   26
 73
   167
  0
VERTEX
  8
Body
 62
   250
 10
0.0
 20
0.0
 30
0.0
 70
   128
 71
   167
 72
   26
 73
   168
  0
VERTEX
  8
Body
 62
   250
 10
0.0
 20
0.0
 30
0.0
 70
   128
 71
   168
 72
   26
 73
   169
  0
VERTEX
  8
Body
 62
   250
 10
0.0
 20
0.0
 30
0.0
 70
   128
 71
   169
 72
   26
 73
   170
  0
VERTEX
  8
Body
 62
   250
 10
0.0
 20
0.0
 30
0.0
 70
   128
 71
   170
 72
   26
 73
   171
  0
VERTEX
  8
Body
 62
   250
 10
0.0
 20
0.0
 30
0.0
 70
   128
 71
   171
 72
   26
 73
   172
  0
VERTEX
  8
Body
 62
   250
 10
0.0
 20
0.0
 30
0.0
 70
   128
 71
   172
 72
   26
 73
   173
  0
VERTEX
  8
Body
 62
   250
 10
0.0
 20
0.0
 30
0.0
 70
   128
 71
   173
 72
   26
 73
   174
  0
VERTEX
  8
Body
 62
   250
 10
0.0
 20
0.0
 30
0.0
 70
   128
 71
   174
 72
   26
 73
   175
  0
VERTEX
  8
Body
 62
   250
 10
0.0
 20
0.0
 30
0.0
 70
   128
 71
   175
 72
   26
 73
   176
  0
VERTEX
  8
Body
 62
   250
 10
0.0
 20
0.0
 30
0.0
 70
   128
 71
   176
 72
   26
 73
   177
  0
VERTEX
  8
Body
 62
   250
 10
0.0
 20
0.0
 30
0.0
 70
   128
 71
   177
 72
   26
 73
   178
  0
VERTEX
  8
Body
 62
   250
 10
0.0
 20
0.0
 30
0.0
 70
   128
 71
   178
 72
   26
 73
   179
  0
VERTEX
  8
Body
 62
   250
 10
0.0
 20
0.0
 30
0.0
 70
   128
 71
   179
 72
   26
 73
   180
  0
VERTEX
  8
Body
 62
   250
 10
0.0
 20
0.0
 30
0.0
 70
   128
 71
   180
 72
   26
 73
   181
  0
VERTEX
  8
Body
 62
   250
 10
0.0
 20
0.0
 30
0.0
 70
   128
 71
   181
 72
   26
 73
   182
  0
VERTEX
  8
Body
 62
   250
 10
0.0
 20
0.0
 30
0.0
 70
   128
 71
   182
 72
   26
 73
   183
  0
VERTEX
  8
Body
 62
   250
 10
0.0
 20
0.0
 30
0.0
 70
   128
 71
   183
 72
   26
 73
   184
  0
SEQEND
  0
POLYLINE
  8
Triangle_Set
 62
   253
 66
   1
 10
0.0
 20
0.0
 30
0.0
 70
   64
 71
   64
 72
   124
  0
VERTEX
  8
Triangle_Set
 10
-0.135000
 20
0.112750
 30
0.017750
 70
   192
  0
VERTEX
  8
Triangle_Set
 10
-0.119615
 20
0.112750
 30
0.017750
 70
   192
  0
VERTEX
  8
Triangle_Set
 10
-0.135000
 20
0.077250
 30
0.017750
 70
   192
  0
VERTEX
  8
Triangle_Set
 10
-0.119615
 20
0.077250
 30
0.017750
 70
   192
  0
VERTEX
  8
Triangle_Set
 10
-0.135000
 20
0.112750
 30
0.000000
 70
   192
  0
VERTEX
  8
Triangle_Set
 10
-0.106538
 20
0.112750
 30
0.000000
 70
   192
  0
VERTEX
  8
Triangle_Set
 10
-0.111139
 20
0.112750
 30
0.023994
 70
   192
  0
VERTEX
  8
Triangle_Set
 10
-0.096390
 20
0.112750
 30
0.071517
 70
   192
  0
VERTEX
  8
Triangle_Set
 10
-0.087914
 20
0.112750
 30
0.077761
 70
   192
  0
VERTEX
  8
Triangle_Set
 10
-0.077500
 20
0.112750
 30
0.077761
 70
   192
  0
VERTEX
  8
Triangle_Set
 10
-0.077500
 20
0.112750
 30
0.060011
 70
   192
  0
VERTEX
  8
Triangle_Set
 10
-0.081376
 20
0.112750
 30
0.060011
 70
   192
  0
VERTEX
  8
Triangle_Set
 10
-0.098062
 20
0.112750
 30
0.006244
 70
   192
  0
VERTEX
  8
Triangle_Set
 10
-0.111139
 20
0.077250
 30
0.023994
 70
   192
  0
VERTEX
  8
Triangle_Set
 10
-0.135000
 20
0.077250
 30
0.000000
 70
   192
  0
VERTEX
  8
Triangle_Set
 10
-0.106538
 20
0.077250
 30
0.000000
 70
   192
  0
VERTEX
  8
Triangle_Set
 10
-0.098062
 20
0.077250
 30
0.006244
 70
   192
  0
VERTEX
  8
Triangle_Set
 10
-0.081376
 20
0.077250
 30
0.060011
 70
   192
  0
VERTEX
  8
Triangle_Set
 10
-0.077500
 20
0.077250
 30
0.060011
 70
   192
  0
VERTEX
  8
Triangle_Set
 10
-0.077500
 20
0.077250
 30
0.077761
 70
   192
  0
VERTEX
  8
Triangle_Set
 10
-0.087914
 20
0.077250
 30
0.077761
 70
   192
  0
VERTEX
  8
Triangle_Set
 10
-0.096390
 20
0.077250
 30
0.071517
 70
   192
  0
VERTEX
  8
Triangle_Set
 10
-0.118212
 20
0.112750
 30
0.017862
 70
   192
  0
VERTEX
  8
Triangle_Set
 10
-0.116844
 20
0.112750
 30
0.018193
 70
   192
  0
VERTEX
  8
Triangle_Set
 10
-0.115546
 20
0.112750
 30
0.018737
 70
   192
  0
VERTEX
  8
Triangle_Set
 10
-0.114351
 20
0.112750
 30
0.019480
 70
   192
  0
VERTEX
  8
Triangle_Set
 10
-0.113287
 20
0.112750
 30
0.020402
 70
   192
  0
VERTEX
  8
Triangle_Set
 10
-0.112383
 20
0.112750
 30
0.021480
 70
   192
  0
VERTEX
  8
Triangle_Set
 10
-0.111661
 20
0.112750
 30
0.022688
 70
   192
  0
VERTEX
  8
Triangle_Set
 10
-0.095868
 20
0.112750
 30
0.072823
 70
   192
  0
VERTEX
  8
Triangle_Set
 10
-0.095146
 20
0.112750
 30
0.074031
 70
   192
  0
VERTEX
  8
Triangle_Set
 10
-0.094241
 20
0.112750
 30
0.075110
 70
   192
  0
VERTEX
  8
Triangle_Set
 10
-0.093178
 20
0.112750
 30
0.076031
 70
   192
  0
VERTEX
  8
Triangle_Set
 10
-0.091983
 20
0.112750
 30
0.076774
 70
   192
  0
VERTEX
  8
Triangle_Set
 10
-0.090685
 20
0.112750
 30
0.077318
 70
   192
  0
VERTEX
  8
Triangle_Set
 10
-0.089317
 20
0.112750
 30
0.077650
 70
   192
  0
VERTEX
  8
Triangle_Set
 10
-0.105135
 20
0.112750
 30
0.000112
 70
   192
  0
VERTEX
  8
Triangle_Set
 10
-0.103768
 20
0.112750
 30
0.000443
 70
   192
  0
VERTEX
  8
Triangle_Set
 10
-0.102470
 20
0.112750
 30
0.000987
 70
   192
  0
VERTEX
  8
Triangle_Set
 10
-0.101274
 20
0.112750
 30
0.001730
 70
   192
  0
VERTEX
  8
Triangle_Set
 10
-0.100211
 20
0.112750
 30
0.002652
 70
   192
  0
VERTEX
  8
Triangle_Set
 10
-0.099307
 20
0.112750
 30
0.003730
 70
   192
  0
VERTEX
  8
Triangle_Set
 10
-0.098584
 20
0.112750
 30
0.004938
 70
   192
  0
VERTEX
  8
Triangle_Set
 10
-0.118212
 20
0.077250
 30
0.017862
 70
   192
  0
VERTEX
  8
Triangle_Set
 10
-0.116844
 20
0.077250
 30
0.018193
 70
   192
  0
VERTEX
  8
Triangle_Set
 10
-0.115546
 20
0.077250
 30
0.018737
 70
   192
  0
VERTEX
  8
Triangle_Set
 10
-0.114351
 20
0.077250
 30
0.019480
 70
   192
  0
VERTEX
  8
Triangle_Set
 10
-0.113287
 20
0.077250
 30
0.020402
 70
   192
  0
VERTEX
  8
Triangle_Set
 10
-0.112383
 20
0.077250
 30
0.021480
 70
   192
  0
VERTEX
  8
Triangle_Set
 10
-0.111661
 20
0.077250
 30
0.022688
 70
   192
  0
VERTEX
  8
Triangle_Set
 10
-0.105135
 20
0.077250
 30
0.000112
 70
   192
  0
VERTEX
  8
Triangle_Set
 10
-0.103768
 20
0.077250
 30
0.000443
 70
   192
  0
VERTEX
  8
Triangle_Set
 10
-0.102470
 20
0.077250
 30
0.000987
 70
   192
  0
VERTEX
  8
Triangle_Set
 10
-0.101274
 20
0.077250
 30
0.001730
 70
   192
  0
VERTEX
  8
Triangle_Set
 10
-0.100211
 20
0.077250
 30
0.002652
 70
   192
  0
VERTEX
  8
Triangle_Set
 10
-0.099307
 20
0.077250
 30
0.003730
 70
   192
  0
VERTEX
  8
Triangle_Set
 10
-0.098584
 20
0.077250
 30
0.004938
 70
   192
  0
VERTEX
  8
Triangle_Set
 10
-0.095868
 20
0.077250
 30
0.072823
 70
   192
  0
VERTEX
  8
Triangle_Set
 10
-0.095146
 20
0.077250
 30
0.074031
 70
   192
  0
VERTEX
  8
Triangle_Set
 10
-0.094241
 20
0.077250
 30
0.075110
 70
   192
  0
VERTEX
  8
Triangle_Set
 10
-0.093178
 20
0.077250
 30
0.076031
 70
   192
  0
VERTEX
  8
Triangle_Set
 10
-0.091983
 20
0.077250
 30
0.076774
 70
   192
  0
VERTEX
  8
Triangle_Set
 10
-0.090685
 20
0.077250
 30
0.077318
 70
   192
  0
VERTEX
  8
Triangle_Set
 10
-0.089317
 20
0.077250
 30
0.077650
 70
   192
  0
VERTEX
  8
Triangle_Set
 62
   253
 10
0.0
 20
0.0
 30
0.0
 70
   128
 71
   2
 72
   3
 73
   1
  0
VERTEX
  8
Triangle_Set
 62
   253
 10
0.0
 20
0.0
 30
0.0
 70
   128
 71
   3
 72
   2
 73
   4
  0
VERTEX
  8
Triangle_Set
 62
   253
 10
0.0
 20
0.0
 30
0.0
 70
   128
 71
   5
 72
   6
 73
   2
  0
VERTEX
  8
Triangle_Set
 62
   253
 10
0.0
 20
0.0
 30
0.0
 70
   128
 71
   1
 72
   5
 73
   2
  0
VERTEX
  8
Triangle_Set
 62
   253
 10
0.0
 20
0.0
 30
0.0
 70
   128
 71
   2
 72
   6
 73
   23
  0
VERTEX
  8
Triangle_Set
 62
   253
 10
0.0
 20
0.0
 30
0.0
 70
   128
 71
   23
 72
   6
 73
   24
  0
VERTEX
  8
Triangle_Set
 62
   253
 10
0.0
 20
0.0
 30
0.0
 70
   128
 71
   24
 72
   6
 73
   25
  0
VERTEX
  8
Triangle_Set
 62
   253
 10
0.0
 20
0.0
 30
0.0
 70
   128
 71
   25
 72
   6
 73
   26
  0
VERTEX
  8
Triangle_Set
 62
   253
 10
0.0
 20
0.0
 30
0.0
 70
   128
 71
   26
 72
   6
 73
   13
  0
VERTEX
  8
Triangle_Set
 62
   253
 10
0.0
 20
0.0
 30
0.0
 70
   128
 71
   27
 72
   26
 73
   13
  0
VERTEX
  8
Triangle_Set
 62
   253
 10
0.0
 20
0.0
 30
0.0
 70
   128
 71
   28
 72
   27
 73
   13
  0
VERTEX
  8
Triangle_Set
 62
   253
 10
0.0
 20
0.0
 30
0.0
 70
   128
 71
   29
 72
   28
 73
   13
  0
VERTEX
  8
Triangle_Set
 62
   253
 10
0.0
 20
0.0
 30
0.0
 70
   128
 71
   7
 72
   29
 73
   13
  0
VERTEX
  8
Triangle_Set
 62
   253
 10
0.0
 20
0.0
 30
0.0
 70
   128
 71
   7
 72
   13
 73
   12
  0
VERTEX
  8
Triangle_Set
 62
   253
 10
0.0
 20
0.0
 30
0.0
 70
   128
 71
   30
 72
   8
 73
   31
  0
VERTEX
  8
Triangle_Set
 62
   253
 10
0.0
 20
0.0
 30
0.0
 70
   128
 71
   31
 72
   8
 73
   32
  0
VERTEX
  8
Triangle_Set
 62
   253
 10
0.0
 20
0.0
 30
0.0
 70
   128
 71
   32
 72
   8
 73
   33
  0
VERTEX
  8
Triangle_Set
 62
   253
 10
0.0
 20
0.0
 30
0.0
 70
   128
 71
   33
 72
   8
 73
   34
  0
VERTEX
  8
Triangle_Set
 62
   253
 10
0.0
 20
0.0
 30
0.0
 70
   128
 71
   34
 72
   8
 73
   35
  0
VERTEX
  8
Triangle_Set
 62
   253
 10
0.0
 20
0.0
 30
0.0
 70
   128
 71
   35
 72
   8
 73
   36
  0
VERTEX
  8
Triangle_Set
 62
   253
 10
0.0
 20
0.0
 30
0.0
 70
   128
 71
   36
 72
   8
 73
   9
  0
VERTEX
  8
Triangle_Set
 62
   253
 10
0.0
 20
0.0
 30
0.0
 70
   128
 71
   9
 72
   8
 73
   12
  0
VERTEX
  8
Triangle_Set
 62
   253
 10
0.0
 20
0.0
 30
0.0
 70
   128
 71
   10
 72
   9
 73
   12
  0
VERTEX
  8
Triangle_Set
 62
   253
 10
0.0
 20
0.0
 30
0.0
 70
   128
 71
   8
 72
   7
 73
   12
  0
VERTEX
  8
Triangle_Set
 62
   253
 10
0.0
 20
0.0
 30
0.0
 70
   128
 71
   11
 72
   10
 73
   12
  0
VERTEX
  8
Triangle_Set
 62
   253
 10
0.0
 20
0.0
 30
0.0
 70
   128
 71
   13
 72
   6
 73
   43
  0
VERTEX
  8
Triangle_Set
 62
   253
 10
0.0
 20
0.0
 30
0.0
 70
   128
 71
   43
 72
   6
 73
   42
  0
VERTEX
  8
Triangle_Set
 62
   253
 10
0.0
 20
0.0
 30
0.0
 70
   128
 71
   42
 72
   6
 73
   41
  0
VERTEX
  8
Triangle_Set
 62
   253
 10
0.0
 20
0.0
 30
0.0
 70
   128
 71
   41
 72
   6
 73
   40
  0
VERTEX
  8
Triangle_Set
 62
   253
 10
0.0
 20
0.0
 30
0.0
 70
   128
 71
   40
 72
   6
 73
   39
  0
VERTEX
  8
Triangle_Set
 62
   253
 10
0.0
 20
0.0
 30
0.0
 70
   128
 71
   39
 72
   6
 73
   38
  0
VERTEX
  8
Triangle_Set
 62
   253
 10
0.0
 20
0.0
 30
0.0
 70
   128
 71
   38
 72
   6
 73
   37
  0
VERTEX
  8
Triangle_Set
 62
   253
 10
0.0
 20
0.0
 30
0.0
 70
   128
 71
   4
 72
   2
 73
   23
  0
VERTEX
  8
Triangle_Set
 62
   253
 10
0.0
 20
0.0
 30
0.0
 70
   128
 71
   4
 72
   23
 73
   44
  0
VERTEX
  8
Triangle_Set
 62
   253
 10
0.0
 20
0.0
 30
0.0
 70
   128
 71
   23
 72
   24
 73
   45
  0
VERTEX
  8
Triangle_Set
 62
   253
 10
0.0
 20
0.0
 30
0.0
 70
   128
 71
   24
 72
   25
 73
   46
  0
VERTEX
  8
Triangle_Set
 62
   253
 10
0.0
 20
0.0
 30
0.0
 70
   128
 71
   25
 72
   26
 73
   47
  0
VERTEX
  8
Triangle_Set
 62
   253
 10
0.0
 20
0.0
 30
0.0
 70
   128
 71
   26
 72
   27
 73
   48
  0
VERTEX
  8
Triangle_Set
 62
   253
 10
0.0
 20
0.0
 30
0.0
 70
   128
 71
   27
 72
   28
 73
   49
  0
VERTEX
  8
Triangle_Set
 62
   253
 10
0.0
 20
0.0
 30
0.0
 70
   128
 71
   28
 72
   29
 73
   50
  0
VERTEX
  8
Triangle_Set
 62
   253
 10
0.0
 20
0.0
 30
0.0
 70
   128
 71
   29
 72
   7
 73
   14
  0
VERTEX
  8
Triangle_Set
 62
   253
 10
0.0
 20
0.0
 30
0.0
 70
   128
 71
   29
 72
   14
 73
   50
  0
VERTEX
  8
Triangle_Set
 62
   253
 10
0.0
 20
0.0
 30
0.0
 70
   128
 71
   28
 72
   50
 73
   49
  0
VERTEX
  8
Triangle_Set
 62
   253
 10
0.0
 20
0.0
 30
0.0
 70
   128
 71
   27
 72
   49
 73
   48
  0
VERTEX
  8
Triangle_Set
 62
   253
 10
0.0
 20
0.0
 30
0.0
 70
   128
 71
   26
 72
   48
 73
   47
  0
VERTEX
  8
Triangle_Set
 62
   253
 10
0.0
 20
0.0
 30
0.0
 70
   128
 71
   25
 72
   47
 73
   46
  0
VERTEX
  8
Triangle_Set
 62
   253
 10
0.0
 20
0.0
 30
0.0
 70
   128
 71
   24
 72
   46
 73
   45
  0
VERTEX
  8
Triangle_Set
 62
   253
 10
0.0
 20
0.0
 30
0.0
 70
   128
 71
   23
 72
   45
 73
   44
  0
VERTEX
  8
Triangle_Set
 62
   253
 10
0.0
 20
0.0
 30
0.0
 70
   128
 71
   5
 72
   3
 73
   15
  0
VERTEX
  8
Triangle_Set
 62
   253
 10
0.0
 20
0.0
 30
0.0
 70
   128
 71
   3
 72
   5
 73
   1
  0
VERTEX
  8
Triangle_Set
 62
   253
 10
0.0
 20
0.0
 30
0.0
 70
   128
 71
   51
 72
   16
 73
   52
  0
VERTEX
  8
Triangle_Set
 62
   253
 10
0.0
 20
0.0
 30
0.0
 70
   128
 71
   52
 72
   16
 73
   53
  0
VERTEX
  8
Triangle_Set
 62
   253
 10
0.0
 20
0.0
 30
0.0
 70
   128
 71
   53
 72
   16
 73
   54
  0
VERTEX
  8
Triangle_Set
 62
   253
 10
0.0
 20
0.0
 30
0.0
 70
   128
 71
   54
 72
   16
 73
   55
  0
VERTEX
  8
Triangle_Set
 62
   253
 10
0.0
 20
0.0
 30
0.0
 70
   128
 71
   55
 72
   16
 73
   56
  0
VERTEX
  8
Triangle_Set
 62
   253
 10
0.0
 20
0.0
 30
0.0
 70
   128
 71
   56
 72
   16
 73
   57
  0
VERTEX
  8
Triangle_Set
 62
   253
 10
0.0
 20
0.0
 30
0.0
 70
   128
 71
   57
 72
   16
 73
   17
  0
VERTEX
  8
Triangle_Set
 62
   253
 10
0.0
 20
0.0
 30
0.0
 70
   128
 71
   18
 72
   20
 73
   19
  0
VERTEX
  8
Triangle_Set
 62
   253
 10
0.0
 20
0.0
 30
0.0
 70
   128
 71
   18
 72
   17
 73
   14
  0
VERTEX
  8
Triangle_Set
 62
   253
 10
0.0
 20
0.0
 30
0.0
 70
   128
 71
   20
 72
   18
 73
   21
  0
VERTEX
  8
Triangle_Set
 62
   253
 10
0.0
 20
0.0
 30
0.0
 70
   128
 71
   21
 72
   18
 73
   22
  0
VERTEX
  8
Triangle_Set
 62
   253
 10
0.0
 20
0.0
 30
0.0
 70
   128
 71
   64
 72
   21
 73
   63
  0
VERTEX
  8
Triangle_Set
 62
   253
 10
0.0
 20
0.0
 30
0.0
 70
   128
 71
   63
 72
   21
 73
   62
  0
VERTEX
  8
Triangle_Set
 62
   253
 10
0.0
 20
0.0
 30
0.0
 70
   128
 71
   62
 72
   21
 73
   61
  0
VERTEX
  8
Triangle_Set
 62
   253
 10
0.0
 20
0.0
 30
0.0
 70
   128
 71
   61
 72
   21
 73
   60
  0
VERTEX
  8
Triangle_Set
 62
   253
 10
0.0
 20
0.0
 30
0.0
 70
   128
 71
   60
 72
   21
 73
   59
  0
VERTEX
  8
Triangle_Set
 62
   253
 10
0.0
 20
0.0
 30
0.0
 70
   128
 71
   59
 72
   21
 73
   58
  0
VERTEX
  8
Triangle_Set
 62
   253
 10
0.0
 20
0.0
 30
0.0
 70
   128
 71
   58
 72
   21
 73
   22
  0
VERTEX
  8
Triangle_Set
 62
   253
 10
0.0
 20
0.0
 30
0.0
 70
   128
 71
   17
 72
   16
 73
   47
  0
VERTEX
  8
Triangle_Set
 62
   253
 10
0.0
 20
0.0
 30
0.0
 70
   128
 71
   22
 72
   18
 73
   14
  0
VERTEX
  8
Triangle_Set
 62
   253
 10
0.0
 20
0.0
 30
0.0
 70
   128
 71
   14
 72
   17
 73
   50
  0
VERTEX
  8
Triangle_Set
 62
   253
 10
0.0
 20
0.0
 30
0.0
 70
   128
 71
   50
 72
   17
 73
   49
  0
VERTEX
  8
Triangle_Set
 62
   253
 10
0.0
 20
0.0
 30
0.0
 70
   128
 71
   16
 72
   15
 73
   4
  0
VERTEX
  8
Triangle_Set
 62
   253
 10
0.0
 20
0.0
 30
0.0
 70
   128
 71
   49
 72
   17
 73
   48
  0
VERTEX
  8
Triangle_Set
 62
   253
 10
0.0
 20
0.0
 30
0.0
 70
   128
 71
   48
 72
   17
 73
   47
  0
VERTEX
  8
Triangle_Set
 62
   253
 10
0.0
 20
0.0
 30
0.0
 70
   128
 71
   47
 72
   16
 73
   46
  0
VERTEX
  8
Triangle_Set
 62
   253
 10
0.0
 20
0.0
 30
0.0
 70
   128
 71
   46
 72
   16
 73
   45
  0
VERTEX
  8
Triangle_Set
 62
   253
 10
0.0
 20
0.0
 30
0.0
 70
   128
 71
   45
 72
   16
 73
   44
  0
VERTEX
  8
Triangle_Set
 62
   253
 10
0.0
 20
0.0
 30
0.0
 70
   128
 71
   44
 72
   16
 73
   4
  0
VERTEX
  8
Triangle_Set
 62
   253
 10
0.0
 20
0.0
 30
0.0
 70
   128
 71
   4
 72
   15
 73
   3
  0
VERTEX
  8
Triangle_Set
 62
   253
 10
0.0
 20
0.0
 30
0.0
 70
   128
 71
   15
 72
   6
 73
   5
  0
VERTEX
  8
Triangle_Set
 62
   253
 10
0.0
 20
0.0
 30
0.0
 70
   128
 71
   6
 72
   15
 73
   16
  0
VERTEX
  8
Triangle_Set
 62
   253
 10
0.0
 20
0.0
 30
0.0
 70
   128
 71
   6
 72
   16
 73
   37
  0
VERTEX
  8
Triangle_Set
 62
   253
 10
0.0
 20
0.0
 30
0.0
 70
   128
 71
   37
 72
   16
 73
   51
  0
VERTEX
  8
Triangle_Set
 62
   253
 10
0.0
 20
0.0
 30
0.0
 70
   128
 71
   38
 72
   37
 73
   52
  0
VERTEX
  8
Triangle_Set
 62
   253
 10
0.0
 20
0.0
 30
0.0
 70
   128
 71
   39
 72
   38
 73
   53
  0
VERTEX
  8
Triangle_Set
 62
   253
 10
0.0
 20
0.0
 30
0.0
 70
   128
 71
   40
 72
   39
 73
   54
  0
VERTEX
  8
Triangle_Set
 62
   253
 10
0.0
 20
0.0
 30
0.0
 70
   128
 71
   41
 72
   40
 73
   55
  0
VERTEX
  8
Triangle_Set
 62
   253
 10
0.0
 20
0.0
 30
0.0
 70
   128
 71
   42
 72
   41
 73
   56
  0
VERTEX
  8
Triangle_Set
 62
   253
 10
0.0
 20
0.0
 30
0.0
 70
   128
 71
   43
 72
   42
 73
   57
  0
VERTEX
  8
Triangle_Set
 62
   253
 10
0.0
 20
0.0
 30
0.0
 70
   128
 71
   13
 72
   43
 73
   17
  0
VERTEX
  8
Triangle_Set
 62
   253
 10
0.0
 20
0.0
 30
0.0
 70
   128
 71
   17
 72
   43
 73
   57
  0
VERTEX
  8
Triangle_Set
 62
   253
 10
0.0
 20
0.0
 30
0.0
 70
   128
 71
   57
 72
   42
 73
   56
  0
VERTEX
  8
Triangle_Set
 62
   253
 10
0.0
 20
0.0
 30
0.0
 70
   128
 71
   56
 72
   41
 73
   55
  0
VERTEX
  8
Triangle_Set
 62
   253
 10
0.0
 20
0.0
 30
0.0
 70
   128
 71
   55
 72
   40
 73
   54
  0
VERTEX
  8
Triangle_Set
 62
   253
 10
0.0
 20
0.0
 30
0.0
 70
   128
 71
   54
 72
   39
 73
   53
  0
VERTEX
  8
Triangle_Set
 62
   253
 10
0.0
 20
0.0
 30
0.0
 70
   128
 71
   53
 72
   38
 73
   52
  0
VERTEX
  8
Triangle_Set
 62
   253
 10
0.0
 20
0.0
 30
0.0
 70
   128
 71
   52
 72
   37
 73
   51
  0
VERTEX
  8
Triangle_Set
 62
   253
 10
0.0
 20
0.0
 30
0.0
 70
   128
 71
   17
 72
   18
 73
   13
  0
VERTEX
  8
Triangle_Set
 62
   253
 10
0.0
 20
0.0
 30
0.0
 70
   128
 71
   13
 72
   18
 73
   12
  0
VERTEX
  8
Triangle_Set
 62
   253
 10
0.0
 20
0.0
 30
0.0
 70
   128
 71
   18
 72
   11
 73
   12
  0
VERTEX
  8
Triangle_Set
 62
   253
 10
0.0
 20
0.0
 30
0.0
 70
   128
 71
   11
 72
   18
 73
   19
  0
VERTEX
  8
Triangle_Set
 62
   253
 10
0.0
 20
0.0
 30
0.0
 70
   128
 71
   20
 72
   11
 73
   19
  0
VERTEX
  8
Triangle_Set
 62
   253
 10
0.0
 20
0.0
 30
0.0
 70
   128
 71
   11
 72
   20
 73
   10
  0
VERTEX
  8
Triangle_Set
 62
   253
 10
0.0
 20
0.0
 30
0.0
 70
   128
 71
   7
 72
   22
 73
   14
  0
VERTEX
  8
Triangle_Set
 62
   253
 10
0.0
 20
0.0
 30
0.0
 70
   128
 71
   22
 72
   7
 73
   8
  0
VERTEX
  8
Triangle_Set
 62
   253
 10
0.0
 20
0.0
 30
0.0
 70
   128
 71
   20
 72
   21
 73
   10
  0
VERTEX
  8
Triangle_Set
 62
   253
 10
0.0
 20
0.0
 30
0.0
 70
   128
 71
   10
 72
   21
 73
   9
  0
VERTEX
  8
Triangle_Set
 62
   253
 10
0.0
 20
0.0
 30
0.0
 70
   128
 71
   61
 72
   60
 73
   33
  0
VERTEX
  8
Triangle_Set
 62
   253
 10
0.0
 20
0.0
 30
0.0
 70
   128
 71
   62
 72
   61
 73
   34
  0
VERTEX
  8
Triangle_Set
 62
   253
 10
0.0
 20
0.0
 30
0.0
 70
   128
 71
   63
 72
   62
 73
   35
  0
VERTEX
  8
Triangle_Set
 62
   253
 10
0.0
 20
0.0
 30
0.0
 70
   128
 71
   64
 72
   63
 73
   36
  0
VERTEX
  8
Triangle_Set
 62
   253
 10
0.0
 20
0.0
 30
0.0
 70
   128
 71
   21
 72
   64
 73
   9
  0
VERTEX
  8
Triangle_Set
 62
   253
 10
0.0
 20
0.0
 30
0.0
 70
   128
 71
   60
 72
   59
 73
   32
  0
VERTEX
  8
Triangle_Set
 62
   253
 10
0.0
 20
0.0
 30
0.0
 70
   128
 71
   9
 72
   64
 73
   36
  0
VERTEX
  8
Triangle_Set
 62
   253
 10
0.0
 20
0.0
 30
0.0
 70
   128
 71
   36
 72
   63
 73
   35
  0
VERTEX
  8
Triangle_Set
 62
   253
 10
0.0
 20
0.0
 30
0.0
 70
   128
 71
   59
 72
   58
 73
   31
  0
VERTEX
  8
Triangle_Set
 62
   253
 10
0.0
 20
0.0
 30
0.0
 70
   128
 71
   35
 72
   62
 73
   34
  0
VERTEX
  8
Triangle_Set
 62
   253
 10
0.0
 20
0.0
 30
0.0
 70
   128
 71
   58
 72
   22
 73
   30
  0
VERTEX
  8
Triangle_Set
 62
   253
 10
0.0
 20
0.0
 30
0.0
 70
   128
 71
   34
 72
   61
 73
   33
  0
VERTEX
  8
Triangle_Set
 62
   253
 10
0.0
 20
0.0
 30
0.0
 70
   128
 71
   33
 72
   60
 73
   32
  0
VERTEX
  8
Triangle_Set
 62
   253
 10
0.0
 20
0.0
 30
0.0
 70
   128
 71
   32
 72
   59
 73
   31
  0
VERTEX
  8
Triangle_Set
 62
   253
 10
0.0
 20
0.0
 30
0.0
 70
   128
 71
   31
 72
   58
 73
   30
  0
VERTEX
  8
Triangle_Set
 62
   253
 10
0.0
 20
0.0
 30
0.0
 70
   128
 71
   30
 72
   22
 73
   8
  0
SEQEND
  0
POLYLINE
  8
Triangle_Set_ncl1_1
 62
   253
 66
   1
 10
0.0
 20
0.0
 30
0.0
 70
   64
 71
   64
 72
   124
  0
VERTEX
  8
Triangle_Set_ncl1_1
 10
-0.135000
 20
0.017750
 30
0.017750
 70
   192
  0
VERTEX
  8
Triangle_Set_ncl1_1
 10
-0.119615
 20
0.017750
 30
0.017750
 70
   192
  0
VERTEX
  8
Triangle_Set_ncl1_1
 10
-0.135000
 20
-0.017750
 30
0.017750
 70
   192
  0
VERTEX
  8
Triangle_Set_ncl1_1
 10
-0.119615
 20
-0.017750
 30
0.017750
 70
   192
  0
VERTEX
  8
Triangle_Set_ncl1_1
 10
-0.135000
 20
0.017750
 30
0.000000
 70
   192
  0
VERTEX
  8
Triangle_Set_ncl1_1
 10
-0.106538
 20
0.017750
 30
0.000000
 70
   192
  0
VERTEX
  8
Triangle_Set_ncl1_1
 10
-0.111139
 20
0.017750
 30
0.023994
 70
   192
  0
VERTEX
  8
Triangle_Set_ncl1_1
 10
-0.096390
 20
0.017750
 30
0.071517
 70
   192
  0
VERTEX
  8
Triangle_Set_ncl1_1
 10
-0.087914
 20
0.017750
 30
0.077761
 70
   192
  0
VERTEX
  8
Triangle_Set_ncl1_1
 10
-0.077500
 20
0.017750
 30
0.077761
 70
   192
  0
VERTEX
  8
Triangle_Set_ncl1_1
 10
-0.077500
 20
0.017750
 30
0.060011
 70
   192
  0
VERTEX
  8
Triangle_Set_ncl1_1
 10
-0.081376
 20
0.017750
 30
0.060011
 70
   192
  0
VERTEX
  8
Triangle_Set_ncl1_1
 10
-0.098062
 20
0.017750
 30
0.006244
 70
   192
  0
VERTEX
  8
Triangle_Set_ncl1_1
 10
-0.111139
 20
-0.017750
 30
0.023994
 70
   192
  0
VERTEX
  8
Triangle_Set_ncl1_1
 10
-0.135000
 20
-0.017750
 30
0.000000
 70
   192
  0
VERTEX
  8
Triangle_Set_ncl1_1
 10
-0.106538
 20
-0.017750
 30
0.000000
 70
   192
  0
VERTEX
  8
Triangle_Set_ncl1_1
 10
-0.098062
 20
-0.017750
 30
0.006244
 70
   192
  0
VERTEX
  8
Triangle_Set_ncl1_1
 10
-0.081376
 20
-0.017750
 30
0.060011
 70
   192
  0
VERTEX
  8
Triangle_Set_ncl1_1
 10
-0.077500
 20
-0.017750
 30
0.060011
 70
   192
  0
VERTEX
  8
Triangle_Set_ncl1_1
 10
-0.077500
 20
-0.017750
 30
0.077761
 70
   192
  0
VERTEX
  8
Triangle_Set_ncl1_1
 10
-0.087914
 20
-0.017750
 30
0.077761
 70
   192
  0
VERTEX
  8
Triangle_Set_ncl1_1
 10
-0.096390
 20
-0.017750
 30
0.071517
 70
   192
  0
VERTEX
  8
Triangle_Set_ncl1_1
 10
-0.118212
 20
0.017750
 30
0.017862
 70
   192
  0
VERTEX
  8
Triangle_Set_ncl1_1
 10
-0.116844
 20
0.017750
 30
0.018193
 70
   192
  0
VERTEX
  8
Triangle_Set_ncl1_1
 10
-0.115546
 20
0.017750
 30
0.018737
 70
   192
  0
VERTEX
  8
Triangle_Set_ncl1_1
 10
-0.114351
 20
0.017750
 30
0.019480
 70
   192
  0
VERTEX
  8
Triangle_Set_ncl1_1
 10
-0.113287
 20
0.017750
 30
0.020402
 70
   192
  0
VERTEX
  8
Triangle_Set_ncl1_1
 10
-0.112383
 20
0.017750
 30
0.021480
 70
   192
  0
VERTEX
  8
Triangle_Set_ncl1_1
 10
-0.111661
 20
0.017750
 30
0.022688
 70
   192
  0
VERTEX
  8
Triangle_Set_ncl1_1
 10
-0.095868
 20
0.017750
 30
0.072823
 70
   192
  0
VERTEX
  8
Triangle_Set_ncl1_1
 10
-0.095146
 20
0.017750
 30
0.074031
 70
   192
  0
VERTEX
  8
Triangle_Set_ncl1_1
 10
-0.094241
 20
0.017750
 30
0.075110
 70
   192
  0
VERTEX
  8
Triangle_Set_ncl1_1
 10
-0.093178
 20
0.017750
 30
0.076031
 70
   192
  0
VERTEX
  8
Triangle_Set_ncl1_1
 10
-0.091983
 20
0.017750
 30
0.076774
 70
   192
  0
VERTEX
  8
Triangle_Set_ncl1_1
 10
-0.090685
 20
0.017750
 30
0.077318
 70
   192
  0
VERTEX
  8
Triangle_Set_ncl1_1
 10
-0.089317
 20
0.017750
 30
0.077650
 70
   192
  0
VERTEX
  8
Triangle_Set_ncl1_1
 10
-0.105135
 20
0.017750
 30
0.000112
 70
   192
  0
VERTEX
  8
Triangle_Set_ncl1_1
 10
-0.103768
 20
0.017750
 30
0.000443
 70
   192
  0
VERTEX
  8
Triangle_Set_ncl1_1
 10
-0.102470
 20
0.017750
 30
0.000987
 70
   192
  0
VERTEX
  8
Triangle_Set_ncl1_1
 10
-0.101274
 20
0.017750
 30
0.001730
 70
   192
  0
VERTEX
  8
Triangle_Set_ncl1_1
 10
-0.100211
 20
0.017750
 30
0.002652
 70
   192
  0
VERTEX
  8
Triangle_Set_ncl1_1
 10
-0.099307
 20
0.017750
 30
0.003730
 70
   192
  0
VERTEX
  8
Triangle_Set_ncl1_1
 10
-0.098584
 20
0.017750
 30
0.004938
 70
   192
  0
VERTEX
  8
Triangle_Set_ncl1_1
 10
-0.118212
 20
-0.017750
 30
0.017862
 70
   192
  0
VERTEX
  8
Triangle_Set_ncl1_1
 10
-0.116844
 20
-0.017750
 30
0.018193
 70
   192
  0
VERTEX
  8
Triangle_Set_ncl1_1
 10
-0.115546
 20
-0.017750
 30
0.018737
 70
   192
  0
VERTEX
  8
Triangle_Set_ncl1_1
 10
-0.114351
 20
-0.017750
 30
0.019480
 70
   192
  0
VERTEX
  8
Triangle_Set_ncl1_1
 10
-0.113287
 20
-0.017750
 30
0.020402
 70
   192
  0
VERTEX
  8
Triangle_Set_ncl1_1
 10
-0.112383
 20
-0.017750
 30
0.021480
 70
   192
  0
VERTEX
  8
Triangle_Set_ncl1_1
 10
-0.111661
 20
-0.017750
 30
0.022688
 70
   192
  0
VERTEX
  8
Triangle_Set_ncl1_1
 10
-0.105135
 20
-0.017750
 30
0.000112
 70
   192
  0
VERTEX
  8
Triangle_Set_ncl1_1
 10
-0.103768
 20
-0.017750
 30
0.000443
 70
   192
  0
VERTEX
  8
Triangle_Set_ncl1_1
 10
-0.102470
 20
-0.017750
 30
0.000987
 70
   192
  0
VERTEX
  8
Triangle_Set_ncl1_1
 10
-0.101274
 20
-0.017750
 30
0.001730
 70
   192
  0
VERTEX
  8
Triangle_Set_ncl1_1
 10
-0.100211
 20
-0.017750
 30
0.002652
 70
   192
  0
VERTEX
  8
Triangle_Set_ncl1_1
 10
-0.099307
 20
-0.017750
 30
0.003730
 70
   192
  0
VERTEX
  8
Triangle_Set_ncl1_1
 10
-0.098584
 20
-0.017750
 30
0.004938
 70
   192
  0
VERTEX
  8
Triangle_Set_ncl1_1
 10
-0.095868
 20
-0.017750
 30
0.072823
 70
   192
  0
VERTEX
  8
Triangle_Set_ncl1_1
 10
-0.095146
 20
-0.017750
 30
0.074031
 70
   192
  0
VERTEX
  8
Triangle_Set_ncl1_1
 10
-0.094241
 20
-0.017750
 30
0.075110
 70
   192
  0
VERTEX
  8
Triangle_Set_ncl1_1
 10
-0.093178
 20
-0.017750
 30
0.076031
 70
   192
  0
VERTEX
  8
Triangle_Set_ncl1_1
 10
-0.091983
 20
-0.017750
 30
0.076774
 70
   192
  0
VERTEX
  8
Triangle_Set_ncl1_1
 10
-0.090685
 20
-0.017750
 30
0.077318
 70
   192
  0
VERTEX
  8
Triangle_Set_ncl1_1
 10
-0.089317
 20
-0.017750
 30
0.077650
 70
   192
  0
VERTEX
  8
Triangle_Set_ncl1_1
 62
   253
 10
0.0
 20
0.0
 30
0.0
 70
   128
 71
   2
 72
   3
 73
   1
  0
VERTEX
  8
Triangle_Set_ncl1_1
 62
   253
 10
0.0
 20
0.0
 30
0.0
 70
   128
 71
   3
 72
   2
 73
   4
  0
VERTEX
  8
Triangle_Set_ncl1_1
 62
   253
 10
0.0
 20
0.0
 30
0.0
 70
   128
 71
   5
 72
   6
 73
   2
  0
VERTEX
  8
Triangle_Set_ncl1_1
 62
   253
 10
0.0
 20
0.0
 30
0.0
 70
   128
 71
   1
 72
   5
 73
   2
  0
VERTEX
  8
Triangle_Set_ncl1_1
 62
   253
 10
0.0
 20
0.0
 30
0.0
 70
   128
 71
   2
 72
   6
 73
   23
  0
VERTEX
  8
Triangle_Set_ncl1_1
 62
   253
 10
0.0
 20
0.0
 30
0.0
 70
   128
 71
   23
 72
   6
 73
   24
  0
VERTEX
  8
Triangle_Set_ncl1_1
 62
   253
 10
0.0
 20
0.0
 30
0.0
 70
   128
 71
   24
 72
   6
 73
   25
  0
VERTEX
  8
Triangle_Set_ncl1_1
 62
   253
 10
0.0
 20
0.0
 30
0.0
 70
   128
 71
   25
 72
   6
 73
   26
  0
VERTEX
  8
Triangle_Set_ncl1_1
 62
   253
 10
0.0
 20
0.0
 30
0.0
 70
   128
 71
   26
 72
   6
 73
   13
  0
VERTEX
  8
Triangle_Set_ncl1_1
 62
   253
 10
0.0
 20
0.0
 30
0.0
 70
   128
 71
   27
 72
   26
 73
   13
  0
VERTEX
  8
Triangle_Set_ncl1_1
 62
   253
 10
0.0
 20
0.0
 30
0.0
 70
   128
 71
   28
 72
   27
 73
   13
  0
VERTEX
  8
Triangle_Set_ncl1_1
 62
   253
 10
0.0
 20
0.0
 30
0.0
 70
   128
 71
   29
 72
   28
 73
   13
  0
VERTEX
  8
Triangle_Set_ncl1_1
 62
   253
 10
0.0
 20
0.0
 30
0.0
 70
   128
 71
   7
 72
   29
 73
   13
  0
VERTEX
  8
Triangle_Set_ncl1_1
 62
   253
 10
0.0
 20
0.0
 30
0.0
 70
   128
 71
   7
 72
   13
 73
   12
  0
VERTEX
  8
Triangle_Set_ncl1_1
 62
   253
 10
0.0
 20
0.0
 30
0.0
 70
   128
 71
   30
 72
   8
 73
   31
  0
VERTEX
  8
Triangle_Set_ncl1_1
 62
   253
 10
0.0
 20
0.0
 30
0.0
 70
   128
 71
   31
 72
   8
 73
   32
  0
VERTEX
  8
Triangle_Set_ncl1_1
 62
   253
 10
0.0
 20
0.0
 30
0.0
 70
   128
 71
   32
 72
   8
 73
   33
  0
VERTEX
  8
Triangle_Set_ncl1_1
 62
   253
 10
0.0
 20
0.0
 30
0.0
 70
   128
 71
   33
 72
   8
 73
   34
  0
VERTEX
  8
Triangle_Set_ncl1_1
 62
   253
 10
0.0
 20
0.0
 30
0.0
 70
   128
 71
   34
 72
   8
 73
   35
  0
VERTEX
  8
Triangle_Set_ncl1_1
 62
   253
 10
0.0
 20
0.0
 30
0.0
 70
   128
 71
   35
 72
   8
 73
   36
  0
VERTEX
  8
Triangle_Set_ncl1_1
 62
   253
 10
0.0
 20
0.0
 30
0.0
 70
   128
 71
   36
 72
   8
 73
   9
  0
VERTEX
  8
Triangle_Set_ncl1_1
 62
   253
 10
0.0
 20
0.0
 30
0.0
 70
   128
 71
   9
 72
   8
 73
   12
  0
VERTEX
  8
Triangle_Set_ncl1_1
 62
   253
 10
0.0
 20
0.0
 30
0.0
 70
   128
 71
   10
 72
   9
 73
   12
  0
VERTEX
  8
Triangle_Set_ncl1_1
 62
   253
 10
0.0
 20
0.0
 30
0.0
 70
   128
 71
   8
 72
   7
 73
   12
  0
VERTEX
  8
Triangle_Set_ncl1_1
 62
   253
 10
0.0
 20
0.0
 30
0.0
 70
   128
 71
   11
 72
   10
 73
   12
  0
VERTEX
  8
Triangle_Set_ncl1_1
 62
   253
 10
0.0
 20
0.0
 30
0.0
 70
   128
 71
   13
 72
   6
 73
   43
  0
VERTEX
  8
Triangle_Set_ncl1_1
 62
   253
 10
0.0
 20
0.0
 30
0.0
 70
   128
 71
   43
 72
   6
 73
   42
  0
VERTEX
  8
Triangle_Set_ncl1_1
 62
   253
 10
0.0
 20
0.0
 30
0.0
 70
   128
 71
   42
 72
   6
 73
   41
  0
VERTEX
  8
Triangle_Set_ncl1_1
 62
   253
 10
0.0
 20
0.0
 30
0.0
 70
   128
 71
   41
 72
   6
 73
   40
  0
VERTEX
  8
Triangle_Set_ncl1_1
 62
   253
 10
0.0
 20
0.0
 30
0.0
 70
   128
 71
   40
 72
   6
 73
   39
  0
VERTEX
  8
Triangle_Set_ncl1_1
 62
   253
 10
0.0
 20
0.0
 30
0.0
 70
   128
 71
   39
 72
   6
 73
   38
  0
VERTEX
  8
Triangle_Set_ncl1_1
 62
   253
 10
0.0
 20
0.0
 30
0.0
 70
   128
 71
   38
 72
   6
 73
   37
  0
VERTEX
  8
Triangle_Set_ncl1_1
 62
   253
 10
0.0
 20
0.0
 30
0.0
 70
   128
 71
   4
 72
   2
 73
   23
  0
VERTEX
  8
Triangle_Set_ncl1_1
 62
   253
 10
0.0
 20
0.0
 30
0.0
 70
   128
 71
   4
 72
   23
 73
   44
  0
VERTEX
  8
Triangle_Set_ncl1_1
 62
   253
 10
0.0
 20
0.0
 30
0.0
 70
   128
 71
   23
 72
   24
 73
   45
  0
VERTEX
  8
Triangle_Set_ncl1_1
 62
   253
 10
0.0
 20
0.0
 30
0.0
 70
   128
 71
   24
 72
   25
 73
   46
  0
VERTEX
  8
Triangle_Set_ncl1_1
 62
   253
 10
0.0
 20
0.0
 30
0.0
 70
   128
 71
   25
 72
   26
 73
   47
  0
VERTEX
  8
Triangle_Set_ncl1_1
 62
   253
 10
0.0
 20
0.0
 30
0.0
 70
   128
 71
   26
 72
   27
 73
   48
  0
VERTEX
  8
Triangle_Set_ncl1_1
 62
   253
 10
0.0
 20
0.0
 30
0.0
 70
   128
 71
   27
 72
   28
 73
   49
  0
VERTEX
  8
Triangle_Set_ncl1_1
 62
   253
 10
0.0
 20
0.0
 30
0.0
 70
   128
 71
   28
 72
   29
 73
   50
  0
VERTEX
  8
Triangle_Set_ncl1_1
 62
   253
 10
0.0
 20
0.0
 30
0.0
 70
   128
 71
   29
 72
   7
 73
   14
  0
VERTEX
  8
Triangle_Set_ncl1_1
 62
   253
 10
0.0
 20
0.0
 30
0.0
 70
   128
 71
   29
 72
   14
 73
   50
  0
VERTEX
  8
Triangle_Set_ncl1_1
 62
   253
 10
0.0
 20
0.0
 30
0.0
 70
   128
 71
   28
 72
   50
 73
   49
  0
VERTEX
  8
Triangle_Set_ncl1_1
 62
   253
 10
0.0
 20
0.0
 30
0.0
 70
   128
 71
   27
 72
   49
 73
   48
  0
VERTEX
  8
Triangle_Set_ncl1_1
 62
   253
 10
0.0
 20
0.0
 30
0.0
 70
   128
 71
   26
 72
   48
 73
   47
  0
VERTEX
  8
Triangle_Set_ncl1_1
 62
   253
 10
0.0
 20
0.0
 30
0.0
 70
   128
 71
   25
 72
   47
 73
   46
  0
VERTEX
  8
Triangle_Set_ncl1_1
 62
   253
 10
0.0
 20
0.0
 30
0.0
 70
   128
 71
   24
 72
   46
 73
   45
  0
VERTEX
  8
Triangle_Set_ncl1_1
 62
   253
 10
0.0
 20
0.0
 30
0.0
 70
   128
 71
   23
 72
   45
 73
   44
  0
VERTEX
  8
Triangle_Set_ncl1_1
 62
   253
 10
0.0
 20
0.0
 30
0.0
 70
   128
 71
   5
 72
   3
 73
   15
  0
VERTEX
  8
Triangle_Set_ncl1_1
 62
   253
 10
0.0
 20
0.0
 30
0.0
 70
   128
 71
   3
 72
   5
 73
   1
  0
VERTEX
  8
Triangle_Set_ncl1_1
 62
   253
 10
0.0
 20
0.0
 30
0.0
 70
   128
 71
   51
 72
   16
 73
   52
  0
VERTEX
  8
Triangle_Set_ncl1_1
 62
   253
 10
0.0
 20
0.0
 30
0.0
 70
   128
 71
   52
 72
   16
 73
   53
  0
VERTEX
  8
Triangle_Set_ncl1_1
 62
   253
 10
0.0
 20
0.0
 30
0.0
 70
   128
 71
   53
 72
   16
 73
   54
  0
VERTEX
  8
Triangle_Set_ncl1_1
 62
   253
 10
0.0
 20
0.0
 30
0.0
 70
   128
 71
   54
 72
   16
 73
   55
  0
VERTEX
  8
Triangle_Set_ncl1_1
 62
   253
 10
0.0
 20
0.0
 30
0.0
 70
   128
 71
   55
 72
   16
 73
   56
  0
VERTEX
  8
Triangle_Set_ncl1_1
 62
   253
 10
0.0
 20
0.0
 30
0.0
 70
   128
 71
   56
 72
   16
 73
   57
  0
VERTEX
  8
Triangle_Set_ncl1_1
 62
   253
 10
0.0
 20
0.0
 30
0.0
 70
   128
 71
   57
 72
   16
 73
   17
  0
VERTEX
  8
Triangle_Set_ncl1_1
 62
   253
 10
0.0
 20
0.0
 30
0.0
 70
   128
 71
   18
 72
   20
 73
   19
  0
VERTEX
  8
Triangle_Set_ncl1_1
 62
   253
 10
0.0
 20
0.0
 30
0.0
 70
   128
 71
   18
 72
   17
 73
   14
  0
VERTEX
  8
Triangle_Set_ncl1_1
 62
   253
 10
0.0
 20
0.0
 30
0.0
 70
   128
 71
   20
 72
   18
 73
   21
  0
VERTEX
  8
Triangle_Set_ncl1_1
 62
   253
 10
0.0
 20
0.0
 30
0.0
 70
   128
 71
   21
 72
   18
 73
   22
  0
VERTEX
  8
Triangle_Set_ncl1_1
 62
   253
 10
0.0
 20
0.0
 30
0.0
 70
   128
 71
   64
 72
   21
 73
   63
  0
VERTEX
  8
Triangle_Set_ncl1_1
 62
   253
 10
0.0
 20
0.0
 30
0.0
 70
   128
 71
   63
 72
   21
 73
   62
  0
VERTEX
  8
Triangle_Set_ncl1_1
 62
   253
 10
0.0
 20
0.0
 30
0.0
 70
   128
 71
   62
 72
   21
 73
   61
  0
VERTEX
  8
Triangle_Set_ncl1_1
 62
   253
 10
0.0
 20
0.0
 30
0.0
 70
   128
 71
   61
 72
   21
 73
   60
  0
VERTEX
  8
Triangle_Set_ncl1_1
 62
   253
 10
0.0
 20
0.0
 30
0.0
 70
   128
 71
   60
 72
   21
 73
   59
  0
VERTEX
  8
Triangle_Set_ncl1_1
 62
   253
 10
0.0
 20
0.0
 30
0.0
 70
   128
 71
   59
 72
   21
 73
   58
  0
VERTEX
  8
Triangle_Set_ncl1_1
 62
   253
 10
0.0
 20
0.0
 30
0.0
 70
   128
 71
   58
 72
   21
 73
   22
  0
VERTEX
  8
Triangle_Set_ncl1_1
 62
   253
 10
0.0
 20
0.0
 30
0.0
 70
   128
 71
   17
 72
   16
 73
   47
  0
VERTEX
  8
Triangle_Set_ncl1_1
 62
   253
 10
0.0
 20
0.0
 30
0.0
 70
   128
 71
   22
 72
   18
 73
   14
  0
VERTEX
  8
Triangle_Set_ncl1_1
 62
   253
 10
0.0
 20
0.0
 30
0.0
 70
   128
 71
   14
 72
   17
 73
   50
  0
VERTEX
  8
Triangle_Set_ncl1_1
 62
   253
 10
0.0
 20
0.0
 30
0.0
 70
   128
 71
   50
 72
   17
 73
   49
  0
VERTEX
  8
Triangle_Set_ncl1_1
 62
   253
 10
0.0
 20
0.0
 30
0.0
 70
   128
 71
   16
 72
   15
 73
   4
  0
VERTEX
  8
Triangle_Set_ncl1_1
 62
   253
 10
0.0
 20
0.0
 30
0.0
 70
   128
 71
   49
 72
   17
 73
   48
  0
VERTEX
  8
Triangle_Set_ncl1_1
 62
   253
 10
0.0
 20
0.0
 30
0.0
 70
   128
 71
   48
 72
   17
 73
   47
  0
VERTEX
  8
Triangle_Set_ncl1_1
 62
   253
 10
0.0
 20
0.0
 30
0.0
 70
   128
 71
   47
 72
   16
 73
   46
  0
VERTEX
  8
Triangle_Set_ncl1_1
 62
   253
 10
0.0
 20
0.0
 30
0.0
 70
   128
 71
   46
 72
   16
 73
   45
  0
VERTEX
  8
Triangle_Set_ncl1_1
 62
   253
 10
0.0
 20
0.0
 30
0.0
 70
   128
 71
   45
 72
   16
 73
   44
  0
VERTEX
  8
Triangle_Set_ncl1_1
 62
   253
 10
0.0
 20
0.0
 30
0.0
 70
   128
 71
   44
 72
   16
 73
   4
  0
VERTEX
  8
Triangle_Set_ncl1_1
 62
   253
 10
0.0
 20
0.0
 30
0.0
 70
   128
 71
   4
 72
   15
 73
   3
  0
VERTEX
  8
Triangle_Set_ncl1_1
 62
   253
 10
0.0
 20
0.0
 30
0.0
 70
   128
 71
   15
 72
   6
 73
   5
  0
VERTEX
  8
Triangle_Set_ncl1_1
 62
   253
 10
0.0
 20
0.0
 30
0.0
 70
   128
 71
   6
 72
   15
 73
   16
  0
VERTEX
  8
Triangle_Set_ncl1_1
 62
   253
 10
0.0
 20
0.0
 30
0.0
 70
   128
 71
   6
 72
   16
 73
   37
  0
VERTEX
  8
Triangle_Set_ncl1_1
 62
   253
 10
0.0
 20
0.0
 30
0.0
 70
   128
 71
   37
 72
   16
 73
   51
  0
VERTEX
  8
Triangle_Set_ncl1_1
 62
   253
 10
0.0
 20
0.0
 30
0.0
 70
   128
 71
   38
 72
   37
 73
   52
  0
VERTEX
  8
Triangle_Set_ncl1_1
 62
   253
 10
0.0
 20
0.0
 30
0.0
 70
   128
 71
   39
 72
   38
 73
   53
  0
VERTEX
  8
Triangle_Set_ncl1_1
 62
   253
 10
0.0
 20
0.0
 30
0.0
 70
   128
 71
   40
 72
   39
 73
   54
  0
VERTEX
  8
Triangle_Set_ncl1_1
 62
   253
 10
0.0
 20
0.0
 30
0.0
 70
   128
 71
   41
 72
   40
 73
   55
  0
VERTEX
  8
Triangle_Set_ncl1_1
 62
   253
 10
0.0
 20
0.0
 30
0.0
 70
   128
 71
   42
 72
   41
 73
   56
  0
VERTEX
  8
Triangle_Set_ncl1_1
 62
   253
 10
0.0
 20
0.0
 30
0.0
 70
   128
 71
   43
 72
   42
 73
   57
  0
VERTEX
  8
Triangle_Set_ncl1_1
 62
   253
 10
0.0
 20
0.0
 30
0.0
 70
   128
 71
   13
 72
   43
 73
   17
  0
VERTEX
  8
Triangle_Set_ncl1_1
 62
   253
 10
0.0
 20
0.0
 30
0.0
 70
   128
 71
   17
 72
   43
 73
   57
  0
VERTEX
  8
Triangle_Set_ncl1_1
 62
   253
 10
0.0
 20
0.0
 30
0.0
 70
   128
 71
   57
 72
   42
 73
   56
  0
VERTEX
  8
Triangle_Set_ncl1_1
 62
   253
 10
0.0
 20
0.0
 30
0.0
 70
   128
 71
   56
 72
   41
 73
   55
  0
VERTEX
  8
Triangle_Set_ncl1_1
 62
   253
 10
0.0
 20
0.0
 30
0.0
 70
   128
 71
   55
 72
   40
 73
   54
  0
VERTEX
  8
Triangle_Set_ncl1_1
 62
   253
 10
0.0
 20
0.0
 30
0.0
 70
   128
 71
   54
 72
   39
 73
   53
  0
VERTEX
  8
Triangle_Set_ncl1_1
 62
   253
 10
0.0
 20
0.0
 30
0.0
 70
   128
 71
   53
 72
   38
 73
   52
  0
VERTEX
  8
Triangle_Set_ncl1_1
 62
   253
 10
0.0
 20
0.0
 30
0.0
 70
   128
 71
   52
 72
   37
 73
   51
  0
VERTEX
  8
Triangle_Set_ncl1_1
 62
   253
 10
0.0
 20
0.0
 30
0.0
 70
   128
 71
   17
 72
   18
 73
   13
  0
VERTEX
  8
Triangle_Set_ncl1_1
 62
   253
 10
0.0
 20
0.0
 30
0.0
 70
   128
 71
   13
 72
   18
 73
   12
  0
VERTEX
  8
Triangle_Set_ncl1_1
 62
   253
 10
0.0
 20
0.0
 30
0.0
 70
   128
 71
   18
 72
   11
 73
   12
  0
VERTEX
  8
Triangle_Set_ncl1_1
 62
   253
 10
0.0
 20
0.0
 30
0.0
 70
   128
 71
   11
 72
   18
 73
   19
  0
VERTEX
  8
Triangle_Set_ncl1_1
 62
   253
 10
0.0
 20
0.0
 30
0.0
 70
   128
 71
   20
 72
   11
 73
   19
  0
VERTEX
  8
Triangle_Set_ncl1_1
 62
   253
 10
0.0
 20
0.0
 30
0.0
 70
   128
 71
   11
 72
   20
 73
   10
  0
VERTEX
  8
Triangle_Set_ncl1_1
 62
   253
 10
0.0
 20
0.0
 30
0.0
 70
   128
 71
   7
 72
   22
 73
   14
  0
VERTEX
  8
Triangle_Set_ncl1_1
 62
   253
 10
0.0
 20
0.0
 30
0.0
 70
   128
 71
   22
 72
   7
 73
   8
  0
VERTEX
  8
Triangle_Set_ncl1_1
 62
   253
 10
0.0
 20
0.0
 30
0.0
 70
   128
 71
   20
 72
   21
 73
   10
  0
VERTEX
  8
Triangle_Set_ncl1_1
 62
   253
 10
0.0
 20
0.0
 30
0.0
 70
   128
 71
   10
 72
   21
 73
   9
  0
VERTEX
  8
Triangle_Set_ncl1_1
 62
   253
 10
0.0
 20
0.0
 30
0.0
 70
   128
 71
   61
 72
   60
 73
   33
  0
VERTEX
  8
Triangle_Set_ncl1_1
 62
   253
 10
0.0
 20
0.0
 30
0.0
 70
   128
 71
   62
 72
   61
 73
   34
  0
VERTEX
  8
Triangle_Set_ncl1_1
 62
   253
 10
0.0
 20
0.0
 30
0.0
 70
   128
 71
   63
 72
   62
 73
   35
  0
VERTEX
  8
Triangle_Set_ncl1_1
 62
   253
 10
0.0
 20
0.0
 30
0.0
 70
   128
 71
   64
 72
   63
 73
   36
  0
VERTEX
  8
Triangle_Set_ncl1_1
 62
   253
 10
0.0
 20
0.0
 30
0.0
 70
   128
 71
   21
 72
   64
 73
   9
  0
VERTEX
  8
Triangle_Set_ncl1_1
 62
   253
 10
0.0
 20
0.0
 30
0.0
 70
   128
 71
   60
 72
   59
 73
   32
  0
VERTEX
  8
Triangle_Set_ncl1_1
 62
   253
 10
0.0
 20
0.0
 30
0.0
 70
   128
 71
   9
 72
   64
 73
   36
  0
VERTEX
  8
Triangle_Set_ncl1_1
 62
   253
 10
0.0
 20
0.0
 30
0.0
 70
   128
 71
   36
 72
   63
 73
   35
  0
VERTEX
  8
Triangle_Set_ncl1_1
 62
   253
 10
0.0
 20
0.0
 30
0.0
 70
   128
 71
   59
 72
   58
 73
   31
  0
VERTEX
  8
Triangle_Set_ncl1_1
 62
   253
 10
0.0
 20
0.0
 30
0.0
 70
   128
 71
   35
 72
   62
 73
   34
  0
VERTEX
  8
Triangle_Set_ncl1_1
 62
   253
 10
0.0
 20
0.0
 30
0.0
 70
   128
 71
   58
 72
   22
 73
   30
  0
VERTEX
  8
Triangle_Set_ncl1_1
 62
   253
 10
0.0
 20
0.0
 30
0.0
 70
   128
 71
   34
 72
   61
 73
   33
  0
VERTEX
  8
Triangle_Set_ncl1_1
 62
   253
 10
0.0
 20
0.0
 30
0.0
 70
   128
 71
   33
 72
   60
 73
   32
  0
VERTEX
  8
Triangle_Set_ncl1_1
 62
   253
 10
0.0
 20
0.0
 30
0.0
 70
   128
 71
   32
 72
   59
 73
   31
  0
VERTEX
  8
Triangle_Set_ncl1_1
 62
   253
 10
0.0
 20
0.0
 30
0.0
 70
   128
 71
   31
 72
   58
 73
   30
  0
VERTEX
  8
Triangle_Set_ncl1_1
 62
   253
 10
0.0
 20
0.0
 30
0.0
 70
   128
 71
   30
 72
   22
 73
   8
  0
SEQEND
  0
POLYLINE
  8
Triangle_Set_ncl1_2
 62
   253
 66
   1
 10
0.0
 20
0.0
 30
0.0
 70
   64
 71
   64
 72
   124
  0
VERTEX
  8
Triangle_Set_ncl1_2
 10
-0.135000
 20
-0.077250
 30
0.017750
 70
   192
  0
VERTEX
  8
Triangle_Set_ncl1_2
 10
-0.119615
 20
-0.077250
 30
0.017750
 70
   192
  0
VERTEX
  8
Triangle_Set_ncl1_2
 10
-0.135000
 20
-0.112750
 30
0.017750
 70
   192
  0
VERTEX
  8
Triangle_Set_ncl1_2
 10
-0.119615
 20
-0.112750
 30
0.017750
 70
   192
  0
VERTEX
  8
Triangle_Set_ncl1_2
 10
-0.135000
 20
-0.077250
 30
0.000000
 70
   192
  0
VERTEX
  8
Triangle_Set_ncl1_2
 10
-0.106538
 20
-0.077250
 30
0.000000
 70
   192
  0
VERTEX
  8
Triangle_Set_ncl1_2
 10
-0.111139
 20
-0.077250
 30
0.023994
 70
   192
  0
VERTEX
  8
Triangle_Set_ncl1_2
 10
-0.096390
 20
-0.077250
 30
0.071517
 70
   192
  0
VERTEX
  8
Triangle_Set_ncl1_2
 10
-0.087914
 20
-0.077250
 30
0.077761
 70
   192
  0
VERTEX
  8
Triangle_Set_ncl1_2
 10
-0.077500
 20
-0.077250
 30
0.077761
 70
   192
  0
VERTEX
  8
Triangle_Set_ncl1_2
 10
-0.077500
 20
-0.077250
 30
0.060011
 70
   192
  0
VERTEX
  8
Triangle_Set_ncl1_2
 10
-0.081376
 20
-0.077250
 30
0.060011
 70
   192
  0
VERTEX
  8
Triangle_Set_ncl1_2
 10
-0.098062
 20
-0.077250
 30
0.006244
 70
   192
  0
VERTEX
  8
Triangle_Set_ncl1_2
 10
-0.111139
 20
-0.112750
 30
0.023994
 70
   192
  0
VERTEX
  8
Triangle_Set_ncl1_2
 10
-0.135000
 20
-0.112750
 30
0.000000
 70
   192
  0
VERTEX
  8
Triangle_Set_ncl1_2
 10
-0.106538
 20
-0.112750
 30
0.000000
 70
   192
  0
VERTEX
  8
Triangle_Set_ncl1_2
 10
-0.098062
 20
-0.112750
 30
0.006244
 70
   192
  0
VERTEX
  8
Triangle_Set_ncl1_2
 10
-0.081376
 20
-0.112750
 30
0.060011
 70
   192
  0
VERTEX
  8
Triangle_Set_ncl1_2
 10
-0.077500
 20
-0.112750
 30
0.060011
 70
   192
  0
VERTEX
  8
Triangle_Set_ncl1_2
 10
-0.077500
 20
-0.112750
 30
0.077761
 70
   192
  0
VERTEX
  8
Triangle_Set_ncl1_2
 10
-0.087914
 20
-0.112750
 30
0.077761
 70
   192
  0
VERTEX
  8
Triangle_Set_ncl1_2
 10
-0.096390
 20
-0.112750
 30
0.071517
 70
   192
  0
VERTEX
  8
Triangle_Set_ncl1_2
 10
-0.118212
 20
-0.077250
 30
0.017862
 70
   192
  0
VERTEX
  8
Triangle_Set_ncl1_2
 10
-0.116844
 20
-0.077250
 30
0.018193
 70
   192
  0
VERTEX
  8
Triangle_Set_ncl1_2
 10
-0.115546
 20
-0.077250
 30
0.018737
 70
   192
  0
VERTEX
  8
Triangle_Set_ncl1_2
 10
-0.114351
 20
-0.077250
 30
0.019480
 70
   192
  0
VERTEX
  8
Triangle_Set_ncl1_2
 10
-0.113287
 20
-0.077250
 30
0.020402
 70
   192
  0
VERTEX
  8
Triangle_Set_ncl1_2
 10
-0.112383
 20
-0.077250
 30
0.021480
 70
   192
  0
VERTEX
  8
Triangle_Set_ncl1_2
 10
-0.111661
 20
-0.077250
 30
0.022688
 70
   192
  0
VERTEX
  8
Triangle_Set_ncl1_2
 10
-0.095868
 20
-0.077250
 30
0.072823
 70
   192
  0
VERTEX
  8
Triangle_Set_ncl1_2
 10
-0.095146
 20
-0.077250
 30
0.074031
 70
   192
  0
VERTEX
  8
Triangle_Set_ncl1_2
 10
-0.094241
 20
-0.077250
 30
0.075110
 70
   192
  0
VERTEX
  8
Triangle_Set_ncl1_2
 10
-0.093178
 20
-0.077250
 30
0.076031
 70
   192
  0
VERTEX
  8
Triangle_Set_ncl1_2
 10
-0.091983
 20
-0.077250
 30
0.076774
 70
   192
  0
VERTEX
  8
Triangle_Set_ncl1_2
 10
-0.090685
 20
-0.077250
 30
0.077318
 70
   192
  0
VERTEX
  8
Triangle_Set_ncl1_2
 10
-0.089317
 20
-0.077250
 30
0.077650
 70
   192
  0
VERTEX
  8
Triangle_Set_ncl1_2
 10
-0.105135
 20
-0.077250
 30
0.000112
 70
   192
  0
VERTEX
  8
Triangle_Set_ncl1_2
 10
-0.103768
 20
-0.077250
 30
0.000443
 70
   192
  0
VERTEX
  8
Triangle_Set_ncl1_2
 10
-0.102470
 20
-0.077250
 30
0.000987
 70
   192
  0
VERTEX
  8
Triangle_Set_ncl1_2
 10
-0.101274
 20
-0.077250
 30
0.001730
 70
   192
  0
VERTEX
  8
Triangle_Set_ncl1_2
 10
-0.100211
 20
-0.077250
 30
0.002652
 70
   192
  0
VERTEX
  8
Triangle_Set_ncl1_2
 10
-0.099307
 20
-0.077250
 30
0.003730
 70
   192
  0
VERTEX
  8
Triangle_Set_ncl1_2
 10
-0.098584
 20
-0.077250
 30
0.004938
 70
   192
  0
VERTEX
  8
Triangle_Set_ncl1_2
 10
-0.118212
 20
-0.112750
 30
0.017862
 70
   192
  0
VERTEX
  8
Triangle_Set_ncl1_2
 10
-0.116844
 20
-0.112750
 30
0.018193
 70
   192
  0
VERTEX
  8
Triangle_Set_ncl1_2
 10
-0.115546
 20
-0.112750
 30
0.018737
 70
   192
  0
VERTEX
  8
Triangle_Set_ncl1_2
 10
-0.114351
 20
-0.112750
 30
0.019480
 70
   192
  0
VERTEX
  8
Triangle_Set_ncl1_2
 10
-0.113287
 20
-0.112750
 30
0.020402
 70
   192
  0
VERTEX
  8
Triangle_Set_ncl1_2
 10
-0.112383
 20
-0.112750
 30
0.021480
 70
   192
  0
VERTEX
  8
Triangle_Set_ncl1_2
 10
-0.111661
 20
-0.112750
 30
0.022688
 70
   192
  0
VERTEX
  8
Triangle_Set_ncl1_2
 10
-0.105135
 20
-0.112750
 30
0.000112
 70
   192
  0
VERTEX
  8
Triangle_Set_ncl1_2
 10
-0.103768
 20
-0.112750
 30
0.000443
 70
   192
  0
VERTEX
  8
Triangle_Set_ncl1_2
 10
-0.102470
 20
-0.112750
 30
0.000987
 70
   192
  0
VERTEX
  8
Triangle_Set_ncl1_2
 10
-0.101274
 20
-0.112750
 30
0.001730
 70
   192
  0
VERTEX
  8
Triangle_Set_ncl1_2
 10
-0.100211
 20
-0.112750
 30
0.002652
 70
   192
  0
VERTEX
  8
Triangle_Set_ncl1_2
 10
-0.099307
 20
-0.112750
 30
0.003730
 70
   192
  0
VERTEX
  8
Triangle_Set_ncl1_2
 10
-0.098584
 20
-0.112750
 30
0.004938
 70
   192
  0
VERTEX
  8
Triangle_Set_ncl1_2
 10
-0.095868
 20
-0.112750
 30
0.072823
 70
   192
  0
VERTEX
  8
Triangle_Set_ncl1_2
 10
-0.095146
 20
-0.112750
 30
0.074031
 70
   192
  0
VERTEX
  8
Triangle_Set_ncl1_2
 10
-0.094241
 20
-0.112750
 30
0.075110
 70
   192
  0
VERTEX
  8
Triangle_Set_ncl1_2
 10
-0.093178
 20
-0.112750
 30
0.076031
 70
   192
  0
VERTEX
  8
Triangle_Set_ncl1_2
 10
-0.091983
 20
-0.112750
 30
0.076774
 70
   192
  0
VERTEX
  8
Triangle_Set_ncl1_2
 10
-0.090685
 20
-0.112750
 30
0.077318
 70
   192
  0
VERTEX
  8
Triangle_Set_ncl1_2
 10
-0.089317
 20
-0.112750
 30
0.077650
 70
   192
  0
VERTEX
  8
Triangle_Set_ncl1_2
 62
   253
 10
0.0
 20
0.0
 30
0.0
 70
   128
 71
   2
 72
   3
 73
   1
  0
VERTEX
  8
Triangle_Set_ncl1_2
 62
   253
 10
0.0
 20
0.0
 30
0.0
 70
   128
 71
   3
 72
   2
 73
   4
  0
VERTEX
  8
Triangle_Set_ncl1_2
 62
   253
 10
0.0
 20
0.0
 30
0.0
 70
   128
 71
   5
 72
   6
 73
   2
  0
VERTEX
  8
Triangle_Set_ncl1_2
 62
   253
 10
0.0
 20
0.0
 30
0.0
 70
   128
 71
   1
 72
   5
 73
   2
  0
VERTEX
  8
Triangle_Set_ncl1_2
 62
   253
 10
0.0
 20
0.0
 30
0.0
 70
   128
 71
   2
 72
   6
 73
   23
  0
VERTEX
  8
Triangle_Set_ncl1_2
 62
   253
 10
0.0
 20
0.0
 30
0.0
 70
   128
 71
   23
 72
   6
 73
   24
  0
VERTEX
  8
Triangle_Set_ncl1_2
 62
   253
 10
0.0
 20
0.0
 30
0.0
 70
   128
 71
   24
 72
   6
 73
   25
  0
VERTEX
  8
Triangle_Set_ncl1_2
 62
   253
 10
0.0
 20
0.0
 30
0.0
 70
   128
 71
   25
 72
   6
 73
   26
  0
VERTEX
  8
Triangle_Set_ncl1_2
 62
   253
 10
0.0
 20
0.0
 30
0.0
 70
   128
 71
   26
 72
   6
 73
   13
  0
VERTEX
  8
Triangle_Set_ncl1_2
 62
   253
 10
0.0
 20
0.0
 30
0.0
 70
   128
 71
   27
 72
   26
 73
   13
  0
VERTEX
  8
Triangle_Set_ncl1_2
 62
   253
 10
0.0
 20
0.0
 30
0.0
 70
   128
 71
   28
 72
   27
 73
   13
  0
VERTEX
  8
Triangle_Set_ncl1_2
 62
   253
 10
0.0
 20
0.0
 30
0.0
 70
   128
 71
   29
 72
   28
 73
   13
  0
VERTEX
  8
Triangle_Set_ncl1_2
 62
   253
 10
0.0
 20
0.0
 30
0.0
 70
   128
 71
   7
 72
   29
 73
   13
  0
VERTEX
  8
Triangle_Set_ncl1_2
 62
   253
 10
0.0
 20
0.0
 30
0.0
 70
   128
 71
   7
 72
   13
 73
   12
  0
VERTEX
  8
Triangle_Set_ncl1_2
 62
   253
 10
0.0
 20
0.0
 30
0.0
 70
   128
 71
   30
 72
   8
 73
   31
  0
VERTEX
  8
Triangle_Set_ncl1_2
 62
   253
 10
0.0
 20
0.0
 30
0.0
 70
   128
 71
   31
 72
   8
 73
   32
  0
VERTEX
  8
Triangle_Set_ncl1_2
 62
   253
 10
0.0
 20
0.0
 30
0.0
 70
   128
 71
   32
 72
   8
 73
   33
  0
VERTEX
  8
Triangle_Set_ncl1_2
 62
   253
 10
0.0
 20
0.0
 30
0.0
 70
   128
 71
   33
 72
   8
 73
   34
  0
VERTEX
  8
Triangle_Set_ncl1_2
 62
   253
 10
0.0
 20
0.0
 30
0.0
 70
   128
 71
   34
 72
   8
 73
   35
  0
VERTEX
  8
Triangle_Set_ncl1_2
 62
   253
 10
0.0
 20
0.0
 30
0.0
 70
   128
 71
   35
 72
   8
 73
   36
  0
VERTEX
  8
Triangle_Set_ncl1_2
 62
   253
 10
0.0
 20
0.0
 30
0.0
 70
   128
 71
   36
 72
   8
 73
   9
  0
VERTEX
  8
Triangle_Set_ncl1_2
 62
   253
 10
0.0
 20
0.0
 30
0.0
 70
   128
 71
   9
 72
   8
 73
   12
  0
VERTEX
  8
Triangle_Set_ncl1_2
 62
   253
 10
0.0
 20
0.0
 30
0.0
 70
   128
 71
   10
 72
   9
 73
   12
  0
VERTEX
  8
Triangle_Set_ncl1_2
 62
   253
 10
0.0
 20
0.0
 30
0.0
 70
   128
 71
   8
 72
   7
 73
   12
  0
VERTEX
  8
Triangle_Set_ncl1_2
 62
   253
 10
0.0
 20
0.0
 30
0.0
 70
   128
 71
   11
 72
   10
 73
   12
  0
VERTEX
  8
Triangle_Set_ncl1_2
 62
   253
 10
0.0
 20
0.0
 30
0.0
 70
   128
 71
   13
 72
   6
 73
   43
  0
VERTEX
  8
Triangle_Set_ncl1_2
 62
   253
 10
0.0
 20
0.0
 30
0.0
 70
   128
 71
   43
 72
   6
 73
   42
  0
VERTEX
  8
Triangle_Set_ncl1_2
 62
   253
 10
0.0
 20
0.0
 30
0.0
 70
   128
 71
   42
 72
   6
 73
   41
  0
VERTEX
  8
Triangle_Set_ncl1_2
 62
   253
 10
0.0
 20
0.0
 30
0.0
 70
   128
 71
   41
 72
   6
 73
   40
  0
VERTEX
  8
Triangle_Set_ncl1_2
 62
   253
 10
0.0
 20
0.0
 30
0.0
 70
   128
 71
   40
 72
   6
 73
   39
  0
VERTEX
  8
Triangle_Set_ncl1_2
 62
   253
 10
0.0
 20
0.0
 30
0.0
 70
   128
 71
   39
 72
   6
 73
   38
  0
VERTEX
  8
Triangle_Set_ncl1_2
 62
   253
 10
0.0
 20
0.0
 30
0.0
 70
   128
 71
   38
 72
   6
 73
   37
  0
VERTEX
  8
Triangle_Set_ncl1_2
 62
   253
 10
0.0
 20
0.0
 30
0.0
 70
   128
 71
   4
 72
   2
 73
   23
  0
VERTEX
  8
Triangle_Set_ncl1_2
 62
   253
 10
0.0
 20
0.0
 30
0.0
 70
   128
 71
   4
 72
   23
 73
   44
  0
VERTEX
  8
Triangle_Set_ncl1_2
 62
   253
 10
0.0
 20
0.0
 30
0.0
 70
   128
 71
   23
 72
   24
 73
   45
  0
VERTEX
  8
Triangle_Set_ncl1_2
 62
   253
 10
0.0
 20
0.0
 30
0.0
 70
   128
 71
   24
 72
   25
 73
   46
  0
VERTEX
  8
Triangle_Set_ncl1_2
 62
   253
 10
0.0
 20
0.0
 30
0.0
 70
   128
 71
   25
 72
   26
 73
   47
  0
VERTEX
  8
Triangle_Set_ncl1_2
 62
   253
 10
0.0
 20
0.0
 30
0.0
 70
   128
 71
   26
 72
   27
 73
   48
  0
VERTEX
  8
Triangle_Set_ncl1_2
 62
   253
 10
0.0
 20
0.0
 30
0.0
 70
   128
 71
   27
 72
   28
 73
   49
  0
VERTEX
  8
Triangle_Set_ncl1_2
 62
   253
 10
0.0
 20
0.0
 30
0.0
 70
   128
 71
   28
 72
   29
 73
   50
  0
VERTEX
  8
Triangle_Set_ncl1_2
 62
   253
 10
0.0
 20
0.0
 30
0.0
 70
   128
 71
   29
 72
   7
 73
   14
  0
VERTEX
  8
Triangle_Set_ncl1_2
 62
   253
 10
0.0
 20
0.0
 30
0.0
 70
   128
 71
   29
 72
   14
 73
   50
  0
VERTEX
  8
Triangle_Set_ncl1_2
 62
   253
 10
0.0
 20
0.0
 30
0.0
 70
   128
 71
   28
 72
   50
 73
   49
  0
VERTEX
  8
Triangle_Set_ncl1_2
 62
   253
 10
0.0
 20
0.0
 30
0.0
 70
   128
 71
   27
 72
   49
 73
   48
  0
VERTEX
  8
Triangle_Set_ncl1_2
 62
   253
 10
0.0
 20
0.0
 30
0.0
 70
   128
 71
   26
 72
   48
 73
   47
  0
VERTEX
  8
Triangle_Set_ncl1_2
 62
   253
 10
0.0
 20
0.0
 30
0.0
 70
   128
 71
   25
 72
   47
 73
   46
  0
VERTEX
  8
Triangle_Set_ncl1_2
 62
   253
 10
0.0
 20
0.0
 30
0.0
 70
   128
 71
   24
 72
   46
 73
   45
  0
VERTEX
  8
Triangle_Set_ncl1_2
 62
   253
 10
0.0
 20
0.0
 30
0.0
 70
   128
 71
   23
 72
   45
 73
   44
  0
VERTEX
  8
Triangle_Set_ncl1_2
 62
   253
 10
0.0
 20
0.0
 30
0.0
 70
   128
 71
   5
 72
   3
 73
   15
  0
VERTEX
  8
Triangle_Set_ncl1_2
 62
   253
 10
0.0
 20
0.0
 30
0.0
 70
   128
 71
   3
 72
   5
 73
   1
  0
VERTEX
  8
Triangle_Set_ncl1_2
 62
   253
 10
0.0
 20
0.0
 30
0.0
 70
   128
 71
   51
 72
   16
 73
   52
  0
VERTEX
  8
Triangle_Set_ncl1_2
 62
   253
 10
0.0
 20
0.0
 30
0.0
 70
   128
 71
   52
 72
   16
 73
   53
  0
VERTEX
  8
Triangle_Set_ncl1_2
 62
   253
 10
0.0
 20
0.0
 30
0.0
 70
   128
 71
   53
 72
   16
 73
   54
  0
VERTEX
  8
Triangle_Set_ncl1_2
 62
   253
 10
0.0
 20
0.0
 30
0.0
 70
   128
 71
   54
 72
   16
 73
   55
  0
VERTEX
  8
Triangle_Set_ncl1_2
 62
   253
 10
0.0
 20
0.0
 30
0.0
 70
   128
 71
   55
 72
   16
 73
   56
  0
VERTEX
  8
Triangle_Set_ncl1_2
 62
   253
 10
0.0
 20
0.0
 30
0.0
 70
   128
 71
   56
 72
   16
 73
   57
  0
VERTEX
  8
Triangle_Set_ncl1_2
 62
   253
 10
0.0
 20
0.0
 30
0.0
 70
   128
 71
   57
 72
   16
 73
   17
  0
VERTEX
  8
Triangle_Set_ncl1_2
 62
   253
 10
0.0
 20
0.0
 30
0.0
 70
   128
 71
   18
 72
   20
 73
   19
  0
VERTEX
  8
Triangle_Set_ncl1_2
 62
   253
 10
0.0
 20
0.0
 30
0.0
 70
   128
 71
   18
 72
   17
 73
   14
  0
VERTEX
  8
Triangle_Set_ncl1_2
 62
   253
 10
0.0
 20
0.0
 30
0.0
 70
   128
 71
   20
 72
   18
 73
   21
  0
VERTEX
  8
Triangle_Set_ncl1_2
 62
   253
 10
0.0
 20
0.0
 30
0.0
 70
   128
 71
   21
 72
   18
 73
   22
  0
VERTEX
  8
Triangle_Set_ncl1_2
 62
   253
 10
0.0
 20
0.0
 30
0.0
 70
   128
 71
   64
 72
   21
 73
   63
  0
VERTEX
  8
Triangle_Set_ncl1_2
 62
   253
 10
0.0
 20
0.0
 30
0.0
 70
   128
 71
   63
 72
   21
 73
   62
  0
VERTEX
  8
Triangle_Set_ncl1_2
 62
   253
 10
0.0
 20
0.0
 30
0.0
 70
   128
 71
   62
 72
   21
 73
   61
  0
VERTEX
  8
Triangle_Set_ncl1_2
 62
   253
 10
0.0
 20
0.0
 30
0.0
 70
   128
 71
   61
 72
   21
 73
   60
  0
VERTEX
  8
Triangle_Set_ncl1_2
 62
   253
 10
0.0
 20
0.0
 30
0.0
 70
   128
 71
   60
 72
   21
 73
   59
  0
VERTEX
  8
Triangle_Set_ncl1_2
 62
   253
 10
0.0
 20
0.0
 30
0.0
 70
   128
 71
   59
 72
   21
 73
   58
  0
VERTEX
  8
Triangle_Set_ncl1_2
 62
   253
 10
0.0
 20
0.0
 30
0.0
 70
   128
 71
   58
 72
   21
 73
   22
  0
VERTEX
  8
Triangle_Set_ncl1_2
 62
   253
 10
0.0
 20
0.0
 30
0.0
 70
   128
 71
   17
 72
   16
 73
   47
  0
VERTEX
  8
Triangle_Set_ncl1_2
 62
   253
 10
0.0
 20
0.0
 30
0.0
 70
   128
 71
   22
 72
   18
 73
   14
  0
VERTEX
  8
Triangle_Set_ncl1_2
 62
   253
 10
0.0
 20
0.0
 30
0.0
 70
   128
 71
   14
 72
   17
 73
   50
  0
VERTEX
  8
Triangle_Set_ncl1_2
 62
   253
 10
0.0
 20
0.0
 30
0.0
 70
   128
 71
   50
 72
   17
 73
   49
  0
VERTEX
  8
Triangle_Set_ncl1_2
 62
   253
 10
0.0
 20
0.0
 30
0.0
 70
   128
 71
   16
 72
   15
 73
   4
  0
VERTEX
  8
Triangle_Set_ncl1_2
 62
   253
 10
0.0
 20
0.0
 30
0.0
 70
   128
 71
   49
 72
   17
 73
   48
  0
VERTEX
  8
Triangle_Set_ncl1_2
 62
   253
 10
0.0
 20
0.0
 30
0.0
 70
   128
 71
   48
 72
   17
 73
   47
  0
VERTEX
  8
Triangle_Set_ncl1_2
 62
   253
 10
0.0
 20
0.0
 30
0.0
 70
   128
 71
   47
 72
   16
 73
   46
  0
VERTEX
  8
Triangle_Set_ncl1_2
 62
   253
 10
0.0
 20
0.0
 30
0.0
 70
   128
 71
   46
 72
   16
 73
   45
  0
VERTEX
  8
Triangle_Set_ncl1_2
 62
   253
 10
0.0
 20
0.0
 30
0.0
 70
   128
 71
   45
 72
   16
 73
   44
  0
VERTEX
  8
Triangle_Set_ncl1_2
 62
   253
 10
0.0
 20
0.0
 30
0.0
 70
   128
 71
   44
 72
   16
 73
   4
  0
VERTEX
  8
Triangle_Set_ncl1_2
 62
   253
 10
0.0
 20
0.0
 30
0.0
 70
   128
 71
   4
 72
   15
 73
   3
  0
VERTEX
  8
Triangle_Set_ncl1_2
 62
   253
 10
0.0
 20
0.0
 30
0.0
 70
   128
 71
   15
 72
   6
 73
   5
  0
VERTEX
  8
Triangle_Set_ncl1_2
 62
   253
 10
0.0
 20
0.0
 30
0.0
 70
   128
 71
   6
 72
   15
 73
   16
  0
VERTEX
  8
Triangle_Set_ncl1_2
 62
   253
 10
0.0
 20
0.0
 30
0.0
 70
   128
 71
   6
 72
   16
 73
   37
  0
VERTEX
  8
Triangle_Set_ncl1_2
 62
   253
 10
0.0
 20
0.0
 30
0.0
 70
   128
 71
   37
 72
   16
 73
   51
  0
VERTEX
  8
Triangle_Set_ncl1_2
 62
   253
 10
0.0
 20
0.0
 30
0.0
 70
   128
 71
   38
 72
   37
 73
   52
  0
VERTEX
  8
Triangle_Set_ncl1_2
 62
   253
 10
0.0
 20
0.0
 30
0.0
 70
   128
 71
   39
 72
   38
 73
   53
  0
VERTEX
  8
Triangle_Set_ncl1_2
 62
   253
 10
0.0
 20
0.0
 30
0.0
 70
   128
 71
   40
 72
   39
 73
   54
  0
VERTEX
  8
Triangle_Set_ncl1_2
 62
   253
 10
0.0
 20
0.0
 30
0.0
 70
   128
 71
   41
 72
   40
 73
   55
  0
VERTEX
  8
Triangle_Set_ncl1_2
 62
   253
 10
0.0
 20
0.0
 30
0.0
 70
   128
 71
   42
 72
   41
 73
   56
  0
VERTEX
  8
Triangle_Set_ncl1_2
 62
   253
 10
0.0
 20
0.0
 30
0.0
 70
   128
 71
   43
 72
   42
 73
   57
  0
VERTEX
  8
Triangle_Set_ncl1_2
 62
   253
 10
0.0
 20
0.0
 30
0.0
 70
   128
 71
   13
 72
   43
 73
   17
  0
VERTEX
  8
Triangle_Set_ncl1_2
 62
   253
 10
0.0
 20
0.0
 30
0.0
 70
   128
 71
   17
 72
   43
 73
   57
  0
VERTEX
  8
Triangle_Set_ncl1_2
 62
   253
 10
0.0
 20
0.0
 30
0.0
 70
   128
 71
   57
 72
   42
 73
   56
  0
VERTEX
  8
Triangle_Set_ncl1_2
 62
   253
 10
0.0
 20
0.0
 30
0.0
 70
   128
 71
   56
 72
   41
 73
   55
  0
VERTEX
  8
Triangle_Set_ncl1_2
 62
   253
 10
0.0
 20
0.0
 30
0.0
 70
   128
 71
   55
 72
   40
 73
   54
  0
VERTEX
  8
Triangle_Set_ncl1_2
 62
   253
 10
0.0
 20
0.0
 30
0.0
 70
   128
 71
   54
 72
   39
 73
   53
  0
VERTEX
  8
Triangle_Set_ncl1_2
 62
   253
 10
0.0
 20
0.0
 30
0.0
 70
   128
 71
   53
 72
   38
 73
   52
  0
VERTEX
  8
Triangle_Set_ncl1_2
 62
   253
 10
0.0
 20
0.0
 30
0.0
 70
   128
 71
   52
 72
   37
 73
   51
  0
VERTEX
  8
Triangle_Set_ncl1_2
 62
   253
 10
0.0
 20
0.0
 30
0.0
 70
   128
 71
   17
 72
   18
 73
   13
  0
VERTEX
  8
Triangle_Set_ncl1_2
 62
   253
 10
0.0
 20
0.0
 30
0.0
 70
   128
 71
   13
 72
   18
 73
   12
  0
VERTEX
  8
Triangle_Set_ncl1_2
 62
   253
 10
0.0
 20
0.0
 30
0.0
 70
   128
 71
   18
 72
   11
 73
   12
  0
VERTEX
  8
Triangle_Set_ncl1_2
 62
   253
 10
0.0
 20
0.0
 30
0.0
 70
   128
 71
   11
 72
   18
 73
   19
  0
VERTEX
  8
Triangle_Set_ncl1_2
 62
   253
 10
0.0
 20
0.0
 30
0.0
 70
   128
 71
   20
 72
   11
 73
   19
  0
VERTEX
  8
Triangle_Set_ncl1_2
 62
   253
 10
0.0
 20
0.0
 30
0.0
 70
   128
 71
   11
 72
   20
 73
   10
  0
VERTEX
  8
Triangle_Set_ncl1_2
 62
   253
 10
0.0
 20
0.0
 30
0.0
 70
   128
 71
   7
 72
   22
 73
   14
  0
VERTEX
  8
Triangle_Set_ncl1_2
 62
   253
 10
0.0
 20
0.0
 30
0.0
 70
   128
 71
   22
 72
   7
 73
   8
  0
VERTEX
  8
Triangle_Set_ncl1_2
 62
   253
 10
0.0
 20
0.0
 30
0.0
 70
   128
 71
   20
 72
   21
 73
   10
  0
VERTEX
  8
Triangle_Set_ncl1_2
 62
   253
 10
0.0
 20
0.0
 30
0.0
 70
   128
 71
   10
 72
   21
 73
   9
  0
VERTEX
  8
Triangle_Set_ncl1_2
 62
   253
 10
0.0
 20
0.0
 30
0.0
 70
   128
 71
   61
 72
   60
 73
   33
  0
VERTEX
  8
Triangle_Set_ncl1_2
 62
   253
 10
0.0
 20
0.0
 30
0.0
 70
   128
 71
   62
 72
   61
 73
   34
  0
VERTEX
  8
Triangle_Set_ncl1_2
 62
   253
 10
0.0
 20
0.0
 30
0.0
 70
   128
 71
   63
 72
   62
 73
   35
  0
VERTEX
  8
Triangle_Set_ncl1_2
 62
   253
 10
0.0
 20
0.0
 30
0.0
 70
   128
 71
   64
 72
   63
 73
   36
  0
VERTEX
  8
Triangle_Set_ncl1_2
 62
   253
 10
0.0
 20
0.0
 30
0.0
 70
   128
 71
   21
 72
   64
 73
   9
  0
VERTEX
  8
Triangle_Set_ncl1_2
 62
   253
 10
0.0
 20
0.0
 30
0.0
 70
   128
 71
   60
 72
   59
 73
   32
  0
VERTEX
  8
Triangle_Set_ncl1_2
 62
   253
 10
0.0
 20
0.0
 30
0.0
 70
   128
 71
   9
 72
   64
 73
   36
  0
VERTEX
  8
Triangle_Set_ncl1_2
 62
   253
 10
0.0
 20
0.0
 30
0.0
 70
   128
 71
   36
 72
   63
 73
   35
  0
VERTEX
  8
Triangle_Set_ncl1_2
 62
   253
 10
0.0
 20
0.0
 30
0.0
 70
   128
 71
   59
 72
   58
 73
   31
  0
VERTEX
  8
Triangle_Set_ncl1_2
 62
   253
 10
0.0
 20
0.0
 30
0.0
 70
   128
 71
   35
 72
   62
 73
   34
  0
VERTEX
  8
Triangle_Set_ncl1_2
 62
   253
 10
0.0
 20
0.0
 30
0.0
 70
   128
 71
   58
 72
   22
 73
   30
  0
VERTEX
  8
Triangle_Set_ncl1_2
 62
   253
 10
0.0
 20
0.0
 30
0.0
 70
   128
 71
   34
 72
   61
 73
   33
  0
VERTEX
  8
Triangle_Set_ncl1_2
 62
   253
 10
0.0
 20
0.0
 30
0.0
 70
   128
 71
   33
 72
   60
 73
   32
  0
VERTEX
  8
Triangle_Set_ncl1_2
 62
   253
 10
0.0
 20
0.0
 30
0.0
 70
   128
 71
   32
 72
   59
 73
   31
  0
VERTEX
  8
Triangle_Set_ncl1_2
 62
   253
 10
0.0
 20
0.0
 30
0.0
 70
   128
 71
   31
 72
   58
 73
   30
  0
VERTEX
  8
Triangle_Set_ncl1_2
 62
   253
 10
0.0
 20
0.0
 30
0.0
 70
   128
 71
   30
 72
   22
 73
   8
  0
SEQEND
  0
POLYLINE
  8
Triangle_Set_ncl1_3
 62
   253
 66
   1
 10
0.0
 20
0.0
 30
0.0
 70
   64
 71
   64
 72
   124
  0
VERTEX
  8
Triangle_Set_ncl1_3
 10
0.119615
 20
0.112750
 30
0.017750
 70
   192
  0
VERTEX
  8
Triangle_Set_ncl1_3
 10
0.135000
 20
0.112750
 30
0.017750
 70
   192
  0
VERTEX
  8
Triangle_Set_ncl1_3
 10
0.119615
 20
0.077250
 30
0.017750
 70
   192
  0
VERTEX
  8
Triangle_Set_ncl1_3
 10
0.135000
 20
0.077250
 30
0.017750
 70
   192
  0
VERTEX
  8
Triangle_Set_ncl1_3
 10
0.106538
 20
0.112750
 30
0.000000
 70
   192
  0
VERTEX
  8
Triangle_Set_ncl1_3
 10
0.135000
 20
0.112750
 30
0.000000
 70
   192
  0
VERTEX
  8
Triangle_Set_ncl1_3
 10
0.098062
 20
0.112750
 30
0.006244
 70
   192
  0
VERTEX
  8
Triangle_Set_ncl1_3
 10
0.081376
 20
0.112750
 30
0.060011
 70
   192
  0
VERTEX
  8
Triangle_Set_ncl1_3
 10
0.077500
 20
0.112750
 30
0.060011
 70
   192
  0
VERTEX
  8
Triangle_Set_ncl1_3
 10
0.077500
 20
0.112750
 30
0.077761
 70
   192
  0
VERTEX
  8
Triangle_Set_ncl1_3
 10
0.087914
 20
0.112750
 30
0.077761
 70
   192
  0
VERTEX
  8
Triangle_Set_ncl1_3
 10
0.096390
 20
0.112750
 30
0.071517
 70
   192
  0
VERTEX
  8
Triangle_Set_ncl1_3
 10
0.111139
 20
0.112750
 30
0.023994
 70
   192
  0
VERTEX
  8
Triangle_Set_ncl1_3
 10
0.111139
 20
0.077250
 30
0.023994
 70
   192
  0
VERTEX
  8
Triangle_Set_ncl1_3
 10
0.135000
 20
0.077250
 30
0.000000
 70
   192
  0
VERTEX
  8
Triangle_Set_ncl1_3
 10
0.106538
 20
0.077250
 30
0.000000
 70
   192
  0
VERTEX
  8
Triangle_Set_ncl1_3
 10
0.096390
 20
0.077250
 30
0.071517
 70
   192
  0
VERTEX
  8
Triangle_Set_ncl1_3
 10
0.087914
 20
0.077250
 30
0.077761
 70
   192
  0
VERTEX
  8
Triangle_Set_ncl1_3
 10
0.077500
 20
0.077250
 30
0.077761
 70
   192
  0
VERTEX
  8
Triangle_Set_ncl1_3
 10
0.077500
 20
0.077250
 30
0.060011
 70
   192
  0
VERTEX
  8
Triangle_Set_ncl1_3
 10
0.081376
 20
0.077250
 30
0.060011
 70
   192
  0
VERTEX
  8
Triangle_Set_ncl1_3
 10
0.098062
 20
0.077250
 30
0.006244
 70
   192
  0
VERTEX
  8
Triangle_Set_ncl1_3
 10
0.105135
 20
0.112750
 30
0.000112
 70
   192
  0
VERTEX
  8
Triangle_Set_ncl1_3
 10
0.103768
 20
0.112750
 30
0.000443
 70
   192
  0
VERTEX
  8
Triangle_Set_ncl1_3
 10
0.102470
 20
0.112750
 30
0.000987
 70
   192
  0
VERTEX
  8
Triangle_Set_ncl1_3
 10
0.101274
 20
0.112750
 30
0.001730
 70
   192
  0
VERTEX
  8
Triangle_Set_ncl1_3
 10
0.100211
 20
0.112750
 30
0.002652
 70
   192
  0
VERTEX
  8
Triangle_Set_ncl1_3
 10
0.099307
 20
0.112750
 30
0.003730
 70
   192
  0
VERTEX
  8
Triangle_Set_ncl1_3
 10
0.098584
 20
0.112750
 30
0.004938
 70
   192
  0
VERTEX
  8
Triangle_Set_ncl1_3
 10
0.095868
 20
0.112750
 30
0.072823
 70
   192
  0
VERTEX
  8
Triangle_Set_ncl1_3
 10
0.095146
 20
0.112750
 30
0.074031
 70
   192
  0
VERTEX
  8
Triangle_Set_ncl1_3
 10
0.094241
 20
0.112750
 30
0.075110
 70
   192
  0
VERTEX
  8
Triangle_Set_ncl1_3
 10
0.093178
 20
0.112750
 30
0.076031
 70
   192
  0
VERTEX
  8
Triangle_Set_ncl1_3
 10
0.091983
 20
0.112750
 30
0.076774
 70
   192
  0
VERTEX
  8
Triangle_Set_ncl1_3
 10
0.090685
 20
0.112750
 30
0.077318
 70
   192
  0
VERTEX
  8
Triangle_Set_ncl1_3
 10
0.089317
 20
0.112750
 30
0.077650
 70
   192
  0
VERTEX
  8
Triangle_Set_ncl1_3
 10
0.118212
 20
0.112750
 30
0.017862
 70
   192
  0
VERTEX
  8
Triangle_Set_ncl1_3
 10
0.116844
 20
0.112750
 30
0.018193
 70
   192
  0
VERTEX
  8
Triangle_Set_ncl1_3
 10
0.115546
 20
0.112750
 30
0.018737
 70
   192
  0
VERTEX
  8
Triangle_Set_ncl1_3
 10
0.114351
 20
0.112750
 30
0.019480
 70
   192
  0
VERTEX
  8
Triangle_Set_ncl1_3
 10
0.113287
 20
0.112750
 30
0.020402
 70
   192
  0
VERTEX
  8
Triangle_Set_ncl1_3
 10
0.112383
 20
0.112750
 30
0.021480
 70
   192
  0
VERTEX
  8
Triangle_Set_ncl1_3
 10
0.111661
 20
0.112750
 30
0.022688
 70
   192
  0
VERTEX
  8
Triangle_Set_ncl1_3
 10
0.118212
 20
0.077250
 30
0.017862
 70
   192
  0
VERTEX
  8
Triangle_Set_ncl1_3
 10
0.116844
 20
0.077250
 30
0.018193
 70
   192
  0
VERTEX
  8
Triangle_Set_ncl1_3
 10
0.115546
 20
0.077250
 30
0.018737
 70
   192
  0
VERTEX
  8
Triangle_Set_ncl1_3
 10
0.114351
 20
0.077250
 30
0.019480
 70
   192
  0
VERTEX
  8
Triangle_Set_ncl1_3
 10
0.113287
 20
0.077250
 30
0.020402
 70
   192
  0
VERTEX
  8
Triangle_Set_ncl1_3
 10
0.112383
 20
0.077250
 30
0.021480
 70
   192
  0
VERTEX
  8
Triangle_Set_ncl1_3
 10
0.111661
 20
0.077250
 30
0.022688
 70
   192
  0
VERTEX
  8
Triangle_Set_ncl1_3
 10
0.095868
 20
0.077250
 30
0.072823
 70
   192
  0
VERTEX
  8
Triangle_Set_ncl1_3
 10
0.095146
 20
0.077250
 30
0.074031
 70
   192
  0
VERTEX
  8
Triangle_Set_ncl1_3
 10
0.094241
 20
0.077250
 30
0.075110
 70
   192
  0
VERTEX
  8
Triangle_Set_ncl1_3
 10
0.093178
 20
0.077250
 30
0.076031
 70
   192
  0
VERTEX
  8
Triangle_Set_ncl1_3
 10
0.091983
 20
0.077250
 30
0.076774
 70
   192
  0
VERTEX
  8
Triangle_Set_ncl1_3
 10
0.090685
 20
0.077250
 30
0.077318
 70
   192
  0
VERTEX
  8
Triangle_Set_ncl1_3
 10
0.089317
 20
0.077250
 30
0.077650
 70
   192
  0
VERTEX
  8
Triangle_Set_ncl1_3
 10
0.105135
 20
0.077250
 30
0.000112
 70
   192
  0
VERTEX
  8
Triangle_Set_ncl1_3
 10
0.103768
 20
0.077250
 30
0.000443
 70
   192
  0
VERTEX
  8
Triangle_Set_ncl1_3
 10
0.102470
 20
0.077250
 30
0.000987
 70
   192
  0
VERTEX
  8
Triangle_Set_ncl1_3
 10
0.101274
 20
0.077250
 30
0.001730
 70
   192
  0
VERTEX
  8
Triangle_Set_ncl1_3
 10
0.100211
 20
0.077250
 30
0.002652
 70
   192
  0
VERTEX
  8
Triangle_Set_ncl1_3
 10
0.099307
 20
0.077250
 30
0.003730
 70
   192
  0
VERTEX
  8
Triangle_Set_ncl1_3
 10
0.098584
 20
0.077250
 30
0.004938
 70
   192
  0
VERTEX
  8
Triangle_Set_ncl1_3
 62
   253
 10
0.0
 20
0.0
 30
0.0
 70
   128
 71
   2
 72
   3
 73
   1
  0
VERTEX
  8
Triangle_Set_ncl1_3
 62
   253
 10
0.0
 20
0.0
 30
0.0
 70
   128
 71
   3
 72
   2
 73
   4
  0
VERTEX
  8
Triangle_Set_ncl1_3
 62
   253
 10
0.0
 20
0.0
 30
0.0
 70
   128
 71
   23
 72
   5
 73
   24
  0
VERTEX
  8
Triangle_Set_ncl1_3
 62
   253
 10
0.0
 20
0.0
 30
0.0
 70
   128
 71
   24
 72
   5
 73
   25
  0
VERTEX
  8
Triangle_Set_ncl1_3
 62
   253
 10
0.0
 20
0.0
 30
0.0
 70
   128
 71
   25
 72
   5
 73
   26
  0
VERTEX
  8
Triangle_Set_ncl1_3
 62
   253
 10
0.0
 20
0.0
 30
0.0
 70
   128
 71
   26
 72
   5
 73
   27
  0
VERTEX
  8
Triangle_Set_ncl1_3
 62
   253
 10
0.0
 20
0.0
 30
0.0
 70
   128
 71
   27
 72
   5
 73
   28
  0
VERTEX
  8
Triangle_Set_ncl1_3
 62
   253
 10
0.0
 20
0.0
 30
0.0
 70
   128
 71
   28
 72
   5
 73
   29
  0
VERTEX
  8
Triangle_Set_ncl1_3
 62
   253
 10
0.0
 20
0.0
 30
0.0
 70
   128
 71
   29
 72
   5
 73
   7
  0
VERTEX
  8
Triangle_Set_ncl1_3
 62
   253
 10
0.0
 20
0.0
 30
0.0
 70
   128
 71
   8
 72
   7
 73
   13
  0
VERTEX
  8
Triangle_Set_ncl1_3
 62
   253
 10
0.0
 20
0.0
 30
0.0
 70
   128
 71
   9
 72
   8
 73
   10
  0
VERTEX
  8
Triangle_Set_ncl1_3
 62
   253
 10
0.0
 20
0.0
 30
0.0
 70
   128
 71
   10
 72
   8
 73
   11
  0
VERTEX
  8
Triangle_Set_ncl1_3
 62
   253
 10
0.0
 20
0.0
 30
0.0
 70
   128
 71
   11
 72
   8
 73
   12
  0
VERTEX
  8
Triangle_Set_ncl1_3
 62
   253
 10
0.0
 20
0.0
 30
0.0
 70
   128
 71
   36
 72
   11
 73
   35
  0
VERTEX
  8
Triangle_Set_ncl1_3
 62
   253
 10
0.0
 20
0.0
 30
0.0
 70
   128
 71
   35
 72
   11
 73
   34
  0
VERTEX
  8
Triangle_Set_ncl1_3
 62
   253
 10
0.0
 20
0.0
 30
0.0
 70
   128
 71
   34
 72
   11
 73
   33
  0
VERTEX
  8
Triangle_Set_ncl1_3
 62
   253
 10
0.0
 20
0.0
 30
0.0
 70
   128
 71
   33
 72
   11
 73
   32
  0
VERTEX
  8
Triangle_Set_ncl1_3
 62
   253
 10
0.0
 20
0.0
 30
0.0
 70
   128
 71
   32
 72
   11
 73
   31
  0
VERTEX
  8
Triangle_Set_ncl1_3
 62
   253
 10
0.0
 20
0.0
 30
0.0
 70
   128
 71
   31
 72
   11
 73
   30
  0
VERTEX
  8
Triangle_Set_ncl1_3
 62
   253
 10
0.0
 20
0.0
 30
0.0
 70
   128
 71
   30
 72
   11
 73
   12
  0
VERTEX
  8
Triangle_Set_ncl1_3
 62
   253
 10
0.0
 20
0.0
 30
0.0
 70
   128
 71
   7
 72
   5
 73
   40
  0
VERTEX
  8
Triangle_Set_ncl1_3
 62
   253
 10
0.0
 20
0.0
 30
0.0
 70
   128
 71
   12
 72
   8
 73
   13
  0
VERTEX
  8
Triangle_Set_ncl1_3
 62
   253
 10
0.0
 20
0.0
 30
0.0
 70
   128
 71
   13
 72
   7
 73
   43
  0
VERTEX
  8
Triangle_Set_ncl1_3
 62
   253
 10
0.0
 20
0.0
 30
0.0
 70
   128
 71
   43
 72
   7
 73
   42
  0
VERTEX
  8
Triangle_Set_ncl1_3
 62
   253
 10
0.0
 20
0.0
 30
0.0
 70
   128
 71
   5
 72
   6
 73
   1
  0
VERTEX
  8
Triangle_Set_ncl1_3
 62
   253
 10
0.0
 20
0.0
 30
0.0
 70
   128
 71
   42
 72
   7
 73
   41
  0
VERTEX
  8
Triangle_Set_ncl1_3
 62
   253
 10
0.0
 20
0.0
 30
0.0
 70
   128
 71
   41
 72
   7
 73
   40
  0
VERTEX
  8
Triangle_Set_ncl1_3
 62
   253
 10
0.0
 20
0.0
 30
0.0
 70
   128
 71
   40
 72
   5
 73
   39
  0
VERTEX
  8
Triangle_Set_ncl1_3
 62
   253
 10
0.0
 20
0.0
 30
0.0
 70
   128
 71
   39
 72
   5
 73
   38
  0
VERTEX
  8
Triangle_Set_ncl1_3
 62
   253
 10
0.0
 20
0.0
 30
0.0
 70
   128
 71
   38
 72
   5
 73
   37
  0
VERTEX
  8
Triangle_Set_ncl1_3
 62
   253
 10
0.0
 20
0.0
 30
0.0
 70
   128
 71
   37
 72
   5
 73
   1
  0
VERTEX
  8
Triangle_Set_ncl1_3
 62
   253
 10
0.0
 20
0.0
 30
0.0
 70
   128
 71
   1
 72
   6
 73
   2
  0
VERTEX
  8
Triangle_Set_ncl1_3
 62
   253
 10
0.0
 20
0.0
 30
0.0
 70
   128
 71
   46
 72
   47
 73
   40
  0
VERTEX
  8
Triangle_Set_ncl1_3
 62
   253
 10
0.0
 20
0.0
 30
0.0
 70
   128
 71
   47
 72
   48
 73
   41
  0
VERTEX
  8
Triangle_Set_ncl1_3
 62
   253
 10
0.0
 20
0.0
 30
0.0
 70
   128
 71
   48
 72
   49
 73
   42
  0
VERTEX
  8
Triangle_Set_ncl1_3
 62
   253
 10
0.0
 20
0.0
 30
0.0
 70
   128
 71
   49
 72
   50
 73
   43
  0
VERTEX
  8
Triangle_Set_ncl1_3
 62
   253
 10
0.0
 20
0.0
 30
0.0
 70
   128
 71
   50
 72
   14
 73
   13
  0
VERTEX
  8
Triangle_Set_ncl1_3
 62
   253
 10
0.0
 20
0.0
 30
0.0
 70
   128
 71
   45
 72
   46
 73
   39
  0
VERTEX
  8
Triangle_Set_ncl1_3
 62
   253
 10
0.0
 20
0.0
 30
0.0
 70
   128
 71
   50
 72
   13
 73
   43
  0
VERTEX
  8
Triangle_Set_ncl1_3
 62
   253
 10
0.0
 20
0.0
 30
0.0
 70
   128
 71
   49
 72
   43
 73
   42
  0
VERTEX
  8
Triangle_Set_ncl1_3
 62
   253
 10
0.0
 20
0.0
 30
0.0
 70
   128
 71
   44
 72
   45
 73
   38
  0
VERTEX
  8
Triangle_Set_ncl1_3
 62
   253
 10
0.0
 20
0.0
 30
0.0
 70
   128
 71
   48
 72
   42
 73
   41
  0
VERTEX
  8
Triangle_Set_ncl1_3
 62
   253
 10
0.0
 20
0.0
 30
0.0
 70
   128
 71
   3
 72
   44
 73
   37
  0
VERTEX
  8
Triangle_Set_ncl1_3
 62
   253
 10
0.0
 20
0.0
 30
0.0
 70
   128
 71
   47
 72
   41
 73
   40
  0
VERTEX
  8
Triangle_Set_ncl1_3
 62
   253
 10
0.0
 20
0.0
 30
0.0
 70
   128
 71
   46
 72
   40
 73
   39
  0
VERTEX
  8
Triangle_Set_ncl1_3
 62
   253
 10
0.0
 20
0.0
 30
0.0
 70
   128
 71
   45
 72
   39
 73
   38
  0
VERTEX
  8
Triangle_Set_ncl1_3
 62
   253
 10
0.0
 20
0.0
 30
0.0
 70
   128
 71
   44
 72
   38
 73
   37
  0
VERTEX
  8
Triangle_Set_ncl1_3
 62
   253
 10
0.0
 20
0.0
 30
0.0
 70
   128
 71
   3
 72
   37
 73
   1
  0
VERTEX
  8
Triangle_Set_ncl1_3
 62
   253
 10
0.0
 20
0.0
 30
0.0
 70
   128
 71
   4
 72
   6
 73
   15
  0
VERTEX
  8
Triangle_Set_ncl1_3
 62
   253
 10
0.0
 20
0.0
 30
0.0
 70
   128
 71
   6
 72
   4
 73
   2
  0
VERTEX
  8
Triangle_Set_ncl1_3
 62
   253
 10
0.0
 20
0.0
 30
0.0
 70
   128
 71
   15
 72
   16
 73
   3
  0
VERTEX
  8
Triangle_Set_ncl1_3
 62
   253
 10
0.0
 20
0.0
 30
0.0
 70
   128
 71
   4
 72
   15
 73
   3
  0
VERTEX
  8
Triangle_Set_ncl1_3
 62
   253
 10
0.0
 20
0.0
 30
0.0
 70
   128
 71
   3
 72
   16
 73
   44
  0
VERTEX
  8
Triangle_Set_ncl1_3
 62
   253
 10
0.0
 20
0.0
 30
0.0
 70
   128
 71
   44
 72
   16
 73
   45
  0
VERTEX
  8
Triangle_Set_ncl1_3
 62
   253
 10
0.0
 20
0.0
 30
0.0
 70
   128
 71
   45
 72
   16
 73
   46
  0
VERTEX
  8
Triangle_Set_ncl1_3
 62
   253
 10
0.0
 20
0.0
 30
0.0
 70
   128
 71
   46
 72
   16
 73
   47
  0
VERTEX
  8
Triangle_Set_ncl1_3
 62
   253
 10
0.0
 20
0.0
 30
0.0
 70
   128
 71
   47
 72
   16
 73
   22
  0
VERTEX
  8
Triangle_Set_ncl1_3
 62
   253
 10
0.0
 20
0.0
 30
0.0
 70
   128
 71
   48
 72
   47
 73
   22
  0
VERTEX
  8
Triangle_Set_ncl1_3
 62
   253
 10
0.0
 20
0.0
 30
0.0
 70
   128
 71
   49
 72
   48
 73
   22
  0
VERTEX
  8
Triangle_Set_ncl1_3
 62
   253
 10
0.0
 20
0.0
 30
0.0
 70
   128
 71
   50
 72
   49
 73
   22
  0
VERTEX
  8
Triangle_Set_ncl1_3
 62
   253
 10
0.0
 20
0.0
 30
0.0
 70
   128
 71
   14
 72
   50
 73
   22
  0
VERTEX
  8
Triangle_Set_ncl1_3
 62
   253
 10
0.0
 20
0.0
 30
0.0
 70
   128
 71
   14
 72
   22
 73
   21
  0
VERTEX
  8
Triangle_Set_ncl1_3
 62
   253
 10
0.0
 20
0.0
 30
0.0
 70
   128
 71
   51
 72
   17
 73
   52
  0
VERTEX
  8
Triangle_Set_ncl1_3
 62
   253
 10
0.0
 20
0.0
 30
0.0
 70
   128
 71
   52
 72
   17
 73
   53
  0
VERTEX
  8
Triangle_Set_ncl1_3
 62
   253
 10
0.0
 20
0.0
 30
0.0
 70
   128
 71
   53
 72
   17
 73
   54
  0
VERTEX
  8
Triangle_Set_ncl1_3
 62
   253
 10
0.0
 20
0.0
 30
0.0
 70
   128
 71
   54
 72
   17
 73
   55
  0
VERTEX
  8
Triangle_Set_ncl1_3
 62
   253
 10
0.0
 20
0.0
 30
0.0
 70
   128
 71
   55
 72
   17
 73
   56
  0
VERTEX
  8
Triangle_Set_ncl1_3
 62
   253
 10
0.0
 20
0.0
 30
0.0
 70
   128
 71
   56
 72
   17
 73
   57
  0
VERTEX
  8
Triangle_Set_ncl1_3
 62
   253
 10
0.0
 20
0.0
 30
0.0
 70
   128
 71
   57
 72
   17
 73
   18
  0
VERTEX
  8
Triangle_Set_ncl1_3
 62
   253
 10
0.0
 20
0.0
 30
0.0
 70
   128
 71
   18
 72
   17
 73
   21
  0
VERTEX
  8
Triangle_Set_ncl1_3
 62
   253
 10
0.0
 20
0.0
 30
0.0
 70
   128
 71
   19
 72
   18
 73
   21
  0
VERTEX
  8
Triangle_Set_ncl1_3
 62
   253
 10
0.0
 20
0.0
 30
0.0
 70
   128
 71
   17
 72
   14
 73
   21
  0
VERTEX
  8
Triangle_Set_ncl1_3
 62
   253
 10
0.0
 20
0.0
 30
0.0
 70
   128
 71
   20
 72
   19
 73
   21
  0
VERTEX
  8
Triangle_Set_ncl1_3
 62
   253
 10
0.0
 20
0.0
 30
0.0
 70
   128
 71
   22
 72
   16
 73
   64
  0
VERTEX
  8
Triangle_Set_ncl1_3
 62
   253
 10
0.0
 20
0.0
 30
0.0
 70
   128
 71
   64
 72
   16
 73
   63
  0
VERTEX
  8
Triangle_Set_ncl1_3
 62
   253
 10
0.0
 20
0.0
 30
0.0
 70
   128
 71
   63
 72
   16
 73
   62
  0
VERTEX
  8
Triangle_Set_ncl1_3
 62
   253
 10
0.0
 20
0.0
 30
0.0
 70
   128
 71
   62
 72
   16
 73
   61
  0
VERTEX
  8
Triangle_Set_ncl1_3
 62
   253
 10
0.0
 20
0.0
 30
0.0
 70
   128
 71
   61
 72
   16
 73
   60
  0
VERTEX
  8
Triangle_Set_ncl1_3
 62
   253
 10
0.0
 20
0.0
 30
0.0
 70
   128
 71
   60
 72
   16
 73
   59
  0
VERTEX
  8
Triangle_Set_ncl1_3
 62
   253
 10
0.0
 20
0.0
 30
0.0
 70
   128
 71
   59
 72
   16
 73
   58
  0
VERTEX
  8
Triangle_Set_ncl1_3
 62
   253
 10
0.0
 20
0.0
 30
0.0
 70
   128
 71
   16
 72
   15
 73
   6
  0
VERTEX
  8
Triangle_Set_ncl1_3
 62
   253
 10
0.0
 20
0.0
 30
0.0
 70
   128
 71
   16
 72
   6
 73
   5
  0
VERTEX
  8
Triangle_Set_ncl1_3
 62
   253
 10
0.0
 20
0.0
 30
0.0
 70
   128
 71
   61
 72
   60
 73
   26
  0
VERTEX
  8
Triangle_Set_ncl1_3
 62
   253
 10
0.0
 20
0.0
 30
0.0
 70
   128
 71
   62
 72
   61
 73
   27
  0
VERTEX
  8
Triangle_Set_ncl1_3
 62
   253
 10
0.0
 20
0.0
 30
0.0
 70
   128
 71
   63
 72
   62
 73
   28
  0
VERTEX
  8
Triangle_Set_ncl1_3
 62
   253
 10
0.0
 20
0.0
 30
0.0
 70
   128
 71
   64
 72
   63
 73
   29
  0
VERTEX
  8
Triangle_Set_ncl1_3
 62
   253
 10
0.0
 20
0.0
 30
0.0
 70
   128
 71
   22
 72
   64
 73
   7
  0
VERTEX
  8
Triangle_Set_ncl1_3
 62
   253
 10
0.0
 20
0.0
 30
0.0
 70
   128
 71
   60
 72
   59
 73
   25
  0
VERTEX
  8
Triangle_Set_ncl1_3
 62
   253
 10
0.0
 20
0.0
 30
0.0
 70
   128
 71
   7
 72
   64
 73
   29
  0
VERTEX
  8
Triangle_Set_ncl1_3
 62
   253
 10
0.0
 20
0.0
 30
0.0
 70
   128
 71
   29
 72
   63
 73
   28
  0
VERTEX
  8
Triangle_Set_ncl1_3
 62
   253
 10
0.0
 20
0.0
 30
0.0
 70
   128
 71
   59
 72
   58
 73
   24
  0
VERTEX
  8
Triangle_Set_ncl1_3
 62
   253
 10
0.0
 20
0.0
 30
0.0
 70
   128
 71
   28
 72
   62
 73
   27
  0
VERTEX
  8
Triangle_Set_ncl1_3
 62
   253
 10
0.0
 20
0.0
 30
0.0
 70
   128
 71
   58
 72
   16
 73
   23
  0
VERTEX
  8
Triangle_Set_ncl1_3
 62
   253
 10
0.0
 20
0.0
 30
0.0
 70
   128
 71
   27
 72
   61
 73
   26
  0
VERTEX
  8
Triangle_Set_ncl1_3
 62
   253
 10
0.0
 20
0.0
 30
0.0
 70
   128
 71
   26
 72
   60
 73
   25
  0
VERTEX
  8
Triangle_Set_ncl1_3
 62
   253
 10
0.0
 20
0.0
 30
0.0
 70
   128
 71
   25
 72
   59
 73
   24
  0
VERTEX
  8
Triangle_Set_ncl1_3
 62
   253
 10
0.0
 20
0.0
 30
0.0
 70
   128
 71
   24
 72
   58
 73
   23
  0
VERTEX
  8
Triangle_Set_ncl1_3
 62
   253
 10
0.0
 20
0.0
 30
0.0
 70
   128
 71
   23
 72
   16
 73
   5
  0
VERTEX
  8
Triangle_Set_ncl1_3
 62
   253
 10
0.0
 20
0.0
 30
0.0
 70
   128
 71
   21
 72
   22
 73
   7
  0
VERTEX
  8
Triangle_Set_ncl1_3
 62
   253
 10
0.0
 20
0.0
 30
0.0
 70
   128
 71
   21
 72
   7
 73
   8
  0
VERTEX
  8
Triangle_Set_ncl1_3
 62
   253
 10
0.0
 20
0.0
 30
0.0
 70
   128
 71
   20
 72
   8
 73
   9
  0
VERTEX
  8
Triangle_Set_ncl1_3
 62
   253
 10
0.0
 20
0.0
 30
0.0
 70
   128
 71
   8
 72
   20
 73
   21
  0
VERTEX
  8
Triangle_Set_ncl1_3
 62
   253
 10
0.0
 20
0.0
 30
0.0
 70
   128
 71
   19
 72
   20
 73
   10
  0
VERTEX
  8
Triangle_Set_ncl1_3
 62
   253
 10
0.0
 20
0.0
 30
0.0
 70
   128
 71
   20
 72
   9
 73
   10
  0
VERTEX
  8
Triangle_Set_ncl1_3
 62
   253
 10
0.0
 20
0.0
 30
0.0
 70
   128
 71
   17
 72
   13
 73
   14
  0
VERTEX
  8
Triangle_Set_ncl1_3
 62
   253
 10
0.0
 20
0.0
 30
0.0
 70
   128
 71
   13
 72
   17
 73
   12
  0
VERTEX
  8
Triangle_Set_ncl1_3
 62
   253
 10
0.0
 20
0.0
 30
0.0
 70
   128
 71
   11
 72
   19
 73
   10
  0
VERTEX
  8
Triangle_Set_ncl1_3
 62
   253
 10
0.0
 20
0.0
 30
0.0
 70
   128
 71
   19
 72
   11
 73
   18
  0
VERTEX
  8
Triangle_Set_ncl1_3
 62
   253
 10
0.0
 20
0.0
 30
0.0
 70
   128
 71
   12
 72
   17
 73
   30
  0
VERTEX
  8
Triangle_Set_ncl1_3
 62
   253
 10
0.0
 20
0.0
 30
0.0
 70
   128
 71
   52
 72
   30
 73
   51
  0
VERTEX
  8
Triangle_Set_ncl1_3
 62
   253
 10
0.0
 20
0.0
 30
0.0
 70
   128
 71
   54
 72
   32
 73
   53
  0
VERTEX
  8
Triangle_Set_ncl1_3
 62
   253
 10
0.0
 20
0.0
 30
0.0
 70
   128
 71
   56
 72
   34
 73
   55
  0
VERTEX
  8
Triangle_Set_ncl1_3
 62
   253
 10
0.0
 20
0.0
 30
0.0
 70
   128
 71
   18
 72
   36
 73
   57
  0
VERTEX
  8
Triangle_Set_ncl1_3
 62
   253
 10
0.0
 20
0.0
 30
0.0
 70
   128
 71
   34
 72
   33
 73
   55
  0
VERTEX
  8
Triangle_Set_ncl1_3
 62
   253
 10
0.0
 20
0.0
 30
0.0
 70
   128
 71
   35
 72
   34
 73
   56
  0
VERTEX
  8
Triangle_Set_ncl1_3
 62
   253
 10
0.0
 20
0.0
 30
0.0
 70
   128
 71
   36
 72
   35
 73
   57
  0
VERTEX
  8
Triangle_Set_ncl1_3
 62
   253
 10
0.0
 20
0.0
 30
0.0
 70
   128
 71
   11
 72
   36
 73
   18
  0
VERTEX
  8
Triangle_Set_ncl1_3
 62
   253
 10
0.0
 20
0.0
 30
0.0
 70
   128
 71
   57
 72
   35
 73
   56
  0
VERTEX
  8
Triangle_Set_ncl1_3
 62
   253
 10
0.0
 20
0.0
 30
0.0
 70
   128
 71
   33
 72
   32
 73
   54
  0
VERTEX
  8
Triangle_Set_ncl1_3
 62
   253
 10
0.0
 20
0.0
 30
0.0
 70
   128
 71
   55
 72
   33
 73
   54
  0
VERTEX
  8
Triangle_Set_ncl1_3
 62
   253
 10
0.0
 20
0.0
 30
0.0
 70
   128
 71
   32
 72
   31
 73
   53
  0
VERTEX
  8
Triangle_Set_ncl1_3
 62
   253
 10
0.0
 20
0.0
 30
0.0
 70
   128
 71
   53
 72
   31
 73
   52
  0
VERTEX
  8
Triangle_Set_ncl1_3
 62
   253
 10
0.0
 20
0.0
 30
0.0
 70
   128
 71
   31
 72
   30
 73
   52
  0
VERTEX
  8
Triangle_Set_ncl1_3
 62
   253
 10
0.0
 20
0.0
 30
0.0
 70
   128
 71
   30
 72
   17
 73
   51
  0
SEQEND
  0
POLYLINE
  8
Triangle_Set_ncl1_4
 62
   253
 66
   1
 10
0.0
 20
0.0
 30
0.0
 70
   64
 71
   64
 72
   124
  0
VERTEX
  8
Triangle_Set_ncl1_4
 10
0.119615
 20
-0.077250
 30
0.017750
 70
   192
  0
VERTEX
  8
Triangle_Set_ncl1_4
 10
0.135000
 20
-0.077250
 30
0.017750
 70
   192
  0
VERTEX
  8
Triangle_Set_ncl1_4
 10
0.119615
 20
-0.112750
 30
0.017750
 70
   192
  0
VERTEX
  8
Triangle_Set_ncl1_4
 10
0.135000
 20
-0.112750
 30
0.017750
 70
   192
  0
VERTEX
  8
Triangle_Set_ncl1_4
 10
0.106538
 20
-0.077250
 30
0.000000
 70
   192
  0
VERTEX
  8
Triangle_Set_ncl1_4
 10
0.135000
 20
-0.077250
 30
0.000000
 70
   192
  0
VERTEX
  8
Triangle_Set_ncl1_4
 10
0.098062
 20
-0.077250
 30
0.006244
 70
   192
  0
VERTEX
  8
Triangle_Set_ncl1_4
 10
0.081376
 20
-0.077250
 30
0.060011
 70
   192
  0
VERTEX
  8
Triangle_Set_ncl1_4
 10
0.077500
 20
-0.077250
 30
0.060011
 70
   192
  0
VERTEX
  8
Triangle_Set_ncl1_4
 10
0.077500
 20
-0.077250
 30
0.077761
 70
   192
  0
VERTEX
  8
Triangle_Set_ncl1_4
 10
0.087914
 20
-0.077250
 30
0.077761
 70
   192
  0
VERTEX
  8
Triangle_Set_ncl1_4
 10
0.096390
 20
-0.077250
 30
0.071517
 70
   192
  0
VERTEX
  8
Triangle_Set_ncl1_4
 10
0.111139
 20
-0.077250
 30
0.023994
 70
   192
  0
VERTEX
  8
Triangle_Set_ncl1_4
 10
0.111139
 20
-0.112750
 30
0.023994
 70
   192
  0
VERTEX
  8
Triangle_Set_ncl1_4
 10
0.135000
 20
-0.112750
 30
0.000000
 70
   192
  0
VERTEX
  8
Triangle_Set_ncl1_4
 10
0.106538
 20
-0.112750
 30
0.000000
 70
   192
  0
VERTEX
  8
Triangle_Set_ncl1_4
 10
0.096390
 20
-0.112750
 30
0.071517
 70
   192
  0
VERTEX
  8
Triangle_Set_ncl1_4
 10
0.087914
 20
-0.112750
 30
0.077761
 70
   192
  0
VERTEX
  8
Triangle_Set_ncl1_4
 10
0.077500
 20
-0.112750
 30
0.077761
 70
   192
  0
VERTEX
  8
Triangle_Set_ncl1_4
 10
0.077500
 20
-0.112750
 30
0.060011
 70
   192
  0
VERTEX
  8
Triangle_Set_ncl1_4
 10
0.081376
 20
-0.112750
 30
0.060011
 70
   192
  0
VERTEX
  8
Triangle_Set_ncl1_4
 10
0.098062
 20
-0.112750
 30
0.006244
 70
   192
  0
VERTEX
  8
Triangle_Set_ncl1_4
 10
0.105135
 20
-0.077250
 30
0.000112
 70
   192
  0
VERTEX
  8
Triangle_Set_ncl1_4
 10
0.103768
 20
-0.077250
 30
0.000443
 70
   192
  0
VERTEX
  8
Triangle_Set_ncl1_4
 10
0.102470
 20
-0.077250
 30
0.000987
 70
   192
  0
VERTEX
  8
Triangle_Set_ncl1_4
 10
0.101274
 20
-0.077250
 30
0.001730
 70
   192
  0
VERTEX
  8
Triangle_Set_ncl1_4
 10
0.100211
 20
-0.077250
 30
0.002652
 70
   192
  0
VERTEX
  8
Triangle_Set_ncl1_4
 10
0.099307
 20
-0.077250
 30
0.003730
 70
   192
  0
VERTEX
  8
Triangle_Set_ncl1_4
 10
0.098584
 20
-0.077250
 30
0.004938
 70
   192
  0
VERTEX
  8
Triangle_Set_ncl1_4
 10
0.095868
 20
-0.077250
 30
0.072823
 70
   192
  0
VERTEX
  8
Triangle_Set_ncl1_4
 10
0.095146
 20
-0.077250
 30
0.074031
 70
   192
  0
VERTEX
  8
Triangle_Set_ncl1_4
 10
0.094241
 20
-0.077250
 30
0.075110
 70
   192
  0
VERTEX
  8
Triangle_Set_ncl1_4
 10
0.093178
 20
-0.077250
 30
0.076031
 70
   192
  0
VERTEX
  8
Triangle_Set_ncl1_4
 10
0.091983
 20
-0.077250
 30
0.076774
 70
   192
  0
VERTEX
  8
Triangle_Set_ncl1_4
 10
0.090685
 20
-0.077250
 30
0.077318
 70
   192
  0
VERTEX
  8
Triangle_Set_ncl1_4
 10
0.089317
 20
-0.077250
 30
0.077650
 70
   192
  0
VERTEX
  8
Triangle_Set_ncl1_4
 10
0.118212
 20
-0.077250
 30
0.017862
 70
   192
  0
VERTEX
  8
Triangle_Set_ncl1_4
 10
0.116844
 20
-0.077250
 30
0.018193
 70
   192
  0
VERTEX
  8
Triangle_Set_ncl1_4
 10
0.115546
 20
-0.077250
 30
0.018737
 70
   192
  0
VERTEX
  8
Triangle_Set_ncl1_4
 10
0.114351
 20
-0.077250
 30
0.019480
 70
   192
  0
VERTEX
  8
Triangle_Set_ncl1_4
 10
0.113287
 20
-0.077250
 30
0.020402
 70
   192
  0
VERTEX
  8
Triangle_Set_ncl1_4
 10
0.112383
 20
-0.077250
 30
0.021480
 70
   192
  0
VERTEX
  8
Triangle_Set_ncl1_4
 10
0.111661
 20
-0.077250
 30
0.022688
 70
   192
  0
VERTEX
  8
Triangle_Set_ncl1_4
 10
0.118212
 20
-0.112750
 30
0.017862
 70
   192
  0
VERTEX
  8
Triangle_Set_ncl1_4
 10
0.116844
 20
-0.112750
 30
0.018193
 70
   192
  0
VERTEX
  8
Triangle_Set_ncl1_4
 10
0.115546
 20
-0.112750
 30
0.018737
 70
   192
  0
VERTEX
  8
Triangle_Set_ncl1_4
 10
0.114351
 20
-0.112750
 30
0.019480
 70
   192
  0
VERTEX
  8
Triangle_Set_ncl1_4
 10
0.113287
 20
-0.112750
 30
0.020402
 70
   192
  0
VERTEX
  8
Triangle_Set_ncl1_4
 10
0.112383
 20
-0.112750
 30
0.021480
 70
   192
  0
VERTEX
  8
Triangle_Set_ncl1_4
 10
0.111661
 20
-0.112750
 30
0.022688
 70
   192
  0
VERTEX
  8
Triangle_Set_ncl1_4
 10
0.095868
 20
-0.112750
 30
0.072823
 70
   192
  0
VERTEX
  8
Triangle_Set_ncl1_4
 10
0.095146
 20
-0.112750
 30
0.074031
 70
   192
  0
VERTEX
  8
Triangle_Set_ncl1_4
 10
0.094241
 20
-0.112750
 30
0.075110
 70
   192
  0
VERTEX
  8
Triangle_Set_ncl1_4
 10
0.093178
 20
-0.112750
 30
0.076031
 70
   192
  0
VERTEX
  8
Triangle_Set_ncl1_4
 10
0.091983
 20
-0.112750
 30
0.076774
 70
   192
  0
VERTEX
  8
Triangle_Set_ncl1_4
 10
0.090685
 20
-0.112750
 30
0.077318
 70
   192
  0
VERTEX
  8
Triangle_Set_ncl1_4
 10
0.089317
 20
-0.112750
 30
0.077650
 70
   192
  0
VERTEX
  8
Triangle_Set_ncl1_4
 10
0.105135
 20
-0.112750
 30
0.000112
 70
   192
  0
VERTEX
  8
Triangle_Set_ncl1_4
 10
0.103768
 20
-0.112750
 30
0.000443
 70
   192
  0
VERTEX
  8
Triangle_Set_ncl1_4
 10
0.102470
 20
-0.112750
 30
0.000987
 70
   192
  0
VERTEX
  8
Triangle_Set_ncl1_4
 10
0.101274
 20
-0.112750
 30
0.001730
 70
   192
  0
VERTEX
  8
Triangle_Set_ncl1_4
 10
0.100211
 20
-0.112750
 30
0.002652
 70
   192
  0
VERTEX
  8
Triangle_Set_ncl1_4
 10
0.099307
 20
-0.112750
 30
0.003730
 70
   192
  0
VERTEX
  8
Triangle_Set_ncl1_4
 10
0.098584
 20
-0.112750
 30
0.004938
 70
   192
  0
VERTEX
  8
Triangle_Set_ncl1_4
 62
   253
 10
0.0
 20
0.0
 30
0.0
 70
   128
 71
   2
 72
   3
 73
   1
  0
VERTEX
  8
Triangle_Set_ncl1_4
 62
   253
 10
0.0
 20
0.0
 30
0.0
 70
   128
 71
   3
 72
   2
 73
   4
  0
VERTEX
  8
Triangle_Set_ncl1_4
 62
   253
 10
0.0
 20
0.0
 30
0.0
 70
   128
 71
   23
 72
   5
 73
   24
  0
VERTEX
  8
Triangle_Set_ncl1_4
 62
   253
 10
0.0
 20
0.0
 30
0.0
 70
   128
 71
   24
 72
   5
 73
   25
  0
VERTEX
  8
Triangle_Set_ncl1_4
 62
   253
 10
0.0
 20
0.0
 30
0.0
 70
   128
 71
   25
 72
   5
 73
   26
  0
VERTEX
  8
Triangle_Set_ncl1_4
 62
   253
 10
0.0
 20
0.0
 30
0.0
 70
   128
 71
   26
 72
   5
 73
   27
  0
VERTEX
  8
Triangle_Set_ncl1_4
 62
   253
 10
0.0
 20
0.0
 30
0.0
 70
   128
 71
   27
 72
   5
 73
   28
  0
VERTEX
  8
Triangle_Set_ncl1_4
 62
   253
 10
0.0
 20
0.0
 30
0.0
 70
   128
 71
   28
 72
   5
 73
   29
  0
VERTEX
  8
Triangle_Set_ncl1_4
 62
   253
 10
0.0
 20
0.0
 30
0.0
 70
   128
 71
   29
 72
   5
 73
   7
  0
VERTEX
  8
Triangle_Set_ncl1_4
 62
   253
 10
0.0
 20
0.0
 30
0.0
 70
   128
 71
   8
 72
   7
 73
   13
  0
VERTEX
  8
Triangle_Set_ncl1_4
 62
   253
 10
0.0
 20
0.0
 30
0.0
 70
   128
 71
   9
 72
   8
 73
   10
  0
VERTEX
  8
Triangle_Set_ncl1_4
 62
   253
 10
0.0
 20
0.0
 30
0.0
 70
   128
 71
   10
 72
   8
 73
   11
  0
VERTEX
  8
Triangle_Set_ncl1_4
 62
   253
 10
0.0
 20
0.0
 30
0.0
 70
   128
 71
   11
 72
   8
 73
   12
  0
VERTEX
  8
Triangle_Set_ncl1_4
 62
   253
 10
0.0
 20
0.0
 30
0.0
 70
   128
 71
   36
 72
   11
 73
   35
  0
VERTEX
  8
Triangle_Set_ncl1_4
 62
   253
 10
0.0
 20
0.0
 30
0.0
 70
   128
 71
   35
 72
   11
 73
   34
  0
VERTEX
  8
Triangle_Set_ncl1_4
 62
   253
 10
0.0
 20
0.0
 30
0.0
 70
   128
 71
   34
 72
   11
 73
   33
  0
VERTEX
  8
Triangle_Set_ncl1_4
 62
   253
 10
0.0
 20
0.0
 30
0.0
 70
   128
 71
   33
 72
   11
 73
   32
  0
VERTEX
  8
Triangle_Set_ncl1_4
 62
   253
 10
0.0
 20
0.0
 30
0.0
 70
   128
 71
   32
 72
   11
 73
   31
  0
VERTEX
  8
Triangle_Set_ncl1_4
 62
   253
 10
0.0
 20
0.0
 30
0.0
 70
   128
 71
   31
 72
   11
 73
   30
  0
VERTEX
  8
Triangle_Set_ncl1_4
 62
   253
 10
0.0
 20
0.0
 30
0.0
 70
   128
 71
   30
 72
   11
 73
   12
  0
VERTEX
  8
Triangle_Set_ncl1_4
 62
   253
 10
0.0
 20
0.0
 30
0.0
 70
   128
 71
   7
 72
   5
 73
   40
  0
VERTEX
  8
Triangle_Set_ncl1_4
 62
   253
 10
0.0
 20
0.0
 30
0.0
 70
   128
 71
   12
 72
   8
 73
   13
  0
VERTEX
  8
Triangle_Set_ncl1_4
 62
   253
 10
0.0
 20
0.0
 30
0.0
 70
   128
 71
   13
 72
   7
 73
   43
  0
VERTEX
  8
Triangle_Set_ncl1_4
 62
   253
 10
0.0
 20
0.0
 30
0.0
 70
   128
 71
   43
 72
   7
 73
   42
  0
VERTEX
  8
Triangle_Set_ncl1_4
 62
   253
 10
0.0
 20
0.0
 30
0.0
 70
   128
 71
   5
 72
   6
 73
   1
  0
VERTEX
  8
Triangle_Set_ncl1_4
 62
   253
 10
0.0
 20
0.0
 30
0.0
 70
   128
 71
   42
 72
   7
 73
   41
  0
VERTEX
  8
Triangle_Set_ncl1_4
 62
   253
 10
0.0
 20
0.0
 30
0.0
 70
   128
 71
   41
 72
   7
 73
   40
  0
VERTEX
  8
Triangle_Set_ncl1_4
 62
   253
 10
0.0
 20
0.0
 30
0.0
 70
   128
 71
   40
 72
   5
 73
   39
  0
VERTEX
  8
Triangle_Set_ncl1_4
 62
   253
 10
0.0
 20
0.0
 30
0.0
 70
   128
 71
   39
 72
   5
 73
   38
  0
VERTEX
  8
Triangle_Set_ncl1_4
 62
   253
 10
0.0
 20
0.0
 30
0.0
 70
   128
 71
   38
 72
   5
 73
   37
  0
VERTEX
  8
Triangle_Set_ncl1_4
 62
   253
 10
0.0
 20
0.0
 30
0.0
 70
   128
 71
   37
 72
   5
 73
   1
  0
VERTEX
  8
Triangle_Set_ncl1_4
 62
   253
 10
0.0
 20
0.0
 30
0.0
 70
   128
 71
   1
 72
   6
 73
   2
  0
VERTEX
  8
Triangle_Set_ncl1_4
 62
   253
 10
0.0
 20
0.0
 30
0.0
 70
   128
 71
   46
 72
   47
 73
   40
  0
VERTEX
  8
Triangle_Set_ncl1_4
 62
   253
 10
0.0
 20
0.0
 30
0.0
 70
   128
 71
   47
 72
   48
 73
   41
  0
VERTEX
  8
Triangle_Set_ncl1_4
 62
   253
 10
0.0
 20
0.0
 30
0.0
 70
   128
 71
   48
 72
   49
 73
   42
  0
VERTEX
  8
Triangle_Set_ncl1_4
 62
   253
 10
0.0
 20
0.0
 30
0.0
 70
   128
 71
   49
 72
   50
 73
   43
  0
VERTEX
  8
Triangle_Set_ncl1_4
 62
   253
 10
0.0
 20
0.0
 30
0.0
 70
   128
 71
   50
 72
   14
 73
   13
  0
VERTEX
  8
Triangle_Set_ncl1_4
 62
   253
 10
0.0
 20
0.0
 30
0.0
 70
   128
 71
   45
 72
   46
 73
   39
  0
VERTEX
  8
Triangle_Set_ncl1_4
 62
   253
 10
0.0
 20
0.0
 30
0.0
 70
   128
 71
   50
 72
   13
 73
   43
  0
VERTEX
  8
Triangle_Set_ncl1_4
 62
   253
 10
0.0
 20
0.0
 30
0.0
 70
   128
 71
   49
 72
   43
 73
   42
  0
VERTEX
  8
Triangle_Set_ncl1_4
 62
   253
 10
0.0
 20
0.0
 30
0.0
 70
   128
 71
   44
 72
   45
 73
   38
  0
VERTEX
  8
Triangle_Set_ncl1_4
 62
   253
 10
0.0
 20
0.0
 30
0.0
 70
   128
 71
   48
 72
   42
 73
   41
  0
VERTEX
  8
Triangle_Set_ncl1_4
 62
   253
 10
0.0
 20
0.0
 30
0.0
 70
   128
 71
   3
 72
   44
 73
   37
  0
VERTEX
  8
Triangle_Set_ncl1_4
 62
   253
 10
0.0
 20
0.0
 30
0.0
 70
   128
 71
   47
 72
   41
 73
   40
  0
VERTEX
  8
Triangle_Set_ncl1_4
 62
   253
 10
0.0
 20
0.0
 30
0.0
 70
   128
 71
   46
 72
   40
 73
   39
  0
VERTEX
  8
Triangle_Set_ncl1_4
 62
   253
 10
0.0
 20
0.0
 30
0.0
 70
   128
 71
   45
 72
   39
 73
   38
  0
VERTEX
  8
Triangle_Set_ncl1_4
 62
   253
 10
0.0
 20
0.0
 30
0.0
 70
   128
 71
   44
 72
   38
 73
   37
  0
VERTEX
  8
Triangle_Set_ncl1_4
 62
   253
 10
0.0
 20
0.0
 30
0.0
 70
   128
 71
   3
 72
   37
 73
   1
  0
VERTEX
  8
Triangle_Set_ncl1_4
 62
   253
 10
0.0
 20
0.0
 30
0.0
 70
   128
 71
   4
 72
   6
 73
   15
  0
VERTEX
  8
Triangle_Set_ncl1_4
 62
   253
 10
0.0
 20
0.0
 30
0.0
 70
   128
 71
   6
 72
   4
 73
   2
  0
VERTEX
  8
Triangle_Set_ncl1_4
 62
   253
 10
0.0
 20
0.0
 30
0.0
 70
   128
 71
   15
 72
   16
 73
   3
  0
VERTEX
  8
Triangle_Set_ncl1_4
 62
   253
 10
0.0
 20
0.0
 30
0.0
 70
   128
 71
   4
 72
   15
 73
   3
  0
VERTEX
  8
Triangle_Set_ncl1_4
 62
   253
 10
0.0
 20
0.0
 30
0.0
 70
   128
 71
   3
 72
   16
 73
   44
  0
VERTEX
  8
Triangle_Set_ncl1_4
 62
   253
 10
0.0
 20
0.0
 30
0.0
 70
   128
 71
   44
 72
   16
 73
   45
  0
VERTEX
  8
Triangle_Set_ncl1_4
 62
   253
 10
0.0
 20
0.0
 30
0.0
 70
   128
 71
   45
 72
   16
 73
   46
  0
VERTEX
  8
Triangle_Set_ncl1_4
 62
   253
 10
0.0
 20
0.0
 30
0.0
 70
   128
 71
   46
 72
   16
 73
   47
  0
VERTEX
  8
Triangle_Set_ncl1_4
 62
   253
 10
0.0
 20
0.0
 30
0.0
 70
   128
 71
   47
 72
   16
 73
   22
  0
VERTEX
  8
Triangle_Set_ncl1_4
 62
   253
 10
0.0
 20
0.0
 30
0.0
 70
   128
 71
   48
 72
   47
 73
   22
  0
VERTEX
  8
Triangle_Set_ncl1_4
 62
   253
 10
0.0
 20
0.0
 30
0.0
 70
   128
 71
   49
 72
   48
 73
   22
  0
VERTEX
  8
Triangle_Set_ncl1_4
 62
   253
 10
0.0
 20
0.0
 30
0.0
 70
   128
 71
   50
 72
   49
 73
   22
  0
VERTEX
  8
Triangle_Set_ncl1_4
 62
   253
 10
0.0
 20
0.0
 30
0.0
 70
   128
 71
   14
 72
   50
 73
   22
  0
VERTEX
  8
Triangle_Set_ncl1_4
 62
   253
 10
0.0
 20
0.0
 30
0.0
 70
   128
 71
   14
 72
   22
 73
   21
  0
VERTEX
  8
Triangle_Set_ncl1_4
 62
   253
 10
0.0
 20
0.0
 30
0.0
 70
   128
 71
   51
 72
   17
 73
   52
  0
VERTEX
  8
Triangle_Set_ncl1_4
 62
   253
 10
0.0
 20
0.0
 30
0.0
 70
   128
 71
   52
 72
   17
 73
   53
  0
VERTEX
  8
Triangle_Set_ncl1_4
 62
   253
 10
0.0
 20
0.0
 30
0.0
 70
   128
 71
   53
 72
   17
 73
   54
  0
VERTEX
  8
Triangle_Set_ncl1_4
 62
   253
 10
0.0
 20
0.0
 30
0.0
 70
   128
 71
   54
 72
   17
 73
   55
  0
VERTEX
  8
Triangle_Set_ncl1_4
 62
   253
 10
0.0
 20
0.0
 30
0.0
 70
   128
 71
   55
 72
   17
 73
   56
  0
VERTEX
  8
Triangle_Set_ncl1_4
 62
   253
 10
0.0
 20
0.0
 30
0.0
 70
   128
 71
   56
 72
   17
 73
   57
  0
VERTEX
  8
Triangle_Set_ncl1_4
 62
   253
 10
0.0
 20
0.0
 30
0.0
 70
   128
 71
   57
 72
   17
 73
   18
  0
VERTEX
  8
Triangle_Set_ncl1_4
 62
   253
 10
0.0
 20
0.0
 30
0.0
 70
   128
 71
   18
 72
   17
 73
   21
  0
VERTEX
  8
Triangle_Set_ncl1_4
 62
   253
 10
0.0
 20
0.0
 30
0.0
 70
   128
 71
   19
 72
   18
 73
   21
  0
VERTEX
  8
Triangle_Set_ncl1_4
 62
   253
 10
0.0
 20
0.0
 30
0.0
 70
   128
 71
   17
 72
   14
 73
   21
  0
VERTEX
  8
Triangle_Set_ncl1_4
 62
   253
 10
0.0
 20
0.0
 30
0.0
 70
   128
 71
   20
 72
   19
 73
   21
  0
VERTEX
  8
Triangle_Set_ncl1_4
 62
   253
 10
0.0
 20
0.0
 30
0.0
 70
   128
 71
   22
 72
   16
 73
   64
  0
VERTEX
  8
Triangle_Set_ncl1_4
 62
   253
 10
0.0
 20
0.0
 30
0.0
 70
   128
 71
   64
 72
   16
 73
   63
  0
VERTEX
  8
Triangle_Set_ncl1_4
 62
   253
 10
0.0
 20
0.0
 30
0.0
 70
   128
 71
   63
 72
   16
 73
   62
  0
VERTEX
  8
Triangle_Set_ncl1_4
 62
   253
 10
0.0
 20
0.0
 30
0.0
 70
   128
 71
   62
 72
   16
 73
   61
  0
VERTEX
  8
Triangle_Set_ncl1_4
 62
   253
 10
0.0
 20
0.0
 30
0.0
 70
   128
 71
   61
 72
   16
 73
   60
  0
VERTEX
  8
Triangle_Set_ncl1_4
 62
   253
 10
0.0
 20
0.0
 30
0.0
 70
   128
 71
   60
 72
   16
 73
   59
  0
VERTEX
  8
Triangle_Set_ncl1_4
 62
   253
 10
0.0
 20
0.0
 30
0.0
 70
   128
 71
   59
 72
   16
 73
   58
  0
VERTEX
  8
Triangle_Set_ncl1_4
 62
   253
 10
0.0
 20
0.0
 30
0.0
 70
   128
 71
   16
 72
   15
 73
   6
  0
VERTEX
  8
Triangle_Set_ncl1_4
 62
   253
 10
0.0
 20
0.0
 30
0.0
 70
   128
 71
   16
 72
   6
 73
   5
  0
VERTEX
  8
Triangle_Set_ncl1_4
 62
   253
 10
0.0
 20
0.0
 30
0.0
 70
   128
 71
   61
 72
   60
 73
   26
  0
VERTEX
  8
Triangle_Set_ncl1_4
 62
   253
 10
0.0
 20
0.0
 30
0.0
 70
   128
 71
   62
 72
   61
 73
   27
  0
VERTEX
  8
Triangle_Set_ncl1_4
 62
   253
 10
0.0
 20
0.0
 30
0.0
 70
   128
 71
   63
 72
   62
 73
   28
  0
VERTEX
  8
Triangle_Set_ncl1_4
 62
   253
 10
0.0
 20
0.0
 30
0.0
 70
   128
 71
   64
 72
   63
 73
   29
  0
VERTEX
  8
Triangle_Set_ncl1_4
 62
   253
 10
0.0
 20
0.0
 30
0.0
 70
   128
 71
   22
 72
   64
 73
   7
  0
VERTEX
  8
Triangle_Set_ncl1_4
 62
   253
 10
0.0
 20
0.0
 30
0.0
 70
   128
 71
   60
 72
   59
 73
   25
  0
VERTEX
  8
Triangle_Set_ncl1_4
 62
   253
 10
0.0
 20
0.0
 30
0.0
 70
   128
 71
   7
 72
   64
 73
   29
  0
VERTEX
  8
Triangle_Set_ncl1_4
 62
   253
 10
0.0
 20
0.0
 30
0.0
 70
   128
 71
   29
 72
   63
 73
   28
  0
VERTEX
  8
Triangle_Set_ncl1_4
 62
   253
 10
0.0
 20
0.0
 30
0.0
 70
   128
 71
   59
 72
   58
 73
   24
  0
VERTEX
  8
Triangle_Set_ncl1_4
 62
   253
 10
0.0
 20
0.0
 30
0.0
 70
   128
 71
   28
 72
   62
 73
   27
  0
VERTEX
  8
Triangle_Set_ncl1_4
 62
   253
 10
0.0
 20
0.0
 30
0.0
 70
   128
 71
   58
 72
   16
 73
   23
  0
VERTEX
  8
Triangle_Set_ncl1_4
 62
   253
 10
0.0
 20
0.0
 30
0.0
 70
   128
 71
   27
 72
   61
 73
   26
  0
VERTEX
  8
Triangle_Set_ncl1_4
 62
   253
 10
0.0
 20
0.0
 30
0.0
 70
   128
 71
   26
 72
   60
 73
   25
  0
VERTEX
  8
Triangle_Set_ncl1_4
 62
   253
 10
0.0
 20
0.0
 30
0.0
 70
   128
 71
   25
 72
   59
 73
   24
  0
VERTEX
  8
Triangle_Set_ncl1_4
 62
   253
 10
0.0
 20
0.0
 30
0.0
 70
   128
 71
   24
 72
   58
 73
   23
  0
VERTEX
  8
Triangle_Set_ncl1_4
 62
   253
 10
0.0
 20
0.0
 30
0.0
 70
   128
 71
   23
 72
   16
 73
   5
  0
VERTEX
  8
Triangle_Set_ncl1_4
 62
   253
 10
0.0
 20
0.0
 30
0.0
 70
   128
 71
   21
 72
   22
 73
   7
  0
VERTEX
  8
Triangle_Set_ncl1_4
 62
   253
 10
0.0
 20
0.0
 30
0.0
 70
   128
 71
   21
 72
   7
 73
   8
  0
VERTEX
  8
Triangle_Set_ncl1_4
 62
   253
 10
0.0
 20
0.0
 30
0.0
 70
   128
 71
   20
 72
   8
 73
   9
  0
VERTEX
  8
Triangle_Set_ncl1_4
 62
   253
 10
0.0
 20
0.0
 30
0.0
 70
   128
 71
   8
 72
   20
 73
   21
  0
VERTEX
  8
Triangle_Set_ncl1_4
 62
   253
 10
0.0
 20
0.0
 30
0.0
 70
   128
 71
   19
 72
   20
 73
   10
  0
VERTEX
  8
Triangle_Set_ncl1_4
 62
   253
 10
0.0
 20
0.0
 30
0.0
 70
   128
 71
   20
 72
   9
 73
   10
  0
VERTEX
  8
Triangle_Set_ncl1_4
 62
   253
 10
0.0
 20
0.0
 30
0.0
 70
   128
 71
   17
 72
   13
 73
   14
  0
VERTEX
  8
Triangle_Set_ncl1_4
 62
   253
 10
0.0
 20
0.0
 30
0.0
 70
   128
 71
   13
 72
   17
 73
   12
  0
VERTEX
  8
Triangle_Set_ncl1_4
 62
   253
 10
0.0
 20
0.0
 30
0.0
 70
   128
 71
   11
 72
   19
 73
   10
  0
VERTEX
  8
Triangle_Set_ncl1_4
 62
   253
 10
0.0
 20
0.0
 30
0.0
 70
   128
 71
   19
 72
   11
 73
   18
  0
VERTEX
  8
Triangle_Set_ncl1_4
 62
   253
 10
0.0
 20
0.0
 30
0.0
 70
   128
 71
   12
 72
   17
 73
   30
  0
VERTEX
  8
Triangle_Set_ncl1_4
 62
   253
 10
0.0
 20
0.0
 30
0.0
 70
   128
 71
   52
 72
   30
 73
   51
  0
VERTEX
  8
Triangle_Set_ncl1_4
 62
   253
 10
0.0
 20
0.0
 30
0.0
 70
   128
 71
   54
 72
   32
 73
   53
  0
VERTEX
  8
Triangle_Set_ncl1_4
 62
   253
 10
0.0
 20
0.0
 30
0.0
 70
   128
 71
   56
 72
   34
 73
   55
  0
VERTEX
  8
Triangle_Set_ncl1_4
 62
   253
 10
0.0
 20
0.0
 30
0.0
 70
   128
 71
   18
 72
   36
 73
   57
  0
VERTEX
  8
Triangle_Set_ncl1_4
 62
   253
 10
0.0
 20
0.0
 30
0.0
 70
   128
 71
   34
 72
   33
 73
   55
  0
VERTEX
  8
Triangle_Set_ncl1_4
 62
   253
 10
0.0
 20
0.0
 30
0.0
 70
   128
 71
   35
 72
   34
 73
   56
  0
VERTEX
  8
Triangle_Set_ncl1_4
 62
   253
 10
0.0
 20
0.0
 30
0.0
 70
   128
 71
   36
 72
   35
 73
   57
  0
VERTEX
  8
Triangle_Set_ncl1_4
 62
   253
 10
0.0
 20
0.0
 30
0.0
 70
   128
 71
   11
 72
   36
 73
   18
  0
VERTEX
  8
Triangle_Set_ncl1_4
 62
   253
 10
0.0
 20
0.0
 30
0.0
 70
   128
 71
   57
 72
   35
 73
   56
  0
VERTEX
  8
Triangle_Set_ncl1_4
 62
   253
 10
0.0
 20
0.0
 30
0.0
 70
   128
 71
   33
 72
   32
 73
   54
  0
VERTEX
  8
Triangle_Set_ncl1_4
 62
   253
 10
0.0
 20
0.0
 30
0.0
 70
   128
 71
   55
 72
   33
 73
   54
  0
VERTEX
  8
Triangle_Set_ncl1_4
 62
   253
 10
0.0
 20
0.0
 30
0.0
 70
   128
 71
   32
 72
   31
 73
   53
  0
VERTEX
  8
Triangle_Set_ncl1_4
 62
   253
 10
0.0
 20
0.0
 30
0.0
 70
   128
 71
   53
 72
   31
 73
   52
  0
VERTEX
  8
Triangle_Set_ncl1_4
 62
   253
 10
0.0
 20
0.0
 30
0.0
 70
   128
 71
   31
 72
   30
 73
   52
  0
VERTEX
  8
Triangle_Set_ncl1_4
 62
   253
 10
0.0
 20
0.0
 30
0.0
 70
   128
 71
   30
 72
   17
 73
   51
  0
SEQEND
  0
ENDSEC
  0
EOF
